<?xml version="1.0" encoding="utf-8"?>
<!-- Generator: Adobe Illustrator 18.0.0, SVG Export Plug-In . SVG Version: 6.00 Build 0)  -->
<!DOCTYPE svg PUBLIC "-//W3C//DTD SVG 1.1//EN" "http://www.w3.org/Graphics/SVG/1.1/DTD/svg11.dtd">
<svg version="1.1" xmlns="http://www.w3.org/2000/svg" xmlns:xlink="http://www.w3.org/1999/xlink" x="0px" y="0px"
	 viewBox="0 0 960 560" enable-background="new 0 0 960 560" xml:space="preserve">
<symbol  id="New_Symbol_1" viewBox="-94.6 -72.7 189.2 145.4">
	<g>
		<g>
			<g>
				<path fill="#1972F5" d="M33.5-0.6c0-18.8-15.2-34-34-34s-34,15.2-34,34c0,18.8,15.2,34,34,34S33.5,18.2,33.5-0.6z"/>
				<g>
					<path fill="#FFFFFF" d="M20,0.4c-0.5,0.8-0.9,1.1-1.2,1.3c0,0.9-0.5,1.3-0.8,1.5c0,0.3,0.1,0.7-0.2,1.3c0,0.1-1.3,2.5-1.3,2.5
						c0.3,0.8,1.2-1,1.2-1.1c0.1-0.1,0.1-0.3,0.1-0.4c0.2-0.1,0.3-0.3,0.5-0.5c0.2-0.3,0.1-0.7,0.3-1c0,0,0,0,0,0
						c0.3-0.2,0.6-0.7,0.9-1.3c0.1-0.3,0.1-0.3,0.6-2.5C20.1,0.3,20.1,0.4,20,0.4 M16.5,7c-0.5,0.8-0.9,1.3-1.2,1.6
						C15.7,8.3,16.1,7.8,16.5,7C16.5,6.9,16.5,7,16.5,7 M13.1,11.6C13.1,11.6,13.1,11.6,13.1,11.6C13.1,11.6,13.1,11.6,13.1,11.6
						C13.1,11.6,13.1,11.6,13.1,11.6 M31,12.2c-3.5,8.7-10.4,15.6-19.1,19l0,0c-0.1,0-0.2,0.1-0.3,0.1c0.1,0,0.2-0.1,0.3-0.1
						c-3.7,1.3-3.7,1.3-4.8,1.5c0.1,0,0.2-0.1,0.3-0.1c-1.2,0.3-1.7,0.4-2.1,0.4c1.4-0.3,1.4-0.3,2.8-0.7c-0.1,0-0.2,0.1-0.3,0.1
						c0.8-0.3,0.8-0.3,4.2-1.9c0.2-0.1,0.4-0.2,0.6-0.2c-0.3,0.1-0.6,0.2-0.9,0.3c0.4-0.2,0.8-0.5,1.3-0.7c-0.7,0.1-1.2,0.6-1.9,0.9
						l5-2.9c-0.4,0.2-0.4,0.2-1.1,0.7c0.4-0.5,1-0.9,1.3-1.5c-0.1,0-0.2,0-0.3,0c-0.5,0.7-0.8,1.2-3.7,2.9c-0.6,0.2-1,0.6-1.6,0.9
						c0.9-1.1,2.2-1.5,3.2-2.3c-0.5,0.1-1.6,0.6-2.4,0.9c0.5-0.3,1-0.6,1.5-1c-0.2,0-0.4,0.1-0.6,0c0-0.1,0.1-0.2,0.1-0.3
						c-0.2,0.1-0.4,0.2-0.5,0.3c-0.4-0.3-0.4-0.5-0.1-1.1c-0.5,0.2-0.8,0.7-1.3,0.9c0.3-0.5,0.9-0.9,1.2-1.4c-0.1,0-0.2,0.1-0.3,0.1
						c-0.1,0-0.2-0.1-0.3-0.2c0.1-0.3,0.1-0.3,0.5-0.8c-0.3,0-0.3,0-0.8,0.3c0-0.1,0-0.2,0-0.3c0.1-0.1,0.3-0.2,0.4-0.4
						c-0.1,0-0.1,0-2.2,1.8c1.5-0.4,1.5-0.4,1.7-0.3c-0.2,1.4-4.5,2.5-4.9,2.1l-1.8-4.5c-0.1-0.9,0.1-2.3,0.7-2.4c0.2,0,0.2,0,1,0.6
						c0.7-0.5,0.6-1.5,1.4-2.1c0.1,0,0.2,0,0.3,0.1c0.1,0.4,0.2,0.4,0.6,0.5c-0.1,0.4-0.2,0.9-0.3,1.3c0.1,0,0.2,0.1,0.3,0.2
						c0.1,1-0.8,1.9-0.2,2.9c-0.2,0.5-0.2,0.5-0.2,0.9c0.2,0.1,0.2,0.1,0.2,0.1h0h0h0h0h0h0h0C8.2,26.6,8.9,26,8,25.1
						c0.6-1.4,0.9-2.1,1.8-1.7c0.4,0.2,0.5,0.2,0.9-0.1c0,0,0,0-1.3-0.3c0-0.1-0.1-0.2-0.1-0.3c0.7-1.2,0.7-1.2,0.7-1.2
						c-0.1,0-0.1,0-0.1,0c0,0,0,0,0,0h0h0h0h0h0h0c-0.1,0.2-0.3,0.3-0.5,0.4c-0.1,0-0.2-0.1-0.2-0.1c0-0.4,0.2-0.8,0.3-1.1
						c-0.1-0.1-0.2-0.4-0.2-0.5c-0.6,0.3-0.6,0.3-0.7,0.3c-0.6-0.9-2.1-0.5-2.3,0c-0.1,0.4-0.1,0.9-0.2,1.3c-0.1,0-0.2,0-0.3,0
						c-0.1-0.1-0.3-0.4-0.4-0.6c0.5-1.1,0.5-1.1,0.5-1.3c-0.7-0.1-0.7-0.1-2.2-2c-0.6-0.7-1.4-0.6-2.1-0.9c0-0.1,0-0.2,0-0.3
						c1.6-0.9,1.8-1,1.4-2.2c-0.9-0.3-1.8,0.2-2.6-0.2c-0.1-0.5-0.1-1.2,0-1.7c-0.1-0.1-0.3-0.4-0.3-0.6c0.1,0,0.2-0.1,0.4-0.1
						c0-0.2,0-0.4,0-0.6c0.5,0,0.8-0.8,1.4-0.5c0.5,0.3,1.2,0.1,1.7,0.6c0.7,0.6,0.8,1.5,1.4,2.1c0,0.2,0,0.5,0,0.7
						C7,14.8,7,14.8,7.1,14.8l2.5-2.6c-0.2-0.3-0.2-0.4-1.2-0.5c0.3-0.2,0.8-0.5,1.2-0.7c0,0.2,0,0.4,0,0.6c0.3,0.2,0.3,0.2,0.6,0.7
						c-0.1,0.1-0.2,0.4-0.3,0.5c0.2,0,0.4-0.1,0.6-0.2c-0.2,0.5-0.2,0.5-0.8,0.7c0,0.1-0.1,0.2-0.1,0.3c-0.1,0-0.2-0.1-0.3-0.1
						c-0.3,0.2-0.6,0.4-1.2,1.4c0,0.1,0.1,0.2,0.1,0.3c0.2,0,0.4,0.1,0.5,0.1c0.4-0.6,0.6-1,1.8-1.6c0.1-0.5,1.1-2.5,1.8-2.6
						c0,0.1,0.1,0.2,0.1,0.3c0.1,0,0.1,0,0.7,0.1c-0.3,0.1-0.6,0.4-1,1c0.3,0.1,0.5,0.3,0.7,0.4c0.9-0.5,0.7-1.9,1.9-2.2
						c0.1,0.1,0.3,0.3,0.4,0.5c0.4-0.4,0.6-0.6,1.4-0.1c0.8-0.5,0.3-2.5-0.4-2.6c-0.4-0.1-0.6,0-0.9,0.1c-0.1,0-0.1,0-0.1,0h0
						c0,0,0,0,0,0h0h0h0c0,0,0,0,0,0h0c-1.1,0.1-2.1,0.7-3.3,0.7c-0.3-0.3-0.1-0.7-0.3-1c-1-0.1-3.7,1.4-3.7,1.4
						c0.1,1.9,0.1,1.9-2.8,1.4c-3.2-0.5-3.2-0.5-3.2-0.5C1.4,10.5,1.2,10.2,1,10C0.9,9.9,0.9,9.9,0.9,9.9h0h0h0h0h0h0h0
						c0,0-4.1-5.4-4.2-5.7c0.5-0.5,0.8-1,0.4-2.1C-3.3,1.5-4-0.1-0.2-2.7C0.2-2.9,0.6-3.2,1-3.3c1.2-0.1,2.3,0.5,3.5,0.8
						c1.2,0.2,2.1-0.9,3.3-0.6c0.1-0.1,0.2-0.2,0.2-0.3C8.1-4.2,7.5-5,7.6-5.8c0.2-1,1.2-1.6,1.4-2.6C9.3-9.7,9.2-9.8,9-10.2
						C7.5-12.8,9.8-19,9.8-19c2.3-0.1,2.9,0.5,3.4,1c0.4,0.4,0.9,1,1.2,1.3c0.5,0.6,1,1.2,1.5,1.8c0.4,0.6-0.1,1.3,0.3,1.9
						c0.6,0.8,1.7,1,2.2,1.8c1,1.6-0.4,3.4,0.6,5c0.9,1.4,2.3,2.3,3.2,3.8c0.4,0.8,0.6,1.7,0.4,2.5c-0.8-0.6-1.3-0.7-2.1-0.7
						c-0.1,0.2-0.2,0.4-0.3,0.6c5.5,4.1,6.1,4.6,3.5,5.5c-0.1,0.2-0.2,0.6-0.3,0.8c-0.1-0.5-0.1-0.8-1.1-1c-0.4,0.8-1.2,1.4-1.2,2.4
						c0.1,0.1,0.2,0.1,0.3,0.2c0.2,0,0.2,0,0.2,0c0,0,0,0,0,0c0,0,0,0,0,0c0,0,0,0,0,0c0,0,0,0,0,0h0h0h0c0.8-1.6,1.3-1.9,1.8-1.3
						c1.1-0.9,2.7-0.7,3.5-1.9c0.1,0,0.2,0.1,0.2,0.2c0-0.1,0-0.2,0-0.3C27.1,4.6,27,4.5,27,4.5c0.1-0.2,0.3-0.4,0.4-0.5
						c0.1,0,0.2,0.1,0.3,0.1c0,0.1,0,0.2,0.1,0.3c0.2-1.2,0.2-1.2,1.3-5.9c0.1,0,0.2,0.1,0.3,0.1l1.3,5.5c0.1,0,0.2,0,0.3,0
						C30.9,4.2,31,4.3,31,4.3c0.6-1,0.6-1,0.8-2.6c0.1,0.1,0.2,0.3,0.3,0.4c0.7-2.2,0.1-4.4,0.5-6.6c0.6,1.6-0.2,3.3-0.1,4.9
						c0.4-0.8,0.4-1.9,0.4-1.9c0.6,1.7,0,6.8,0,6.8c-0.4,2.4-1,4.5-1.8,6.4l0,0C31.1,11.9,31.1,12.1,31,12.2"/>
					<path fill="#FFFFFF" d="M3.8,19.4c-0.1-0.4-0.1-0.6-0.1-0.7c0-0.1,0.1-0.1,0.2-0.2c0.1-0.1,0-0.1-0.2-0.2
						c-1.3-0.1-1.7-0.2-2.3-0.5c0.5,0.7,0.6,0.7,0.7,0.7c-0.1,0.2-0.4,0.2-0.4,0.5c0,0,0,0,0.3,0.1c0.1,0,0.1,0.1,0.1,0.2
						c0,0.1-0.1,0.3,0,0.4c0.1,0.1,0.3,0,0.3,0.2c0,0.1-0.1,0.4-0.1,0.4c0,0.1-0.1,0.2-0.6,0.2c-0.1,0.1-0.1,0.1-0.1,0.2
						c-0.1,0.2,0,0.4,0,0.6c0,0.1,0,0.1-0.2,0.1c-0.2,0-0.2,0.1-0.2,0.3c0.1,0.8,0.2,0.9,0.7,1c0.1-0.2,0.1-0.4-0.1-0.6
						c-0.1-0.1-0.1-0.1,0-0.2c0.2,0,0.4,0.2,0.7,0.1c0-0.1,0-0.2-0.1-0.5C2.1,21.1,2,20.9,2.4,21c0,0,0,0,0,0
						c0.1-0.2,0.1-0.4,0.2-0.5c0.2-0.2,0.4-0.3,0.5-0.6c0.1-0.2,0.1-0.4,0.2-0.5C3.5,19.4,3.7,19.4,3.8,19.4
						C3.8,19.4,3.8,19.4,3.8,19.4"/>
					<path fill="#FFFFFF" d="M1.2,20.2c0-0.1-0.1-0.2-0.2-0.3c0.1-0.4,0-0.7,0-0.8c0,0-0.1-0.1-0.1-0.1c-0.1-0.1-0.3-0.1-0.4-0.2
						c-0.1-0.1-0.1-0.2-0.2-0.3c0,0-0.1,0-0.1,0c-0.3,0.2-0.2,0.3-0.1,0.4c0.3,0.4,0.3,0.7,0.3,0.7c0,0-0.1,0-0.1,0
						c-0.1-0.1-0.3-0.1-0.4,0.1c0,0,0,0.1,0,0.1c0,0.1,0,0.2,0.3,0.2C0.4,20,0.4,20,0.5,20.1c0,0.2-0.1,0.3-0.1,0.5
						c0,0.2,0.2,0.2,0.3,0.2C0.9,20.7,1.3,20.4,1.2,20.2"/>
					<path fill="#FFFFFF" d="M-1.4,26.4c0-0.2-0.1-0.4-0.2-0.4c0,0-0.1,0-0.2-0.1c-0.2-0.1-0.3-0.3-0.4-0.4
						c-0.1-0.1-0.2-0.1-0.3-0.2c-0.1,0-0.2,0-0.3,0c-0.2,0-0.4,0.2-0.7,0.2c-0.2,0-0.2,0-0.3,0c0,0,0,0,0,0c0,0,0,0,0.1,0.1
						c0.2,0.1,0.2,0.2,0.2,0.2c0,0.1-0.1,0.2-0.4,0.3c0.4,0,0.4,0.3,0.4,0.3c0,0.1-0.2,0-0.3,0c-0.1,0-0.2,0-0.2,0
						c0,0.1,0.1,0.3,0.3,0.3c0,0,0.1,0,0.2,0c-0.1,0.1-0.2,0.4,0.1,0.4c0.1-0.1,0.2-0.2,0.1-0.4c0-0.1,0.1-0.2,0.1-0.2
						c0,0,0.1,0,0.1,0c0.1,0,0.2,0.1,0.3,0.2c0.1,0.1,0.3,0.1,0.4,0.1C-2.4,26.9-1.3,27.3-1.4,26.4"/>
					<path fill="#FFFFFF" d="M29.9-1.9c0-0.6-0.2-0.5-0.3-0.4c-0.2,0.2-0.1,1.2,0.1,1.4C29.9-1.4,29.9-1.8,29.9-1.9"/>
					<path fill="#FFFFFF" d="M32.4-7c-0.1-0.3-0.1-0.3-0.1-0.3c-0.2,0-0.2,0.8-0.1,2.4c0,0.3,0,1.1-0.3,2.3c0.2-0.1,0.5-1,0.6-1.8
						l0.1-1.8C32.5-6.2,32.5-6.7,32.4-7"/>
					<path fill="#FFFFFF" d="M32.5-8.4c0-0.1-0.1-0.1-0.1-0.1c0,0,0,0,0,0c0,0.1,0,0.2,0,0.2c0,0,0,0-0.1,0.1c0,0-0.1,0.1-0.1,0.3
						c0,0.4,0.1,0.5,0.1,0.6c0,0,0,0,0,0c0,0,0-0.1,0-0.1c0-0.1,0-0.3,0-0.3c0,0,0,0,0,0c0,0,0,0,0.1,0C32.6-7.9,32.5-8.4,32.5-8.4"
						/>
					<path fill="#FFFFFF" d="M33.4-3.3c0-0.1,0-0.3-0.1-1.1c0-0.1,0-0.3,0-0.4c0,0,0,0,0,0c-0.1-1.1-0.3-2-0.3-2
						c-0.1,0.2,0,0.3,0,0.5c0,0,0,0,0,0c0,0,0,0,0-0.1c0.1,0.6,0.1,0.9,0.1,1c0,0.4,0.1,0.9,0.1,1c0,0,0,0,0,0c0,0,0-0.1,0-0.1
						c0,0,0,0,0.1,0.5c0,0.2,0.1,0.4,0.1,0.7c0,0.3,0,0.6,0.1,0.8c0-0.1,0-0.1,0-0.4C33.4-2.9,33.4-3.1,33.4-3.3"/>
					<path fill="#FFFFFF" d="M32.5-8.6c0-0.1,0-0.1,0-0.1c0,0,0.1,0.3,0.1,0.4c0,0,0,0,0,0c0,0,0,0,0,0C32.6-8.5,32.5-8.6,32.5-8.6"
						/>
					<path fill="#FFFFFF" d="M27.9-19.2C27.9-19.2,27.9-19.2,27.9-19.2C27.9-19.2,27.9-19.2,27.9-19.2c0.3,0.5,0.6,1,0.9,1.5
						c0.4,0.7,0.7,1.4,1,2c0.2,0.3,1.2,2.5,1.2,2.5C30.2-15.3,29.2-17.3,27.9-19.2"/>
					<path fill="#FFFFFF" d="M33.1,3.6c0,0,0.1-1.1,0-1C33,2.8,32.9,3.3,33.1,3.6C33,3.5,33,3.5,33.1,3.6C33,3.6,33,3.7,33.1,3.6
						C33,3.7,33.1,3.7,33.1,3.6"/>
					<path fill="#FFFFFF" d="M21.2-11c-0.2-0.8-1.4-3.3-1.6-3.7c-0.5-0.8-0.9-0.8-1-0.7c-0.1,0.1-0.2,0.5,0,1.5
						c0.1,0.4,0.5,0.6,0.6,1c0.1,0.4,0,0.8,0.2,1.2c0.1,0.2,0.3,0.2,0.5,0.2c0.4,0.1,0.6,0.2,0.9,0.6c0.2,0.3,0.2,0.6,0.5,0.8
						c0,0,0.1,0,0.1,0C21.4-10.1,21.2-10.8,21.2-11"/>
					<path fill="#FFFFFF" d="M6,32.5c0.9-0.3,2.6-1.4,3.1-1.8c0.3-0.2,1.2-0.9,2.1-1.2c-0.4,0-0.4,0-0.4,0c0,0-0.1,0-0.1,0
						c-0.2,0.1-0.4,0.3-0.6,0.4C9.9,30,9.7,30,9.6,30.1c-0.1,0-0.3,0.2-0.4,0.2c0,0,0,0,0,0C9.1,30.5,9,30.6,9,30.6
						c0,0-0.1,0-0.1,0.1c-0.2,0.1-0.3,0.3-0.5,0.4c-0.2,0.1-0.3,0.1-0.5,0.3c0,0,0,0,0,0.1c0,0,0,0-0.2,0.1c-0.5,0.3-1,0.5-1.5,0.8
						c0,0,0,0,0,0C6.2,32.3,6,32.3,6,32.4c0,0,0.1,0,0.1,0c0,0,0,0-0.8,0.3c0,0,0,0,0,0C5.4,32.7,5.6,32.7,6,32.5"/>
					<path fill="#FFFFFF" d="M33.5-1.2c0-0.2,0-0.3,0-0.3C33.5-1.5,33.5-1.5,33.5-1.2c0,0.1,0,0.2,0,0.3C33.5-1,33.5-1.1,33.5-1.2"
						/>
					<path fill="#FFFFFF" d="M-27.6,3.1L-27.6,3.1C-27.6,3.1-27.6,3.1-27.6,3.1 M-27.6,3.1C-27.6,3.1-27.6,3.1-27.6,3.1
						C-27.6,3.1-27.6,3.1-27.6,3.1 M-27.6,3.1C-27.6,3.1-27.6,3.1-27.6,3.1C-27.6,3.1-27.6,3.1-27.6,3.1 M-27.6,3.1
						C-27.6,3.1-27.6,3.1-27.6,3.1C-27.6,3.1-27.6,3.1-27.6,3.1 M-27.6,3.1C-27.6,3.1-27.6,3.1-27.6,3.1
						C-27.6,3.1-27.6,3.1-27.6,3.1 M-27.6,3.1C-27.6,3.1-27.6,3.1-27.6,3.1C-27.6,3.1-27.6,3.1-27.6,3.1 M-27.6,3.1
						C-27.6,3.1-27.6,3.1-27.6,3.1C-27.6,3.1-27.6,3.1-27.6,3.1 M-27.6,3.1C-27.6,3.1-27.6,3.1-27.6,3.1
						C-27.6,3.1-27.6,3.1-27.6,3.1 M-27.6,3.1C-27.6,3.1-27.6,3.1-27.6,3.1C-27.6,3.1-27.6,3.1-27.6,3.1 M-27.6,3.1
						C-27.6,3.1-27.6,3.1-27.6,3.1C-27.6,3.1-27.6,3.1-27.6,3.1 M-27.6,3.1C-27.6,3.1-27.6,3.1-27.6,3.1
						C-27.6,3.1-27.6,3.1-27.6,3.1 M-27.6,3.1C-27.6,3.1-27.6,3.1-27.6,3.1C-27.6,3.1-27.6,3.1-27.6,3.1 M-27.6,3.1
						C-27.6,3.1-27.6,3.1-27.6,3.1C-27.6,3.1-27.6,3.1-27.6,3.1 M-27.6,3.1C-27.6,3.1-27.6,3.1-27.6,3.1
						C-27.6,3.1-27.6,3.1-27.6,3.1 M-27.6,3.1C-27.6,3.1-27.6,3.1-27.6,3.1C-27.6,3.1-27.6,3.1-27.6,3.1 M-27.6,3.1
						C-27.6,3.1-27.6,3.1-27.6,3.1C-27.6,3.1-27.6,3.1-27.6,3.1 M-27.6,3.1C-27.6,3.1-27.6,3.1-27.6,3.1
						C-27.6,3.1-27.6,3.1-27.6,3.1 M-27.6,3.1C-27.6,3.1-27.6,3.1-27.6,3.1C-27.6,3.1-27.6,3.1-27.6,3.1 M-27.6,3.2
						C-27.6,3.1-27.6,3.1-27.6,3.2C-27.6,3.1-27.6,3.1-27.6,3.2 M-27.6,3.2C-27.6,3.2-27.6,3.2-27.6,3.2
						C-27.6,3.2-27.6,3.2-27.6,3.2 M-27.6,3.2C-27.6,3.2-27.6,3.2-27.6,3.2C-27.6,3.2-27.6,3.2-27.6,3.2 M-27.6,3.2
						C-27.6,3.2-27.6,3.2-27.6,3.2C-27.6,3.2-27.6,3.2-27.6,3.2 M-27.6,3.2C-27.6,3.2-27.6,3.2-27.6,3.2
						C-27.6,3.2-27.6,3.2-27.6,3.2 M-27.6,3.2C-27.6,3.2-27.6,3.2-27.6,3.2C-27.6,3.2-27.6,3.2-27.6,3.2 M-27.6,3.2
						C-27.6,3.2-27.6,3.2-27.6,3.2C-27.6,3.2-27.6,3.2-27.6,3.2 M-27.6,3.2C-27.6,3.2-27.6,3.2-27.6,3.2
						C-27.6,3.2-27.6,3.2-27.6,3.2 M-27.6,3.2C-27.6,3.2-27.6,3.2-27.6,3.2C-27.6,3.2-27.6,3.2-27.6,3.2 M-27.6,3.2
						C-27.6,3.2-27.6,3.2-27.6,3.2C-27.6,3.2-27.6,3.2-27.6,3.2 M-27.6,3.2C-27.6,3.2-27.6,3.2-27.6,3.2
						C-27.6,3.2-27.6,3.2-27.6,3.2 M-27.6,3.2C-27.6,3.2-27.6,3.2-27.6,3.2C-27.6,3.2-27.6,3.2-27.6,3.2 M-27.6,3.2
						C-27.6,3.2-27.6,3.2-27.6,3.2C-27.6,3.2-27.6,3.2-27.6,3.2 M-27.6,3.2C-27.6,3.2-27.6,3.2-27.6,3.2
						C-27.6,3.2-27.6,3.2-27.6,3.2 M-31.5,9.3L-31.5,9.3C-31.6,9.3-31.6,9.3-31.5,9.3 M-31.5,9.3C-31.5,9.3-31.5,9.3-31.5,9.3
						C-31.5,9.3-31.5,9.3-31.5,9.3 M-31.5,9.3C-31.5,9.3-31.5,9.3-31.5,9.3C-31.5,9.3-31.5,9.3-31.5,9.3 M-31.5,9.3
						C-31.5,9.3-31.5,9.3-31.5,9.3C-31.5,9.3-31.5,9.3-31.5,9.3 M-31.5,9.3C-31.5,9.3-31.5,9.3-31.5,9.3
						C-31.5,9.3-31.5,9.3-31.5,9.3 M-31.5,9.3C-31.5,9.3-31.5,9.3-31.5,9.3C-31.5,9.3-31.5,9.3-31.5,9.3 M-31.5,9.3
						C-31.5,9.3-31.5,9.3-31.5,9.3C-31.5,9.3-31.5,9.3-31.5,9.3 M-31.5,9.3C-31.5,9.3-31.5,9.3-31.5,9.3
						C-31.5,9.3-31.5,9.3-31.5,9.3 M-31.5,9.3C-31.5,9.3-31.5,9.3-31.5,9.3C-31.5,9.3-31.5,9.3-31.5,9.3 M-31.5,9.3
						C-31.5,9.3-31.5,9.3-31.5,9.3C-31.5,9.3-31.5,9.3-31.5,9.3 M-31.5,9.3C-31.5,9.3-31.5,9.3-31.5,9.3
						C-31.5,9.3-31.5,9.3-31.5,9.3 M-31.5,9.3C-31.5,9.3-31.5,9.3-31.5,9.3C-31.5,9.3-31.5,9.3-31.5,9.3 M-31.5,9.3
						C-31.5,9.3-31.5,9.3-31.5,9.3C-31.5,9.3-31.5,9.3-31.5,9.3 M-31.5,9.3C-31.5,9.3-31.5,9.3-31.5,9.3
						C-31.5,9.3-31.5,9.3-31.5,9.3 M-31.5,9.3C-31.5,9.3-31.5,9.3-31.5,9.3C-31.5,9.3-31.5,9.3-31.5,9.3 M-31.5,9.3
						C-31.5,9.3-31.5,9.3-31.5,9.3C-31.5,9.3-31.5,9.3-31.5,9.3 M-31.5,9.3C-31.5,9.3-31.5,9.3-31.5,9.3
						C-31.5,9.3-31.5,9.3-31.5,9.3 M-31.5,9.3C-31.5,9.3-31.5,9.3-31.5,9.3C-31.5,9.3-31.5,9.3-31.5,9.3 M-31.5,9.3
						C-31.5,9.3-31.5,9.3-31.5,9.3C-31.5,9.3-31.5,9.3-31.5,9.3 M-31.5,9.3C-31.5,9.3-31.5,9.3-31.5,9.3
						C-31.5,9.3-31.5,9.3-31.5,9.3 M-31.5,9.3C-31.5,9.3-31.5,9.3-31.5,9.3C-31.5,9.3-31.5,9.3-31.5,9.3 M-31.5,9.3
						C-31.5,9.3-31.5,9.3-31.5,9.3C-31.5,9.3-31.5,9.3-31.5,9.3 M-31.5,9.3C-31.5,9.3-31.5,9.3-31.5,9.3
						C-31.5,9.3-31.5,9.3-31.5,9.3 M-31.5,9.3C-31.5,9.3-31.5,9.3-31.5,9.3C-31.5,9.3-31.5,9.3-31.5,9.3 M-31.5,9.3
						C-31.5,9.3-31.5,9.3-31.5,9.3C-31.5,9.3-31.5,9.3-31.5,9.3 M-31.5,9.4C-31.5,9.4-31.5,9.3-31.5,9.4
						C-31.5,9.3-31.5,9.4-31.5,9.4 M-31.5,9.4C-31.5,9.4-31.5,9.4-31.5,9.4C-31.5,9.4-31.5,9.4-31.5,9.4 M-31.5,9.4
						C-31.5,9.4-31.5,9.4-31.5,9.4C-31.5,9.4-31.5,9.4-31.5,9.4 M-31.5,9.4C-31.5,9.4-31.5,9.4-31.5,9.4
						C-31.5,9.4-31.5,9.4-31.5,9.4 M-31.5,9.4C-31.5,9.4-31.5,9.4-31.5,9.4C-31.5,9.4-31.5,9.4-31.5,9.4 M-31.5,9.4
						C-31.5,9.4-31.5,9.4-31.5,9.4C-31.5,9.4-31.5,9.4-31.5,9.4 M-31.5,9.4C-31.5,9.4-31.5,9.4-31.5,9.4
						C-31.5,9.4-31.5,9.4-31.5,9.4 M-31.5,9.4C-31.5,9.4-31.5,9.4-31.5,9.4C-31.5,9.4-31.5,9.4-31.5,9.4 M-31.5,9.4
						C-31.5,9.4-31.5,9.4-31.5,9.4C-31.5,9.4-31.5,9.4-31.5,9.4 M-31.5,9.4C-31.5,9.4-31.5,9.4-31.5,9.4
						C-31.5,9.4-31.5,9.4-31.5,9.4 M-31.5,9.4C-31.5,9.4-31.5,9.4-31.5,9.4C-31.5,9.4-31.5,9.4-31.5,9.4 M-31.5,9.4
						C-31.5,9.4-31.5,9.4-31.5,9.4C-31.5,9.4-31.5,9.4-31.5,9.4 M-31.5,9.4C-31.5,9.4-31.5,9.4-31.5,9.4
						C-31.5,9.4-31.5,9.4-31.5,9.4 M-31.5,9.4C-31.5,9.4-31.5,9.4-31.5,9.4C-31.5,9.4-31.5,9.4-31.5,9.4 M-31.5,9.4
						C-31.5,9.4-31.5,9.4-31.5,9.4C-31.5,9.4-31.5,9.4-31.5,9.4 M-31.5,9.4C-31.5,9.4-31.5,9.4-31.5,9.4
						C-31.5,9.4-31.5,9.4-31.5,9.4 M-31.5,9.4C-31.5,9.4-31.5,9.4-31.5,9.4C-31.5,9.4-31.5,9.4-31.5,9.4 M-31.5,9.4
						C-31.5,9.4-31.5,9.4-31.5,9.4C-31.5,9.4-31.5,9.4-31.5,9.4 M-31.5,9.4C-31.5,9.4-31.5,9.4-31.5,9.4
						C-31.5,9.4-31.5,9.4-31.5,9.4 M-31.4,9.4C-31.4,9.4-31.4,9.4-31.4,9.4C-31.4,9.4-31.4,9.4-31.4,9.4 M-31.4,9.4
						C-31.4,9.4-31.4,9.4-31.4,9.4C-31.4,9.4-31.4,9.4-31.4,9.4 M-31.4,9.4C-31.4,9.4-31.4,9.4-31.4,9.4
						C-31.4,9.4-31.4,9.4-31.4,9.4 M-31.4,9.4C-31.4,9.4-31.4,9.4-31.4,9.4C-31.4,9.4-31.4,9.4-31.4,9.4 M-31.4,9.4
						C-31.4,9.4-31.4,9.4-31.4,9.4C-31.4,9.4-31.4,9.4-31.4,9.4 M-31.4,9.4C-31.4,9.4-31.4,9.4-31.4,9.4
						C-31.4,9.4-31.4,9.4-31.4,9.4 M-31.4,9.4C-31.4,9.4-31.4,9.4-31.4,9.4C-31.4,9.4-31.4,9.4-31.4,9.4 M-31.4,9.4
						C-31.4,9.4-31.4,9.4-31.4,9.4C-31.4,9.4-31.4,9.4-31.4,9.4 M-31.4,9.4C-31.4,9.4-31.4,9.4-31.4,9.4
						C-31.4,9.4-31.4,9.4-31.4,9.4 M-31.4,9.4C-31.4,9.4-31.4,9.4-31.4,9.4C-31.4,9.4-31.4,9.4-31.4,9.4 M-31.4,9.4
						C-31.4,9.4-31.4,9.4-31.4,9.4C-31.4,9.4-31.4,9.4-31.4,9.4 M-31.4,9.4C-31.4,9.4-31.4,9.4-31.4,9.4
						C-31.4,9.4-31.4,9.4-31.4,9.4 M-31.4,9.4C-31.4,9.4-31.4,9.4-31.4,9.4C-31.4,9.4-31.4,9.4-31.4,9.4 M-31.4,9.4
						C-31.4,9.4-31.4,9.4-31.4,9.4C-31.4,9.4-31.4,9.4-31.4,9.4 M-31.4,9.4C-31.4,9.4-31.4,9.4-31.4,9.4
						C-31.4,9.4-31.4,9.4-31.4,9.4 M-31.4,9.4C-31.4,9.4-31.4,9.4-31.4,9.4C-31.4,9.4-31.4,9.4-31.4,9.4 M-31.4,9.4
						C-31.4,9.4-31.4,9.4-31.4,9.4C-31.4,9.4-31.4,9.4-31.4,9.4 M-31.4,9.4C-31.4,9.4-31.4,9.4-31.4,9.4
						C-31.4,9.4-31.4,9.4-31.4,9.4 M-31.4,9.4C-31.4,9.4-31.4,9.4-31.4,9.4C-31.4,9.4-31.4,9.4-31.4,9.4 M-31.4,9.4
						C-31.4,9.4-31.4,9.4-31.4,9.4C-31.4,9.4-31.4,9.4-31.4,9.4 M-10.3-8.4c0,0.2,0,0.6-0.2,1.1L-15.8-5c-0.6,0.4-0.3,1.2-0.8,1.7
						c-0.8,0.7-1.9,0.7-2.6,1.4c-1,1-2.6,1.1-3.6,2.1c-0.7-0.1-1.7-0.8-1.7-0.8c0-0.2-0.1-0.5-0.2-0.7C-25-1.2-25.3-1-25.6-0.9
						c-0.2-0.1-0.3-0.3-0.5-0.4c-0.1,0-0.2,0.1-0.3,0.1c-0.4,0.9,0.1,1.9-0.2,2.8c-1.1,0.1-1.1,0.1-1.2,0.2c0.2,0.9,0.5,2.3,0.5,2.3
						c-0.1,0.1-0.1,0.2-0.2,0.2c-0.2,0-0.5,0-0.7-0.1c-0.2-0.7-0.2-0.7-0.4-1.2c-1.8-0.4-0.7,3.7-0.5,4.1c0.1,0.3,0.4,0.5,0.5,0.8
						c0.3,0,0.3,0,1-0.2c0.1,0.1,0.2,0.4,0.3,0.5c0.4,0,0.9-0.2,1.3-0.1c0.1-0.1,0.2-0.2,0.2-0.3c-0.2-1.5-0.3-1.6,0.2-2
						c0.4,0.9,0.1,1.9,0.4,2.9c0.4,0.9,1.4,1.1,1.8,2c0.1,0.2,0.2,0.5,0.3,0.7c0.3,0.8,0.8,1.8,1.4,1.9c0,0,2,1.5,2.1,2l0,0
						c0.1,0.1,0.2,0.1,0.3,0.2c0-0.2-0.1-0.5-0.2-0.7c0.6-0.1,1.8,0.6,2,1.2c-0.2,0-0.4-0.2-0.5-0.3c-0.1,0-0.2,0-0.3,0
						c-0.1,0.1-0.3,0.3-0.5,0.4c0,0.2,0.1,0.4,0.2,0.6c-0.1,0-0.2,0.1-0.3,0.1c0.2,0.1,0.4,0.3,0.6,0.4c0,0.1,0,0.2,0,0.3
						c-0.4,0-0.6,0-1.7-1c0.8,1,1.9,2.3,4.2,1.9c-0.4-0.6-0.9-1.3-1.3-1.9c2,0.1,2.1,0.1,1.9,1c-0.2,0-0.4-0.1-0.6-0.1
						c0,1,0.6,1.8,0.7,2.8c-0.5,0.5-0.5,0.5-0.2,2.9c-0.1,0-0.2,0-0.3,0c-0.4-0.6-0.5-0.6-0.8-0.8c0,0.1-0.1,0.2-0.2,0.3
						c0.1,0.4,0.3,0.8,0.5,1.2c-0.1,0.1-0.2,0.1-0.3,0.2c0,0.1,0,0.2,0,0.3c-0.7,0.5-0.8,0.4-1.3-0.4l-3.5-5.4c-0.1,0-0.2,0-0.3,0.1
						c-0.1,0.5-0.1,0.5,0.7,1.9c-0.2,0-0.4,0-0.6,0.1c0,0.5-0.1,0.7-0.2,1c-0.1,0-0.2,0-0.3,0c0.2,0.3,0.4,0.6,0.6,0.9
						c-0.1,0-0.2,0-0.3,0c0.9,1.7,2.8,2.3,4.2,3.4c0,0.1,0,0.2,0,0.3c1.1,1,2.7,1.3,3.7,2.4c-0.1,0-0.2,0.1-0.3,0.1
						c-0.3-0.3-0.7-0.6-1.8-1.3c0.2,0.3,0.2,0.3,1,1c-0.2-0.1-0.4-0.2-0.6-0.3c0.6,0.5,2.4,1.9,2.4,1.9c-1.2-0.5-2-1.4-3.1-2.1
						c0.2,0.2,0.2,0.2,0.7,0.6c-0.7-0.1-1.1-0.7-1.7-0.9c0,0.1,0,0.2,0,0.3c0.1,0.1,0.2,0.2,0.2,0.2c-0.8-0.4-0.8-0.4-1.3-0.5
						C-17.4,28.6-17,29-17,29c-0.2-0.1-0.4-0.2-0.6-0.3c0.2,0.1,0.4,0.3,0.6,0.4c-0.3-0.1-0.3-0.1-1.3-0.7c0.3,0.2,0.3,0.2,0.8,0.5
						c-1.1-0.6-2.1-1.3-3.2-2.1c-1.2-1-2.8-2.3-4-3.4c0,0-0.1-0.1-0.1-0.1l0,0c-0.4-0.4-9-9.7-7-18.5c0.6,1.1,0,2.3,0.1,3.5
						c0.5-1.6-0.2-3.4,0.5-5c0.4-1.1,1.7-1.3,2.4-2.2l0,0l0,0c0.2-0.4,0.2-0.4,0.8-0.5c0.7-0.9,1.4-1.8,2-2.7
						c0.2,0.1,0.3,0.3,0.4,0.4c0.1,0,0.2,0,0.3,0c0.5-1.9-1-3.7-0.3-5.6c0.3-0.9,0.9-1.6,1.4-2.4c0.7-1.2,2.1-1.8,2.6-3.1
						c1-2.4,0.8-5,1.9-7.3c0.4-0.9,0.7-1.7,1.1-2.6c0,0.2,0,0.5-0.1,0.7c0.9-1.2,1.1-2.7,2.1-3.8c0.8-0.9,1.9-2.1,3.2-2
						c-0.5,0.8-1.5,1.2-2,1.9c0,0.1,0.1,0.2,0.1,0.3c-0.2,0.3-0.3,0.4-1.1,1.9c0.1,0.2,0,0.6,0,0.9c0.1,0,0.2,0.1,0.3,0.1
						c0,0.1-0.1,0.2-0.1,0.3c-0.2,0.1-0.4,0.2-0.5,0.4c0.2,0,0.4,0.1,0.6,0.2c0,0.2-0.1,0.4-0.1,0.6c1.2,0.6,1.2,0.6,1,1.4
						c-0.2,0.1-0.4,0.2-0.5,0.4c0.1,0.1,0.4,0.1,0.6,0.1c0.2,0.1,0.4,0.4,0.5,0.5c0,0,0.9,2.1,0.7,2.8c-0.4,1.4,1.7,1.2,2.2,2.2
						L-10.3-8.4"/>
					<path fill="#FFFFFF" d="M-0.6,33.5c0,0-0.4-0.1-0.6-0.4c0,0,0,0,0.1,0c0-0.2,0-0.2,0-0.2c-0.1-0.2-0.3-0.2-0.5-0.3
						c0-0.1,0-0.1,0.1-0.2c0,0,0.1-0.1,0.1-0.2c0-0.1-0.2-0.2-0.2-0.3c0-0.1,0-0.2,0-0.3c-0.1-0.4-0.7-0.5-0.7-1l-0.3-1.1
						C-2.8,29.2-3,29-3.1,29c0,0-1.2-0.8-1.2-0.8C-4.6,28-5,28.3-5.4,28.1c0,0,0-0.1-0.1-0.1c-0.2-0.5-1.4-1.3-1.4-1.3
						c-0.1-0.1-0.3-0.1-0.4-0.2c-0.9-0.4-1-0.6-1.1-0.9c-0.1-0.3-0.1-0.3-0.5-0.6c-0.6-0.5-1-2.4-1.6-1.6c-0.1,0.1,0,0.3,0,0.4
						c-0.2,0-0.6-0.2-0.6,0.1c0,0,0,0.7,0.3,2.1c0.3,1.4,1.3,2.1,1.4,2.1c0.9,0.5,0.9,0.5,1,0.8c-0.2,0.2-0.4,0.3-0.2,0.5
						c0,0,0.1,0,0.1,0c0.3-0.3,0.3-0.3,0.4-0.2c0.3,0.2,0.3,0.6,0.4,0.9c-0.3,0-0.4-0.3-0.6-0.4c0.1,0.2,0.1,0.3,0.5,0.5
						c0.3,0.2,2.1,1.7,2.1,1.9c-0.3,0.1-0.3,0.1-0.6,0c0.3,0.4,2.5,1.1,5.2,1.2C-0.9,33.5-0.8,33.5-0.6,33.5
						C-0.6,33.5-0.6,33.5-0.6,33.5"/>
				</g>
			</g>
		</g>
	</g>
	<g>
		<g>
			<path fill="#1972F5" d="M-17.5-59.6c1.6,0,3,0.7,4,1.9c1.6,1.9,3.6,4.3,4.7,5.5c2.1,2.3,2.3,3.1,2.3,3.1s-3.1,1.6-5.9-1.1
				c-2.7-2.7-8-6.9-8-6.9l-0.6-0.7l-0.9-1.7L-17.5-59.6z"/>
			<path fill="#1972F5" d="M-23.2-60c0.6,0.2,1.3,0.6,1.8,1c0,0,4.4,7.1,6.2,9.6c1.8,2.6,1.9,3.4,1.9,3.4s-3.3,1.2-5.7-1.9
				c-2.3-3.1-7-7.9-7-7.9l-3.6-0.8C-27.6-57.8-25.4-58.9-23.2-60z"/>
			<path fill="#1972F5" d="M-14.1-64.4c1.6,0.6,3.2,1.3,4.1,2c2.6,1.9,9.9,8.2,9.9,8.2s-0.2,2.2-4.1,0.9c-3.9-1.3-12.1-6.4-12.1-6.4
				l-7.4,0.3C-20.4-61-17-62.6-14.1-64.4z"/>
			<path fill="#1972F5" d="M-1.5-72.7c0,0-0.5,1.3-2.7,1.6c-2.2,0.3-2.2,0.3-2.2,0.3l-0.3-1.5c0,0,1.6-0.2,2.7-0.3
				C-3.4-72.7-1.5-72.7-1.5-72.7z"/>
			<path fill="#1972F5" d="M-0.9-54.2c0,0-1.3,0.5-3.1-0.8c-1.8-1.3-1.6-1.3-1.6-1.3l0.9-1c0,0,1.2,1,2.1,1.7
				C-2-55.2-0.9-54.2-0.9-54.2z"/>
			<path fill="#1972F5" d="M-6.3-49.2c0,0-1.2,0.2-2.5-1.3c-0.8-0.9-1.1-1.4-1.1-1.4l0.9-0.8c0,0,0.9,1,1.6,1.9
				C-6.6-49.9-6.3-49.2-6.3-49.2z"/>
			<path fill="#1972F5" d="M-13.3-45.9c0,0-1.2,0-2.3-1.7c-0.6-1-0.9-1.5-0.9-1.5l1-0.6c0,0,0.8,1.1,1.4,2
				C-13.5-46.7-13.3-45.9-13.3-45.9z"/>
			<path fill="#1972F5" d="M-14.1-38.8c0.7-1.3-0.8-3.1-2.5-3.6c-1.7-0.5-2.5-0.5-2.5-0.5s-0.5,2.2-0.2,3.5
				C-17.9-38.9-14.6-37.9-14.1-38.8z"/>
		</g>
		<g>
			<path fill="#1972F5" d="M-17.5,59.6c1.6,0,3-0.7,4-1.9c1.6-1.9,3.6-4.3,4.7-5.5c2.1-2.3,2.3-3.1,2.3-3.1s-3.1-1.6-5.9,1.1
				c-2.7,2.7-8,6.9-8,6.9l-0.6,0.7l-0.9,1.7L-17.5,59.6z"/>
			<path fill="#1972F5" d="M-23.2,60c0.6-0.2,1.3-0.6,1.8-1c0,0,4.4-7.1,6.2-9.6c1.8-2.6,1.9-3.4,1.9-3.4s-3.3-1.2-5.7,1.9
				c-2.3,3.1-7,7.9-7,7.9l-3.6,0.8C-27.6,57.8-25.4,58.9-23.2,60z"/>
			<path fill="#1972F5" d="M-14.1,64.4c1.6-0.6,3.2-1.3,4.1-2c2.6-1.9,9.9-8.2,9.9-8.2s-0.2-2.2-4.1-0.9c-3.9,1.3-12.1,6.4-12.1,6.4
				l-7.4-0.3C-20.4,61-17,62.6-14.1,64.4z"/>
			<path fill="#1972F5" d="M-6.6-67.2c-5.2,1.1-22.9,9.3-27.1,14c-0.7,0.8-0.8,4.5-0.8,4.5s9.7,1.9,13.6,2.7
				c8.1,1.7,7.8,5.2,7.7,6.5c-0.2,3.1-5.8,0.2-8.7,0.1c-4.5-0.2-9.7,0.4-19.8,6.7c-3.6,2.3-11.7,2.3-15,4.7
				c-0.8,0.5-15,26.5-16.1,28c1.1,1.5,15.3,27.5,16.1,28c3.3,2.3,11.4,2.4,15,4.7c10,6.3,15.3,6.9,19.8,6.7c2.8-0.2,8.5-3,8.7,0.1
				c0.1,1.3,0.4,4.8-7.7,6.5c-3.9,0.8-13.6,2.7-13.6,2.7s0.1,3.7,0.8,4.5c4.2,4.7,21.8,12.8,27.1,14c5.3,1.1,5.1,5.5,5.1,5.5
				s-10.8-0.5-17.9-2.9c-8.5-2.8-13-4.9-18-6.5c-2.7-0.9-6.3-2.7-8.8-4.7c-6.4-5.1-14.6-11.6-19.1-15.6c-3-2.7-26.7-38-29.3-43
				c2.6-5,26.2-40.4,29.3-43c4.6-4,12.8-10.5,19.1-15.6c2.5-2,6-3.8,8.8-4.7c5-1.7,9.5-3.7,18-6.5c7-2.3,17.9-2.9,17.9-2.9
				S-1.3-68.3-6.6-67.2z"/>
			<path fill="#1972F5" d="M-1.5,72.7c0,0-0.5-1.3-2.7-1.6c-2.2-0.3-2.2-0.3-2.2-0.3l-0.3,1.5c0,0,1.6,0.2,2.7,0.3
				C-3.4,72.7-1.5,72.7-1.5,72.7z"/>
			<path fill="#1972F5" d="M-0.9,54.2c0,0-1.3-0.5-3.1,0.8c-1.8,1.3-1.6,1.3-1.6,1.3l0.9,1c0,0,1.2-1,2.1-1.7
				C-2,55.2-0.9,54.2-0.9,54.2z"/>
			<path fill="#1972F5" d="M-6.3,49.2c0,0-1.2-0.2-2.5,1.3c-0.8,0.9-1.1,1.4-1.1,1.4l0.9,0.8c0,0,0.9-1,1.6-1.9
				C-6.6,49.9-6.3,49.2-6.3,49.2z"/>
			<path fill="#1972F5" d="M-13.3,45.9c0,0-1.2,0-2.3,1.7c-0.6,1-0.9,1.5-0.9,1.5l1,0.6c0,0,0.8-1.1,1.4-2
				C-13.5,46.7-13.3,45.9-13.3,45.9z"/>
			<path fill="#1972F5" d="M-14.1,38.8c0.7,1.3-0.8,3.1-2.5,3.6c-1.7,0.5-2.5,0.5-2.5,0.5s-0.5-2.2-0.2-3.5
				C-17.9,38.9-14.6,37.9-14.1,38.8z"/>
		</g>
		<g>
			<path fill="#1972F5" d="M17.5-59.6c-1.6,0-3,0.7-4,1.9c-1.6,1.9-3.6,4.3-4.7,5.5c-2.1,2.3-2.3,3.1-2.3,3.1s3.1,1.6,5.9-1.1
				c2.7-2.7,8-6.9,8-6.9l0.6-0.7l0.9-1.7L17.5-59.6z"/>
			<path fill="#1972F5" d="M23.2-60c-0.6,0.2-1.3,0.6-1.8,1c0,0-4.4,7.1-6.2,9.6c-1.8,2.6-1.9,3.4-1.9,3.4s3.3,1.2,5.7-1.9
				c2.3-3.1,7-7.9,7-7.9l3.6-0.8C27.6-57.8,25.4-58.9,23.2-60z"/>
			<path fill="#1972F5" d="M14.1-64.4c-1.6,0.6-3.2,1.3-4.1,2C7.3-60.5,0-54.2,0-54.2s0.2,2.2,4.1,0.9c3.9-1.3,12.1-6.4,12.1-6.4
				l7.4,0.3C20.4-61,17-62.6,14.1-64.4z"/>
			<path fill="#1972F5" d="M1.5-72.7c0,0,0.5,1.3,2.7,1.6c2.2,0.3,2.2,0.3,2.2,0.3l0.3-1.5c0,0-1.6-0.2-2.7-0.3
				C3.4-72.7,1.5-72.7,1.5-72.7z"/>
			<path fill="#1972F5" d="M0.9-54.2c0,0,1.3,0.5,3.1-0.8c1.8-1.3,1.6-1.3,1.6-1.3l-0.9-1c0,0-1.2,1-2.1,1.7
				C2-55.2,0.9-54.2,0.9-54.2z"/>
			<path fill="#1972F5" d="M6.3-49.2c0,0,1.2,0.2,2.5-1.3c0.8-0.9,1.1-1.4,1.1-1.4l-0.9-0.8c0,0-0.9,1-1.6,1.9
				C6.6-49.9,6.3-49.2,6.3-49.2z"/>
			<path fill="#1972F5" d="M13.3-45.9c0,0,1.2,0,2.3-1.7c0.6-1,0.9-1.5,0.9-1.5l-1-0.6c0,0-0.8,1.1-1.4,2
				C13.5-46.7,13.3-45.9,13.3-45.9z"/>
			<path fill="#1972F5" d="M14.1-38.8c-0.7-1.3,0.8-3.1,2.5-3.6c1.7-0.5,2.5-0.5,2.5-0.5s0.5,2.2,0.2,3.5
				C17.9-38.9,14.6-37.9,14.1-38.8z"/>
		</g>
		<g>
			<path fill="#1972F5" d="M17.5,59.6c-1.6,0-3-0.7-4-1.9c-1.6-1.9-3.6-4.3-4.7-5.5c-2.1-2.3-2.3-3.1-2.3-3.1s3.1-1.6,5.9,1.1
				c2.7,2.7,8,6.9,8,6.9l0.6,0.7l0.9,1.7L17.5,59.6z"/>
			<path fill="#1972F5" d="M23.2,60c-0.6-0.2-1.3-0.6-1.8-1c0,0-4.4-7.1-6.2-9.6c-1.8-2.6-1.9-3.4-1.9-3.4s3.3-1.2,5.7,1.9
				c2.3,3.1,7,7.9,7,7.9l3.6,0.8C27.6,57.8,25.4,58.9,23.2,60z"/>
			<path fill="#1972F5" d="M14.1,64.4c-1.6-0.6-3.2-1.3-4.1-2C7.3,60.5,0,54.2,0,54.2s0.2-2.2,4.1-0.9c3.9,1.3,12.1,6.4,12.1,6.4
				l7.4-0.3C20.4,61,17,62.6,14.1,64.4z"/>
			<path fill="#1972F5" d="M65.3,43c-4.6,4-12.8,10.5-19.1,15.6c-2.5,2-6,3.8-8.8,4.7c-5,1.7-9.5,3.7-18,6.5
				c-7,2.3-17.9,2.9-17.9,2.9s-0.2-4.4,5.1-5.5c5.2-1.1,22.9-9.3,27.1-14c0.7-0.8,0.8-4.5,0.8-4.5s-9.7-1.9-13.6-2.7
				c-8.1-1.7-7.8-5.2-7.7-6.5c0.2-3.1,5.8-0.2,8.7-0.1c4.5,0.2,9.7-0.4,19.8-6.7c3.6-2.3,11.7-2.3,15-4.7c0.8-0.5,15-26.5,16.1-28
				c-1.1-1.5-15.3-27.5-16.1-28c-3.3-2.3-11.4-2.4-15-4.7c-10-6.3-15.3-6.9-19.8-6.7c-2.8,0.2-8.5,3-8.7-0.1
				c-0.1-1.3-0.4-4.8,7.7-6.5c3.9-0.8,13.6-2.7,13.6-2.7s-0.1-3.7-0.8-4.5c-4.2-4.7-21.8-12.8-27.1-14c-5.3-1.1-5.1-5.5-5.1-5.5
				s10.8,0.5,17.9,2.9c8.5,2.8,13,4.9,18,6.5c2.7,0.9,6.3,2.7,8.8,4.7c6.4,5.1,14.6,11.6,19.1,15.6c3,2.7,26.7,38,29.3,43
				C92,5,68.4,40.4,65.3,43z"/>
			<path fill="#1972F5" d="M1.5,72.7c0,0,0.5-1.3,2.7-1.6c2.2-0.3,2.2-0.3,2.2-0.3l0.3,1.5c0,0-1.6,0.2-2.7,0.3
				C3.4,72.7,1.5,72.7,1.5,72.7z"/>
			<path fill="#1972F5" d="M0.9,54.2c0,0,1.3-0.5,3.1,0.8c1.8,1.3,1.6,1.3,1.6,1.3l-0.9,1c0,0-1.2-1-2.1-1.7
				C2,55.2,0.9,54.2,0.9,54.2z"/>
			<path fill="#1972F5" d="M6.3,49.2c0,0,1.2-0.2,2.5,1.3c0.8,0.9,1.1,1.4,1.1,1.4l-0.9,0.8c0,0-0.9-1-1.6-1.9
				C6.6,49.9,6.3,49.2,6.3,49.2z"/>
			<path fill="#1972F5" d="M13.3,45.9c0,0,1.2,0,2.3,1.7c0.6,1,0.9,1.5,0.9,1.5l-1,0.6c0,0-0.8-1.1-1.4-2
				C13.5,46.7,13.3,45.9,13.3,45.9z"/>
			<path fill="#1972F5" d="M14.1,38.8c-0.7,1.3,0.8,3.1,2.5,3.6c1.7,0.5,2.5,0.5,2.5,0.5s0.5-2.2,0.2-3.5
				C17.9,38.9,14.6,37.9,14.1,38.8z"/>
		</g>
	</g>
</symbol>
<g id="Layer_1" display="none">
	<g display="inline">
		<g>
			<g>
				<circle fill="#1972F5" cx="458.2" cy="219.9" r="34"/>
				<g>
					<path fill="#FFFFFF" d="M478.8,218.9c-0.5-0.8-0.9-1.1-1.2-1.3c0-0.9-0.5-1.3-0.8-1.5c0-0.3,0.1-0.7-0.2-1.3
						c0-0.1-1.3-2.5-1.3-2.5c0.3-0.8,1.2,1,1.2,1.1c0.1,0.1,0.1,0.3,0.1,0.4c0.2,0.1,0.3,0.3,0.5,0.5c0.2,0.3,0.1,0.7,0.3,1
						c0,0,0,0,0,0c0.3,0.2,0.6,0.7,0.9,1.3c0.1,0.3,0.1,0.3,0.6,2.5C478.8,219,478.8,219,478.8,218.9 M475.3,212.3
						c-0.5-0.8-0.9-1.3-1.2-1.6C474.4,211,474.8,211.5,475.3,212.3C475.3,212.4,475.3,212.3,475.3,212.3 M471.8,207.7
						C471.8,207.7,471.8,207.7,471.8,207.7C471.8,207.7,471.8,207.7,471.8,207.7C471.8,207.7,471.8,207.7,471.8,207.7 M489.8,207.2
						c-3.5-8.7-10.4-15.6-19.1-19l0,0c-0.1,0-0.2-0.1-0.3-0.1c0.1,0,0.2,0.1,0.3,0.1c-3.7-1.3-3.7-1.3-4.8-1.5
						c0.1,0,0.2,0.1,0.3,0.1c-1.2-0.3-1.7-0.4-2.1-0.4c1.4,0.3,1.4,0.3,2.8,0.7c-0.1,0-0.2-0.1-0.3-0.1c0.8,0.3,0.8,0.3,4.2,1.9
						c0.2,0.1,0.4,0.2,0.6,0.2c-0.3-0.1-0.6-0.2-0.9-0.3c0.4,0.2,0.8,0.5,1.3,0.7c-0.7-0.1-1.2-0.6-1.9-0.9l5,2.9
						c-0.4-0.2-0.4-0.2-1.1-0.7c0.4,0.5,1,0.9,1.3,1.5c-0.1,0-0.2,0-0.3,0c-0.5-0.7-0.8-1.2-3.7-2.9c-0.6-0.2-1-0.6-1.6-0.9
						c0.9,1.1,2.2,1.5,3.2,2.3c-0.5-0.1-1.6-0.6-2.4-0.9c0.5,0.3,1,0.6,1.5,1c-0.2,0-0.4-0.1-0.6,0c0,0.1,0.1,0.2,0.1,0.3
						c-0.2-0.1-0.4-0.2-0.5-0.3c-0.4,0.3-0.4,0.5-0.1,1.1c-0.5-0.2-0.8-0.7-1.3-0.9c0.3,0.5,0.9,0.9,1.2,1.4c-0.1,0-0.2-0.1-0.3-0.1
						c-0.1,0-0.2,0.1-0.3,0.2c0.1,0.3,0.1,0.3,0.5,0.8c-0.3,0-0.3,0-0.8-0.3c0,0.1,0,0.2,0,0.3c0.1,0.1,0.3,0.2,0.4,0.4
						c-0.1,0-0.1,0-2.2-1.8c1.5,0.4,1.5,0.4,1.7,0.3c-0.2-1.4-4.5-2.5-4.9-2.1l-1.8,4.5c-0.1,0.9,0.1,2.3,0.7,2.4c0.2,0,0.2,0,1-0.6
						c0.7,0.5,0.6,1.5,1.4,2.1c0.1,0,0.2,0,0.3-0.1c0.1-0.4,0.2-0.4,0.6-0.5c-0.1-0.4-0.2-0.9-0.3-1.3c0.1,0,0.2-0.1,0.3-0.2
						c0.1-1-0.8-1.9-0.2-2.9c-0.2-0.5-0.2-0.5-0.2-0.9c0.2-0.1,0.2-0.1,0.2-0.1h0h0h0h0h0h0h0c0.5,0.1,1.2,0.7,0.3,1.6
						c0.6,1.4,0.9,2.1,1.8,1.7c0.4-0.2,0.5-0.2,0.9,0.1c0,0,0,0-1.3,0.3c0,0.1-0.1,0.2-0.1,0.3c0.7,1.2,0.7,1.2,0.7,1.2
						c-0.1,0-0.1,0-0.1,0c0,0,0,0,0,0h0h0h0h0h0h0c-0.1-0.2-0.3-0.3-0.5-0.4c-0.1,0-0.2,0.1-0.2,0.1c0,0.4,0.2,0.8,0.3,1.1
						c-0.1,0.1-0.2,0.4-0.2,0.5c-0.6-0.3-0.6-0.3-0.7-0.3c-0.6,0.9-2.1,0.5-2.3,0c-0.1-0.4-0.1-0.9-0.2-1.3c-0.1,0-0.2,0-0.3,0
						c-0.1,0.1-0.3,0.4-0.4,0.6c0.5,1.1,0.5,1.1,0.5,1.3c-0.7,0.1-0.7,0.1-2.2,2c-0.6,0.7-1.4,0.6-2.1,0.9c0,0.1,0,0.2,0,0.3
						c1.6,0.9,1.8,1,1.4,2.2c-0.9,0.3-1.8-0.2-2.6,0.2c-0.1,0.5-0.1,1.2,0,1.7c-0.1,0.1-0.3,0.4-0.3,0.6c0.1,0,0.2,0.1,0.4,0.1
						c0,0.2,0,0.4,0,0.6c0.5,0,0.8,0.8,1.4,0.5c0.5-0.3,1.2-0.1,1.7-0.6c0.7-0.6,0.8-1.5,1.4-2.1c0-0.2,0-0.5,0-0.7
						c2.1-0.5,2.1-0.5,2.2-0.5l2.5,2.6c-0.2,0.3-0.2,0.4-1.2,0.5c0.3,0.2,0.8,0.5,1.2,0.7c0-0.2,0-0.4,0-0.6
						c0.3-0.2,0.3-0.2,0.6-0.7c-0.1-0.1-0.2-0.4-0.3-0.5c0.2,0,0.4,0.1,0.6,0.2c-0.2-0.5-0.2-0.5-0.8-0.7c0-0.1-0.1-0.2-0.1-0.3
						c-0.1,0-0.2,0.1-0.3,0.1c-0.3-0.2-0.6-0.4-1.2-1.4c0-0.1,0.1-0.2,0.1-0.3c0.2,0,0.4-0.1,0.5-0.1c0.4,0.6,0.6,1,1.8,1.6
						c0.1,0.5,1.1,2.5,1.8,2.6c0-0.1,0.1-0.2,0.1-0.3c0.1,0,0.1,0,0.7-0.1c-0.3-0.1-0.6-0.4-1-1c0.3-0.1,0.5-0.3,0.7-0.4
						c0.9,0.5,0.7,1.9,1.9,2.2c0.1-0.1,0.3-0.3,0.4-0.5c0.4,0.4,0.6,0.6,1.4,0.1c0.8,0.5,0.3,2.5-0.4,2.6c-0.4,0.1-0.6,0-0.9-0.1
						c-0.1,0-0.1,0-0.1,0h0c0,0,0,0,0,0h0h0h0c0,0,0,0,0,0h0c-1.1-0.1-2.1-0.7-3.3-0.7c-0.3,0.3-0.1,0.7-0.3,1
						c-1,0.1-3.7-1.4-3.7-1.4c0.1-1.9,0.1-1.9-2.8-1.4c-3.2,0.5-3.2,0.5-3.2,0.5c-0.3,0.2-0.5,0.5-0.7,0.7c-0.1,0.1-0.1,0.1-0.1,0.1
						h0h0h0h0h0h0h0c0,0-4.1,5.4-4.2,5.7c0.5,0.5,0.8,1,0.4,2.1c-0.3,0.8-1.1,2.3,2.8,4.9c0.3,0.2,0.8,0.6,1.2,0.6
						c1.2,0.1,2.3-0.5,3.5-0.8c1.2-0.2,2.1,0.9,3.3,0.6c0.1,0.1,0.2,0.2,0.2,0.3c0.2,0.8-0.5,1.6-0.3,2.4c0.2,1,1.2,1.6,1.4,2.6
						c0.2,1.3,0.1,1.4-0.1,1.8c-1.5,2.6,0.8,8.8,0.8,8.8c2.3,0.1,2.9-0.5,3.4-1c0.4-0.4,0.9-1,1.2-1.3c0.5-0.6,1-1.2,1.5-1.8
						c0.4-0.6-0.1-1.3,0.3-1.9c0.6-0.8,1.7-1,2.2-1.8c1-1.6-0.4-3.4,0.6-5c0.9-1.4,2.3-2.3,3.2-3.8c0.4-0.8,0.6-1.7,0.4-2.5
						c-0.8,0.6-1.3,0.7-2.1,0.7c-0.1-0.2-0.2-0.4-0.3-0.6c5.5-4.1,6.1-4.6,3.5-5.5c-0.1-0.2-0.2-0.6-0.3-0.8c-0.1,0.5-0.1,0.8-1.1,1
						c-0.4-0.8-1.2-1.4-1.2-2.4c0.1-0.1,0.2-0.1,0.3-0.2c0.2,0,0.2,0,0.2,0c0,0,0,0,0,0c0,0,0,0,0,0c0,0,0,0,0,0c0,0,0,0,0,0h0h0h0
						c0.8,1.6,1.3,1.9,1.8,1.3c1.1,0.9,2.7,0.7,3.5,1.9c0.1,0,0.2-0.1,0.2-0.2c0,0.1,0,0.2,0,0.3c-0.1,0.1-0.2,0.1-0.2,0.2
						c0.1,0.2,0.3,0.4,0.4,0.5c0.1,0,0.2-0.1,0.3-0.1c0-0.1,0-0.2,0.1-0.3c0.2,1.2,0.2,1.2,1.3,5.9c0.1,0,0.2-0.1,0.3-0.1l1.3-5.5
						c0.1,0,0.2,0,0.3,0c0.1-0.1,0.1-0.2,0.2-0.2c0.6,1,0.6,1,0.8,2.6c0.1-0.1,0.2-0.3,0.3-0.4c0.7,2.2,0.1,4.4,0.5,6.6
						c0.6-1.6-0.2-3.3-0.1-4.9c0.4,0.8,0.4,1.9,0.4,1.9c0.6-1.7,0-6.8,0-6.8c-0.4-2.4-1-4.5-1.8-6.4l0,0
						C489.9,207.4,489.8,207.2,489.8,207.2"/>
					<path fill="#FFFFFF" d="M462.6,199.9c-0.1,0.4-0.1,0.6-0.1,0.7c0,0.1,0.1,0.1,0.2,0.2c0.1,0.1,0,0.1-0.2,0.2
						c-1.3,0.1-1.7,0.2-2.3,0.5c0.5-0.7,0.6-0.7,0.7-0.7c-0.1-0.2-0.4-0.2-0.4-0.5c0,0,0,0,0.3-0.1c0.1,0,0.1-0.1,0.1-0.2
						c0-0.1-0.1-0.3,0-0.4c0.1-0.1,0.3,0,0.3-0.2c0-0.1-0.1-0.4-0.1-0.4c0-0.1-0.1-0.2-0.6-0.2c-0.1-0.1-0.1-0.1-0.1-0.2
						c-0.1-0.2,0-0.4,0-0.6c0-0.1,0-0.1-0.2-0.1c-0.2,0-0.2-0.1-0.2-0.3c0.1-0.8,0.2-0.9,0.7-1c0.1,0.2,0.1,0.4-0.1,0.6
						c-0.1,0.1-0.1,0.1,0,0.2c0.2,0,0.4-0.2,0.7-0.1c0,0.1,0,0.2-0.1,0.5c-0.1,0.3-0.2,0.6,0.2,0.5c0,0,0,0,0,0
						c0.1,0.2,0.1,0.4,0.2,0.5c0.2,0.2,0.4,0.3,0.5,0.6c0.1,0.2,0.1,0.4,0.2,0.5C462.2,199.9,462.4,199.9,462.6,199.9
						C462.6,199.9,462.6,199.9,462.6,199.9"/>
					<path fill="#FFFFFF" d="M459.9,199.1c0,0.1-0.1,0.2-0.2,0.3c0.1,0.4,0,0.7,0,0.8c0,0-0.1,0.1-0.1,0.1c-0.1,0.1-0.3,0.1-0.4,0.2
						c-0.1,0.1-0.1,0.2-0.2,0.3c0,0-0.1,0-0.1,0c-0.3-0.2-0.2-0.3-0.1-0.4c0.3-0.4,0.3-0.7,0.3-0.7c0,0-0.1,0-0.1,0
						c-0.1,0.1-0.3,0.1-0.4-0.1c0,0,0-0.1,0-0.1c0-0.1,0-0.2,0.3-0.2c0.4-0.1,0.4-0.1,0.4-0.1c0-0.2-0.1-0.3-0.1-0.5
						c0-0.2,0.2-0.2,0.3-0.2C459.7,198.6,460,198.9,459.9,199.1"/>
					<path fill="#FFFFFF" d="M457.3,193c0,0.2-0.1,0.4-0.2,0.4c0,0-0.1,0-0.2,0.1c-0.2,0.1-0.3,0.3-0.4,0.4
						c-0.1,0.1-0.2,0.1-0.3,0.2c-0.1,0-0.2,0-0.3,0c-0.2,0-0.4-0.2-0.7-0.2c-0.2,0-0.2,0-0.3,0c0,0,0,0,0,0c0,0,0,0,0.1-0.1
						c0.2-0.1,0.2-0.2,0.2-0.2c0-0.1-0.1-0.2-0.4-0.3c0.4,0,0.4-0.3,0.4-0.3c0-0.1-0.2,0-0.3,0c-0.1,0-0.2,0-0.2,0
						c0-0.1,0.1-0.3,0.3-0.3c0,0,0.1,0,0.2,0c-0.1-0.1-0.2-0.4,0.1-0.4c0.1,0.1,0.2,0.2,0.1,0.4c0,0.1,0.1,0.2,0.1,0.2
						c0,0,0.1,0,0.1,0c0.1,0,0.2-0.1,0.3-0.2c0.1-0.1,0.3-0.1,0.4-0.1C456.4,192.4,457.5,192.1,457.3,193"/>
					<path fill="#FFFFFF" d="M488.6,221.3c0,0.6-0.2,0.5-0.3,0.4c-0.2-0.2-0.1-1.2,0.1-1.4C488.7,220.7,488.6,221.1,488.6,221.3"/>
					<path fill="#FFFFFF" d="M491.1,226.3c-0.1,0.3-0.1,0.3-0.1,0.3c-0.2,0-0.2-0.8-0.1-2.4c0-0.3,0-1.1-0.3-2.3
						c0.2,0.1,0.5,1,0.6,1.8l0.1,1.8C491.3,225.5,491.2,226,491.1,226.3"/>
					<path fill="#FFFFFF" d="M491.3,227.7c0,0.1-0.1,0.1-0.1,0.1c0,0,0,0,0,0c0-0.1,0-0.2,0-0.2c0,0,0,0-0.1-0.1
						c0,0-0.1-0.1-0.1-0.3c0-0.4,0.1-0.5,0.1-0.6c0,0,0,0,0,0c0,0,0,0.1,0,0.1c0,0.1,0,0.3,0,0.3c0,0,0,0,0,0c0,0,0,0,0.1,0
						C491.3,227.2,491.3,227.7,491.3,227.7"/>
					<path fill="#FFFFFF" d="M492.1,222.6c0,0.1,0,0.3-0.1,1.1c0,0.1,0,0.3,0,0.4c0,0,0,0,0,0c-0.1,1.1-0.3,2-0.3,2
						c-0.1-0.2,0-0.3,0-0.5c0,0,0,0,0,0c0,0,0,0,0,0.1c0.1-0.6,0.1-0.9,0.1-1c0-0.4,0.1-0.9,0.1-1c0,0,0,0,0,0c0,0,0,0.1,0,0.1
						c0,0,0,0,0.1-0.5c0-0.2,0.1-0.4,0.1-0.7c0-0.3,0-0.6,0.1-0.8c0,0.1,0,0.1,0,0.4C492.2,222.2,492.1,222.4,492.1,222.6"/>
					<path fill="#FFFFFF" d="M491.3,228c0,0.1,0,0.1,0,0.1c0,0,0.1-0.3,0.1-0.4c0,0,0,0,0,0c0,0,0,0,0,0
						C491.3,227.8,491.3,227.9,491.3,228"/>
					<path fill="#FFFFFF" d="M486.7,238.5C486.7,238.5,486.7,238.5,486.7,238.5C486.7,238.5,486.7,238.5,486.7,238.5
						c0.3-0.5,0.6-1,0.9-1.5c0.4-0.7,0.7-1.4,1-2c0.2-0.3,1.2-2.5,1.2-2.5C489,234.6,487.9,236.6,486.7,238.5"/>
					<path fill="#FFFFFF" d="M491.8,215.7c0,0,0.1,1.1,0,1C491.7,216.5,491.7,216,491.8,215.7C491.8,215.8,491.8,215.8,491.8,215.7
						C491.8,215.7,491.8,215.7,491.8,215.7C491.8,215.6,491.8,215.6,491.8,215.7"/>
					<path fill="#FFFFFF" d="M479.9,230.3c-0.2,0.8-1.4,3.3-1.6,3.7c-0.5,0.8-0.9,0.8-1,0.7c-0.1-0.1-0.2-0.5,0-1.5
						c0.1-0.4,0.5-0.6,0.6-1c0.1-0.4,0-0.8,0.2-1.2c0.1-0.2,0.3-0.2,0.5-0.2c0.4-0.1,0.6-0.2,0.9-0.6c0.2-0.3,0.2-0.6,0.5-0.8
						c0,0,0.1,0,0.1,0C480.1,229.4,480,230.1,479.9,230.3"/>
					<path fill="#FFFFFF" d="M464.8,186.8c0.9,0.3,2.6,1.4,3.1,1.8c0.3,0.2,1.2,0.9,2.1,1.2c-0.4,0-0.4,0-0.4,0c0,0-0.1,0-0.1,0
						c-0.2-0.1-0.4-0.3-0.6-0.4c-0.1-0.1-0.3-0.1-0.5-0.2c-0.1,0-0.3-0.2-0.4-0.2c0,0,0,0,0,0c-0.1-0.2-0.2-0.2-0.2-0.2
						c0,0-0.1,0-0.1-0.1c-0.2-0.1-0.3-0.3-0.5-0.4c-0.2-0.1-0.3-0.1-0.5-0.3c0,0,0,0,0-0.1c0,0,0,0-0.2-0.1c-0.5-0.3-1-0.5-1.5-0.8
						c0,0,0,0,0,0c-0.1-0.1-0.2-0.1-0.3-0.2c0,0,0.1,0,0.1,0c0,0,0,0-0.8-0.3c0,0,0,0,0,0C464.1,186.6,464.3,186.6,464.8,186.8"/>
					<path fill="#FFFFFF" d="M492.2,220.6c0,0.2,0,0.3,0,0.3C492.2,220.9,492.2,220.8,492.2,220.6c0-0.1,0-0.2,0-0.3
						C492.2,220.3,492.2,220.4,492.2,220.6"/>
					<path fill="#FFFFFF" d="M431.1,216.2L431.1,216.2C431.1,216.3,431.1,216.3,431.1,216.2 M431.1,216.2
						C431.1,216.2,431.1,216.2,431.1,216.2C431.1,216.2,431.1,216.2,431.1,216.2 M431.1,216.2C431.1,216.2,431.1,216.2,431.1,216.2
						C431.1,216.2,431.1,216.2,431.1,216.2 M431.1,216.2C431.1,216.2,431.1,216.2,431.1,216.2C431.1,216.2,431.1,216.2,431.1,216.2
						 M431.1,216.2C431.1,216.2,431.1,216.2,431.1,216.2C431.1,216.2,431.1,216.2,431.1,216.2 M431.1,216.2
						C431.1,216.2,431.1,216.2,431.1,216.2C431.1,216.2,431.1,216.2,431.1,216.2 M431.1,216.2C431.1,216.2,431.1,216.2,431.1,216.2
						C431.1,216.2,431.1,216.2,431.1,216.2 M431.1,216.2C431.1,216.2,431.1,216.2,431.1,216.2C431.1,216.2,431.1,216.2,431.1,216.2
						 M431.1,216.2C431.1,216.2,431.1,216.2,431.1,216.2C431.1,216.2,431.1,216.2,431.1,216.2 M431.1,216.2
						C431.1,216.2,431.1,216.2,431.1,216.2C431.1,216.2,431.1,216.2,431.1,216.2 M431.1,216.2C431.1,216.2,431.1,216.2,431.1,216.2
						C431.1,216.2,431.1,216.2,431.1,216.2 M431.1,216.2C431.1,216.2,431.1,216.2,431.1,216.2C431.1,216.2,431.1,216.2,431.1,216.2
						 M431.1,216.2C431.1,216.2,431.1,216.2,431.1,216.2C431.1,216.2,431.1,216.2,431.1,216.2 M431.1,216.2
						C431.1,216.2,431.1,216.2,431.1,216.2C431.1,216.2,431.1,216.2,431.1,216.2 M431.1,216.2C431.1,216.2,431.1,216.2,431.1,216.2
						C431.1,216.2,431.1,216.2,431.1,216.2 M431.2,216.2C431.2,216.2,431.1,216.2,431.2,216.2C431.1,216.2,431.2,216.2,431.2,216.2
						 M431.2,216.2C431.2,216.2,431.2,216.2,431.2,216.2C431.2,216.2,431.2,216.2,431.2,216.2 M431.2,216.2
						C431.2,216.2,431.2,216.2,431.2,216.2C431.2,216.2,431.2,216.2,431.2,216.2 M431.2,216.2C431.2,216.2,431.2,216.2,431.2,216.2
						C431.2,216.2,431.2,216.2,431.2,216.2 M431.2,216.2C431.2,216.2,431.2,216.2,431.2,216.2C431.2,216.2,431.2,216.2,431.2,216.2
						 M431.2,216.1C431.2,216.1,431.2,216.2,431.2,216.1C431.2,216.2,431.2,216.1,431.2,216.1 M431.2,216.1
						C431.2,216.1,431.2,216.1,431.2,216.1C431.2,216.1,431.2,216.1,431.2,216.1 M431.2,216.1C431.2,216.1,431.2,216.1,431.2,216.1
						C431.2,216.1,431.2,216.1,431.2,216.1 M431.2,216.1C431.2,216.1,431.2,216.1,431.2,216.1C431.2,216.1,431.2,216.1,431.2,216.1
						 M431.2,216.1C431.2,216.1,431.2,216.1,431.2,216.1C431.2,216.1,431.2,216.1,431.2,216.1 M431.2,216.1
						C431.2,216.1,431.2,216.1,431.2,216.1C431.2,216.1,431.2,216.1,431.2,216.1 M431.2,216.1C431.2,216.1,431.2,216.1,431.2,216.1
						C431.2,216.1,431.2,216.1,431.2,216.1 M431.2,216.1C431.2,216.1,431.2,216.1,431.2,216.1C431.2,216.1,431.2,216.1,431.2,216.1
						 M431.2,216.1C431.2,216.1,431.2,216.1,431.2,216.1C431.2,216.1,431.2,216.1,431.2,216.1 M431.2,216.1
						C431.2,216.1,431.2,216.1,431.2,216.1C431.2,216.1,431.2,216.1,431.2,216.1 M431.2,216.1C431.2,216.1,431.2,216.1,431.2,216.1
						C431.2,216.1,431.2,216.1,431.2,216.1 M431.2,216.1C431.2,216.1,431.2,216.1,431.2,216.1C431.2,216.1,431.2,216.1,431.2,216.1
						 M427.2,210L427.2,210C427.2,210,427.2,210,427.2,210 M427.2,210C427.2,210,427.2,210,427.2,210C427.2,210,427.2,210,427.2,210
						 M427.2,210C427.2,210,427.2,210,427.2,210C427.2,210,427.2,210,427.2,210 M427.2,210C427.2,210,427.2,210,427.2,210
						C427.2,210,427.2,210,427.2,210 M427.2,210C427.2,210,427.2,210,427.2,210C427.2,210,427.2,210,427.2,210 M427.2,210
						C427.2,210,427.2,210,427.2,210C427.2,210,427.2,210,427.2,210 M427.2,210C427.2,210,427.2,210,427.2,210
						C427.2,210,427.2,210,427.2,210 M427.2,210C427.2,210,427.2,210,427.2,210C427.2,210,427.2,210,427.2,210 M427.2,210
						C427.2,210,427.2,210,427.2,210C427.2,210,427.2,210,427.2,210 M427.2,210C427.2,210,427.2,210,427.2,210
						C427.2,210,427.2,210,427.2,210 M427.2,210C427.2,210,427.2,210,427.2,210C427.2,210,427.2,210,427.2,210 M427.2,210
						C427.2,210,427.2,210,427.2,210C427.2,210,427.2,210,427.2,210 M427.2,210C427.2,210,427.2,210,427.2,210
						C427.2,210,427.2,210,427.2,210 M427.2,210C427.2,210,427.2,210,427.2,210C427.2,210,427.2,210,427.2,210 M427.2,210
						C427.2,210,427.2,210,427.2,210C427.2,210,427.2,210,427.2,210 M427.2,210C427.2,210,427.2,210,427.2,210
						C427.2,210,427.2,210,427.2,210 M427.2,210C427.2,210,427.2,210,427.2,210C427.2,210,427.2,210,427.2,210 M427.2,210
						C427.2,210,427.2,210,427.2,210C427.2,210,427.2,210,427.2,210 M427.2,210C427.2,210,427.2,210,427.2,210
						C427.2,210,427.2,210,427.2,210 M427.2,210C427.2,210,427.2,210,427.2,210C427.2,210,427.2,210,427.2,210 M427.2,210
						C427.2,210,427.2,210,427.2,210C427.2,210,427.2,210,427.2,210 M427.2,210C427.2,210,427.2,210,427.2,210
						C427.2,210,427.2,210,427.2,210 M427.2,210C427.2,210,427.2,210,427.2,210C427.2,210,427.2,210,427.2,210 M427.2,210
						C427.2,210,427.2,210,427.2,210C427.2,210,427.2,210,427.2,210 M427.2,210C427.2,210,427.2,210,427.2,210
						C427.2,210,427.2,210,427.2,210 M427.3,210C427.2,210,427.2,210,427.3,210C427.2,210,427.2,210,427.3,210 M427.3,210
						C427.3,210,427.3,210,427.3,210C427.3,210,427.3,210,427.3,210 M427.3,210C427.3,210,427.3,210,427.3,210
						C427.3,210,427.3,210,427.3,210 M427.3,210C427.3,210,427.3,210,427.3,210C427.3,210,427.3,210,427.3,210 M427.3,210
						C427.3,210,427.3,210,427.3,210C427.3,210,427.3,210,427.3,210 M427.3,210C427.3,209.9,427.3,209.9,427.3,210
						C427.3,209.9,427.3,209.9,427.3,210 M427.3,209.9C427.3,209.9,427.3,209.9,427.3,209.9C427.3,209.9,427.3,209.9,427.3,209.9
						 M427.3,209.9C427.3,209.9,427.3,209.9,427.3,209.9C427.3,209.9,427.3,209.9,427.3,209.9 M427.3,209.9
						C427.3,209.9,427.3,209.9,427.3,209.9C427.3,209.9,427.3,209.9,427.3,209.9 M427.3,209.9C427.3,209.9,427.3,209.9,427.3,209.9
						C427.3,209.9,427.3,209.9,427.3,209.9 M427.3,209.9C427.3,209.9,427.3,209.9,427.3,209.9C427.3,209.9,427.3,209.9,427.3,209.9
						 M427.3,209.9C427.3,209.9,427.3,209.9,427.3,209.9C427.3,209.9,427.3,209.9,427.3,209.9 M427.3,209.9
						C427.3,209.9,427.3,209.9,427.3,209.9C427.3,209.9,427.3,209.9,427.3,209.9 M427.3,209.9C427.3,209.9,427.3,209.9,427.3,209.9
						C427.3,209.9,427.3,209.9,427.3,209.9 M427.3,209.9C427.3,209.9,427.3,209.9,427.3,209.9C427.3,209.9,427.3,209.9,427.3,209.9
						 M427.3,209.9C427.3,209.9,427.3,209.9,427.3,209.9C427.3,209.9,427.3,209.9,427.3,209.9 M427.3,209.9
						C427.3,209.9,427.3,209.9,427.3,209.9C427.3,209.9,427.3,209.9,427.3,209.9 M427.3,209.9C427.3,209.9,427.3,209.9,427.3,209.9
						C427.3,209.9,427.3,209.9,427.3,209.9 M427.3,209.9C427.3,209.9,427.3,209.9,427.3,209.9C427.3,209.9,427.3,209.9,427.3,209.9
						 M427.3,209.9C427.3,209.9,427.3,209.9,427.3,209.9C427.3,209.9,427.3,209.9,427.3,209.9 M427.3,209.9
						C427.3,209.9,427.3,209.9,427.3,209.9C427.3,209.9,427.3,209.9,427.3,209.9 M427.3,209.9C427.3,209.9,427.3,209.9,427.3,209.9
						C427.3,209.9,427.3,209.9,427.3,209.9 M427.3,209.9C427.3,209.9,427.3,209.9,427.3,209.9C427.3,209.9,427.3,209.9,427.3,209.9
						 M427.3,209.9C427.3,209.9,427.3,209.9,427.3,209.9C427.3,209.9,427.3,209.9,427.3,209.9 M427.3,209.9
						C427.3,209.9,427.3,209.9,427.3,209.9C427.3,209.9,427.3,209.9,427.3,209.9 M427.3,209.9C427.3,209.9,427.3,209.9,427.3,209.9
						C427.3,209.9,427.3,209.9,427.3,209.9 M427.3,209.9C427.3,209.9,427.3,209.9,427.3,209.9C427.3,209.9,427.3,209.9,427.3,209.9
						 M427.3,209.9C427.3,209.9,427.3,209.9,427.3,209.9C427.3,209.9,427.3,209.9,427.3,209.9 M427.3,209.9
						C427.3,209.9,427.3,209.9,427.3,209.9C427.3,209.9,427.3,209.9,427.3,209.9 M427.3,209.9C427.3,209.9,427.3,209.9,427.3,209.9
						C427.3,209.9,427.3,209.9,427.3,209.9 M427.3,209.9C427.3,209.9,427.3,209.9,427.3,209.9C427.3,209.9,427.3,209.9,427.3,209.9
						 M427.3,209.9C427.3,209.9,427.3,209.9,427.3,209.9C427.3,209.9,427.3,209.9,427.3,209.9 M427.3,209.9
						C427.3,209.9,427.3,209.9,427.3,209.9C427.3,209.9,427.3,209.9,427.3,209.9 M427.3,209.9C427.3,209.9,427.3,209.9,427.3,209.9
						C427.3,209.9,427.3,209.9,427.3,209.9 M427.3,209.9C427.3,209.9,427.3,209.9,427.3,209.9C427.3,209.9,427.3,209.9,427.3,209.9
						 M427.3,209.9C427.3,209.9,427.3,209.9,427.3,209.9C427.3,209.9,427.3,209.9,427.3,209.9 M427.3,209.9
						C427.3,209.9,427.3,209.9,427.3,209.9C427.3,209.9,427.3,209.9,427.3,209.9 M427.3,209.9C427.3,209.9,427.3,209.9,427.3,209.9
						C427.3,209.9,427.3,209.9,427.3,209.9 M427.3,209.9C427.3,209.9,427.3,209.9,427.3,209.9C427.3,209.9,427.3,209.9,427.3,209.9
						 M448.5,227.7c0-0.2,0-0.6-0.2-1.1l-5.3-2.3c-0.6-0.4-0.3-1.2-0.8-1.7c-0.8-0.7-1.9-0.7-2.6-1.4c-1-1-2.6-1.1-3.6-2.1
						c-0.7,0.1-1.7,0.8-1.7,0.8c0,0.2-0.1,0.5-0.2,0.7c-0.3-0.1-0.5-0.4-0.9-0.5c-0.2,0.1-0.3,0.3-0.5,0.4c-0.1,0-0.2-0.1-0.3-0.1
						c-0.4-0.9,0.1-1.9-0.2-2.8c-1.1-0.1-1.1-0.1-1.2-0.2c0.2-0.9,0.5-2.3,0.5-2.3c-0.1-0.1-0.1-0.2-0.2-0.2c-0.2,0-0.5,0-0.7,0.1
						c-0.2,0.7-0.2,0.7-0.4,1.2c-1.8,0.4-0.7-3.7-0.5-4.1c0.1-0.3,0.4-0.5,0.5-0.8c0.3,0,0.3,0,1,0.2c0.1-0.1,0.2-0.4,0.3-0.5
						c0.4,0,0.9,0.2,1.3,0.1c0.1,0.1,0.2,0.2,0.2,0.3c-0.2,1.5-0.3,1.6,0.2,2c0.4-0.9,0.1-1.9,0.4-2.9c0.4-0.9,1.4-1.1,1.8-2
						c0.1-0.2,0.2-0.5,0.3-0.7c0.3-0.8,0.8-1.8,1.4-1.9c0,0,2-1.5,2.1-2l0,0c0.1-0.1,0.2-0.1,0.3-0.2c0,0.2-0.1,0.5-0.2,0.7
						c0.6,0.1,1.8-0.6,2-1.2c-0.2,0-0.4,0.2-0.5,0.3c-0.1,0-0.2,0-0.3,0c-0.1-0.1-0.3-0.3-0.5-0.4c0-0.2,0.1-0.4,0.2-0.6
						c-0.1,0-0.2-0.1-0.3-0.1c0.2-0.1,0.4-0.3,0.6-0.4c0-0.1,0-0.2,0-0.3c-0.4,0-0.6,0-1.7,1c0.8-1,1.9-2.3,4.2-1.9
						c-0.4,0.6-0.9,1.3-1.3,1.9c2-0.1,2.1-0.1,1.9-1c-0.2,0-0.4,0.1-0.6,0.1c0-1,0.6-1.8,0.7-2.8c-0.5-0.5-0.5-0.5-0.2-2.9
						c-0.1,0-0.2,0-0.3,0c-0.4,0.6-0.5,0.6-0.8,0.8c0-0.1-0.1-0.2-0.2-0.3c0.1-0.4,0.3-0.8,0.5-1.2c-0.1-0.1-0.2-0.1-0.3-0.2
						c0-0.1,0-0.2,0-0.3c-0.7-0.5-0.8-0.4-1.3,0.4l-3.5,5.4c-0.1,0-0.2,0-0.3-0.1c-0.1-0.5-0.1-0.5,0.7-1.9c-0.2,0-0.4,0-0.6-0.1
						c0-0.5-0.1-0.7-0.2-1c-0.1,0-0.2,0-0.3,0c0.2-0.3,0.4-0.6,0.6-0.9c-0.1,0-0.2,0-0.3,0c0.9-1.7,2.8-2.3,4.2-3.4
						c0-0.1,0-0.2,0-0.3c1.1-1,2.7-1.3,3.7-2.4c-0.1,0-0.2-0.1-0.3-0.1c-0.3,0.3-0.7,0.6-1.8,1.3c0.2-0.3,0.2-0.3,1-1
						c-0.2,0.1-0.4,0.2-0.6,0.3c0.6-0.5,2.4-1.9,2.4-1.9c-1.2,0.5-2,1.4-3.1,2.1c0.2-0.2,0.2-0.2,0.7-0.6c-0.7,0.1-1.1,0.7-1.7,0.9
						c0-0.1,0-0.2,0-0.3c0.1-0.1,0.2-0.2,0.2-0.2c-0.8,0.4-0.8,0.4-1.3,0.5c0.7-0.8,1.1-1.1,1.1-1.1c-0.2,0.1-0.4,0.2-0.6,0.3
						c0.2-0.1,0.4-0.3,0.6-0.4c-0.3,0.1-0.3,0.1-1.3,0.7c0.3-0.2,0.3-0.2,0.8-0.5c-1.1,0.6-2.1,1.3-3.2,2.1c-1.2,1-2.8,2.3-4,3.4
						c0,0-0.1,0.1-0.1,0.1l0,0c-0.4,0.4-9,9.7-7,18.5c0.6-1.1,0-2.3,0.1-3.5c0.5,1.6-0.2,3.4,0.5,5c0.4,1.1,1.7,1.3,2.4,2.2l0,0l0,0
						c0.2,0.4,0.2,0.4,0.8,0.5c0.7,0.9,1.4,1.8,2,2.7c0.2-0.1,0.3-0.3,0.4-0.4c0.1,0,0.2,0,0.3,0c0.5,1.9-1,3.7-0.3,5.6
						c0.3,0.9,0.9,1.6,1.4,2.4c0.7,1.2,2.1,1.8,2.6,3.1c1,2.4,0.8,5,1.9,7.3c0.4,0.9,0.7,1.7,1.1,2.6c0-0.2,0-0.5-0.1-0.7
						c0.9,1.2,1.1,2.7,2.1,3.8c0.8,0.9,1.9,2.1,3.2,2c-0.5-0.8-1.5-1.2-2-1.9c0-0.1,0.1-0.2,0.1-0.3c-0.2-0.3-0.3-0.4-1.1-1.9
						c0.1-0.2,0-0.6,0-0.9c0.1,0,0.2-0.1,0.3-0.1c0-0.1-0.1-0.2-0.1-0.3c-0.2-0.1-0.4-0.2-0.5-0.4c0.2,0,0.4-0.1,0.6-0.2
						c0-0.2-0.1-0.4-0.1-0.6c1.2-0.6,1.2-0.6,1-1.4c-0.2-0.1-0.4-0.2-0.5-0.4c0.1-0.1,0.4-0.1,0.6-0.1c0.2-0.1,0.4-0.4,0.5-0.5
						c0,0,0.9-2.1,0.7-2.8c-0.4-1.4,1.7-1.2,2.2-2.2L448.5,227.7"/>
					<path fill="#FFFFFF" d="M458.1,185.8c0,0-0.4,0.1-0.6,0.4c0,0,0,0,0.1,0c0,0.2,0,0.2,0,0.2c-0.1,0.2-0.3,0.2-0.5,0.3
						c0,0.1,0,0.1,0.1,0.2c0,0,0.1,0.1,0.1,0.2c0,0.1-0.2,0.2-0.2,0.3c0,0.1,0,0.2,0,0.3c-0.1,0.4-0.7,0.5-0.7,1l-0.3,1.1
						c-0.1,0.2-0.3,0.5-0.3,0.5c0,0-1.2,0.8-1.2,0.8c-0.3,0.2-0.7-0.1-1.1,0.1c0,0,0,0.1-0.1,0.1c-0.2,0.5-1.4,1.3-1.4,1.3
						c-0.1,0.1-0.3,0.1-0.4,0.2c-0.9,0.4-1,0.6-1.1,0.9c-0.1,0.3-0.1,0.3-0.5,0.6c-0.6,0.5-1,2.4-1.6,1.6c-0.1-0.1,0-0.3,0-0.4
						c-0.2,0-0.6,0.2-0.6-0.1c0,0,0-0.7,0.3-2.1c0.3-1.4,1.3-2.1,1.4-2.1c0.9-0.5,0.9-0.5,1-0.8c-0.2-0.2-0.4-0.3-0.2-0.5
						c0,0,0.1,0,0.1,0c0.3,0.3,0.3,0.3,0.4,0.2c0.3-0.2,0.3-0.6,0.4-0.9c-0.3,0-0.4,0.3-0.6,0.4c0.1-0.2,0.1-0.3,0.5-0.5
						c0.3-0.2,2.1-1.7,2.1-1.9c-0.3-0.1-0.3-0.1-0.6,0c0.3-0.4,2.5-1.1,5.2-1.2C457.8,185.8,458,185.8,458.1,185.8
						C458.1,185.8,458.1,185.8,458.1,185.8"/>
				</g>
			</g>
		</g>
	</g>
	<g display="inline">
		<g>
			<path fill="#1972F5" d="M441.3,278.9c1.6,0,3-0.7,4-1.9c1.6-1.9,3.6-4.3,4.7-5.5c2.1-2.3,2.3-3.1,2.3-3.1s-3.1-1.6-5.9,1.1
				c-2.7,2.7-8,6.9-8,6.9l-0.6,0.7l-0.9,1.7L441.3,278.9z"/>
			<path fill="#1972F5" d="M435.6,279.3c0.6-0.2,1.3-0.6,1.8-1c0,0,4.4-7.1,6.2-9.6c1.8-2.6,1.9-3.4,1.9-3.4s-3.3-1.2-5.7,1.9
				c-2.3,3.1-7,7.9-7,7.9l-3.6,0.8C431.2,277.1,433.3,278.2,435.6,279.3z"/>
			<path fill="#1972F5" d="M444.7,283.7c1.6-0.6,3.2-1.3,4.1-2c2.6-1.9,9.9-8.2,9.9-8.2s-0.2-2.2-4.1-0.9
				c-3.9,1.3-12.1,6.4-12.1,6.4l-7.4-0.3C438.4,280.3,441.7,281.9,444.7,283.7z"/>
			<path fill="#1972F5" d="M457.2,292c0,0-0.5-1.3-2.7-1.6c-2.2-0.3-2.2-0.3-2.2-0.3l-0.3,1.5c0,0,1.6,0.2,2.7,0.3
				C455.4,292,457.2,292,457.2,292z"/>
			<path fill="#1972F5" d="M457.9,273.5c0,0-1.3-0.5-3.1,0.8c-1.8,1.3-1.6,1.3-1.6,1.3l0.9,1c0,0,1.2-1,2.1-1.7
				C456.7,274.5,457.9,273.5,457.9,273.5z"/>
			<path fill="#1972F5" d="M452.4,268.5c0,0-1.2-0.2-2.5,1.3c-0.8,0.9-1.1,1.4-1.1,1.4l0.9,0.8c0,0,0.9-1,1.6-1.9
				C452.1,269.2,452.4,268.5,452.4,268.5z"/>
			<path fill="#1972F5" d="M445.4,265.3c0,0-1.2,0-2.3,1.7c-0.6,1-0.9,1.5-0.9,1.5l1,0.6c0,0,0.8-1.1,1.4-2
				C445.3,266,445.4,265.3,445.4,265.3z"/>
			<path fill="#1972F5" d="M444.6,258.1c0.7,1.3-0.8,3.1-2.5,3.6c-1.7,0.5-2.5,0.5-2.5,0.5s-0.5-2.2-0.2-3.5
				C440.8,258.2,444.1,257.3,444.6,258.1z"/>
		</g>
		<g>
			<path fill="#1972F5" d="M441.3,159.7c1.6,0,3,0.7,4,1.9c1.6,1.9,3.6,4.3,4.7,5.5c2.1,2.3,2.3,3.1,2.3,3.1s-3.1,1.6-5.9-1.1
				c-2.7-2.7-8-6.9-8-6.9l-0.6-0.7l-0.9-1.7L441.3,159.7z"/>
			<path fill="#1972F5" d="M435.6,159.3c0.6,0.2,1.3,0.6,1.8,1c0,0,4.4,7.1,6.2,9.6c1.8,2.6,1.9,3.4,1.9,3.4s-3.3,1.2-5.7-1.9
				c-2.3-3.1-7-7.9-7-7.9l-3.6-0.8C431.2,161.6,433.3,160.4,435.6,159.3z"/>
			<path fill="#1972F5" d="M444.7,155c1.6,0.6,3.2,1.3,4.1,2c2.6,1.9,9.9,8.2,9.9,8.2s-0.2,2.2-4.1,0.9c-3.9-1.3-12.1-6.4-12.1-6.4
				l-7.4,0.3C438.4,158.3,441.7,156.7,444.7,155z"/>
			<path fill="#1972F5" d="M452.1,286.5c-5.2-1.1-22.9-9.3-27.1-14c-0.7-0.8-0.8-4.5-0.8-4.5s9.7-1.9,13.6-2.7
				c8.1-1.7,7.8-5.2,7.7-6.5c-0.2-3.1-5.8-0.2-8.7-0.1c-4.5,0.2-9.7-0.4-19.8-6.7c-3.6-2.3-11.7-2.3-15-4.7
				c-0.8-0.5-15-26.5-16.1-28c1.1-1.5,15.3-27.5,16.1-28c3.3-2.3,11.4-2.4,15-4.7c10-6.3,15.3-6.9,19.8-6.7c2.8,0.2,8.5,3,8.7-0.1
				c0.1-1.3,0.4-4.8-7.7-6.5c-3.9-0.8-13.6-2.7-13.6-2.7s0.1-3.7,0.8-4.5c4.2-4.7,21.8-12.8,27.1-14c5.3-1.1,5.1-5.5,5.1-5.5
				s-10.8,0.5-17.9,2.9c-8.5,2.8-13,4.9-18,6.5c-2.7,0.9-6.3,2.7-8.8,4.7c-6.4,5.1-14.6,11.6-19.1,15.6c-3,2.7-26.7,38-29.3,43
				c2.6,5,26.2,40.4,29.3,43c4.6,4,12.8,10.5,19.1,15.6c2.5,2,6,3.8,8.8,4.7c5,1.7,9.5,3.7,18,6.5c7,2.3,17.9,2.9,17.9,2.9
				S457.4,287.6,452.1,286.5z"/>
			<path fill="#1972F5" d="M457.2,146.6c0,0-0.5,1.3-2.7,1.6c-2.2,0.3-2.2,0.3-2.2,0.3l-0.3-1.5c0,0,1.6-0.2,2.7-0.3
				C455.4,146.6,457.2,146.6,457.2,146.6z"/>
			<path fill="#1972F5" d="M457.9,165.1c0,0-1.3,0.5-3.1-0.8c-1.8-1.3-1.6-1.3-1.6-1.3l0.9-1c0,0,1.2,1,2.1,1.7
				C456.7,164.1,457.9,165.1,457.9,165.1z"/>
			<path fill="#1972F5" d="M452.4,170.1c0,0-1.2,0.2-2.5-1.3c-0.8-0.9-1.1-1.4-1.1-1.4l0.9-0.8c0,0,0.9,1,1.6,1.9
				C452.1,169.4,452.4,170.1,452.4,170.1z"/>
			<path fill="#1972F5" d="M445.4,173.4c0,0-1.2,0-2.3-1.7c-0.6-1-0.9-1.5-0.9-1.5l1-0.6c0,0,0.8,1.1,1.4,2
				C445.3,172.6,445.4,173.4,445.4,173.4z"/>
			<path fill="#1972F5" d="M444.6,180.5c0.7-1.3-0.8-3.1-2.5-3.6c-1.7-0.5-2.5-0.5-2.5-0.5s-0.5,2.2-0.2,3.5
				C440.8,180.4,444.1,181.4,444.6,180.5z"/>
		</g>
		<g>
			<path fill="#1972F5" d="M476.2,278.9c-1.6,0-3-0.7-4-1.9c-1.6-1.9-3.6-4.3-4.7-5.5c-2.1-2.3-2.3-3.1-2.3-3.1s3.1-1.6,5.9,1.1
				c2.7,2.7,8,6.9,8,6.9l0.6,0.7l0.9,1.7L476.2,278.9z"/>
			<path fill="#1972F5" d="M481.9,279.3c-0.6-0.2-1.3-0.6-1.8-1c0,0-4.4-7.1-6.2-9.6c-1.8-2.6-1.9-3.4-1.9-3.4s3.3-1.2,5.7,1.9
				c2.3,3.1,7,7.9,7,7.9l3.6,0.8C486.3,277.1,484.1,278.2,481.9,279.3z"/>
			<path fill="#1972F5" d="M472.8,283.7c-1.6-0.6-3.2-1.3-4.1-2c-2.6-1.9-9.9-8.2-9.9-8.2s0.2-2.2,4.1-0.9
				c3.9,1.3,12.1,6.4,12.1,6.4l7.4-0.3C479.1,280.3,475.8,281.9,472.8,283.7z"/>
			<path fill="#1972F5" d="M460.3,292c0,0,0.5-1.3,2.7-1.6c2.2-0.3,2.2-0.3,2.2-0.3l0.3,1.5c0,0-1.6,0.2-2.7,0.3
				C462.1,292,460.3,292,460.3,292z"/>
			<path fill="#1972F5" d="M459.6,273.5c0,0,1.3-0.5,3.1,0.8c1.8,1.3,1.6,1.3,1.6,1.3l-0.9,1c0,0-1.2-1-2.1-1.7
				C460.7,274.5,459.6,273.5,459.6,273.5z"/>
			<path fill="#1972F5" d="M465.1,268.5c0,0,1.2-0.2,2.5,1.3c0.8,0.9,1.1,1.4,1.1,1.4l-0.9,0.8c0,0-0.9-1-1.6-1.9
				C465.4,269.2,465.1,268.5,465.1,268.5z"/>
			<path fill="#1972F5" d="M472.1,265.3c0,0,1.2,0,2.3,1.7c0.6,1,0.9,1.5,0.9,1.5l-1,0.6c0,0-0.8-1.1-1.4-2
				C472.2,266,472.1,265.3,472.1,265.3z"/>
			<path fill="#1972F5" d="M472.9,258.1c-0.7,1.3,0.8,3.1,2.5,3.6c1.7,0.5,2.5,0.5,2.5,0.5s0.5-2.2,0.2-3.5
				C476.6,258.2,473.4,257.3,472.9,258.1z"/>
		</g>
		<g>
			<path fill="#1972F5" d="M476.2,159.7c-1.6,0-3,0.7-4,1.9c-1.6,1.9-3.6,4.3-4.7,5.5c-2.1,2.3-2.3,3.1-2.3,3.1s3.1,1.6,5.9-1.1
				c2.7-2.7,8-6.9,8-6.9l0.6-0.7l0.9-1.7L476.2,159.7z"/>
			<path fill="#1972F5" d="M481.9,159.3c-0.6,0.2-1.3,0.6-1.8,1c0,0-4.4,7.1-6.2,9.6c-1.8,2.6-1.9,3.4-1.9,3.4s3.3,1.2,5.7-1.9
				c2.3-3.1,7-7.9,7-7.9l3.6-0.8C486.3,161.6,484.1,160.4,481.9,159.3z"/>
			<path fill="#1972F5" d="M472.8,155c-1.6,0.6-3.2,1.3-4.1,2c-2.6,1.9-9.9,8.2-9.9,8.2s0.2,2.2,4.1,0.9c3.9-1.3,12.1-6.4,12.1-6.4
				l7.4,0.3C479.1,158.3,475.8,156.7,472.8,155z"/>
			<path fill="#1972F5" d="M524.1,176.3c-4.6-4-12.8-10.5-19.1-15.6c-2.5-2-6-3.8-8.8-4.7c-5-1.7-9.5-3.7-18-6.5
				c-7-2.3-17.9-2.9-17.9-2.9s-0.2,4.4,5.1,5.5c5.2,1.1,22.9,9.3,27.1,14c0.7,0.8,0.8,4.5,0.8,4.5s-9.7,1.9-13.6,2.7
				c-8.1,1.7-7.8,5.2-7.7,6.5c0.2,3.1,5.8,0.2,8.7,0.1c4.5-0.2,9.7,0.4,19.8,6.7c3.6,2.3,11.7,2.3,15,4.7c0.8,0.5,15,26.5,16.1,28
				c-1.1,1.5-15.3,27.5-16.1,28c-3.3,2.3-11.4,2.4-15,4.7c-10,6.3-15.3,6.9-19.8,6.7c-2.8-0.2-8.5-3-8.7,0.1
				c-0.1,1.3-0.4,4.8,7.7,6.5c3.9,0.8,13.6,2.7,13.6,2.7s-0.1,3.7-0.8,4.5c-4.2,4.7-21.8,12.8-27.1,14c-5.3,1.1-5.1,5.5-5.1,5.5
				s10.8-0.5,17.9-2.9c8.5-2.8,13-4.9,18-6.5c2.7-0.9,6.3-2.7,8.8-4.7c6.4-5.1,14.6-11.6,19.1-15.6c3-2.7,26.7-38,29.3-43
				C550.8,214.3,527.1,179,524.1,176.3z"/>
			<path fill="#1972F5" d="M460.3,146.6c0,0,0.5,1.3,2.7,1.6c2.2,0.3,2.2,0.3,2.2,0.3l0.3-1.5c0,0-1.6-0.2-2.7-0.3
				C462.1,146.6,460.3,146.6,460.3,146.6z"/>
			<path fill="#1972F5" d="M459.6,165.1c0,0,1.3,0.5,3.1-0.8c1.8-1.3,1.6-1.3,1.6-1.3l-0.9-1c0,0-1.2,1-2.1,1.7
				C460.7,164.1,459.6,165.1,459.6,165.1z"/>
			<path fill="#1972F5" d="M465.1,170.1c0,0,1.2,0.2,2.5-1.3c0.8-0.9,1.1-1.4,1.1-1.4l-0.9-0.8c0,0-0.9,1-1.6,1.9
				C465.4,169.4,465.1,170.1,465.1,170.1z"/>
			<path fill="#1972F5" d="M472.1,173.4c0,0,1.2,0,2.3-1.7c0.6-1,0.9-1.5,0.9-1.5l-1-0.6c0,0-0.8,1.1-1.4,2
				C472.2,172.6,472.1,173.4,472.1,173.4z"/>
			<path fill="#1972F5" d="M472.9,180.5c-0.7-1.3,0.8-3.1,2.5-3.6c1.7-0.5,2.5-0.5,2.5-0.5s0.5,2.2,0.2,3.5
				C476.6,180.4,473.4,181.4,472.9,180.5z"/>
		</g>
	</g>
</g>
<g id="Layer_2">
	
		<use xlink:href="#New_Symbol_1"  width="189.2" height="145.4" x="-94.6" y="-72.7" transform="matrix(3.7946 0 0 -3.7946 486.2693 280.1092)" overflow="visible"/>
</g>
</svg>
