<?xml version="1.0" encoding="utf-8"?>
<!-- Generator: Adobe Illustrator 18.0.0, SVG Export Plug-In . SVG Version: 6.00 Build 0)  -->
<!DOCTYPE svg PUBLIC "-//W3C//DTD SVG 1.1//EN" "http://www.w3.org/Graphics/SVG/1.1/DTD/svg11.dtd">
<svg version="1.1" xmlns="http://www.w3.org/2000/svg" xmlns:xlink="http://www.w3.org/1999/xlink" x="0px" y="0px"
	 viewBox="0 0 1024 1024" enable-background="new 0 0 1024 1024" xml:space="preserve">
<symbol  id="New_Symbol" viewBox="-265.2 -266.9 530.3 533.8">
	<path fill="#9AC7FC" d="M-7.7,153c-5.9,0.8-11.6-0.5-16.4-3.3l8.8,68.7c1.6,12.5-7.3,24-19.8,25.6l-178.8,22.8
		c-12.5,1.6-24-7.3-25.6-19.8l-22.8-178.8c-1.6-12.5,7.3-24,19.8-25.6l63.7-8.1c-2.3,4.8-3.7,9.4-2.2,14.9
		c4.1,14.8,17.4,24.8,32.7,21.5c15.8-3.4,22.9-11.2,23.8-28c0.3-5.7-1.7-10.7-5.1-14.7l66-8.4c12.5-1.6,24,7.3,25.6,19.8l8.8,68.7
		c3.9-3.9,9.1-6.6,15.1-7.3c14.4-1.8,27.5,8.3,29.3,22.7C16.9,138,6.7,151.2-7.7,153z"/>
	<path fill="#9AC7FC" d="M-40.8-83.3c3.6,0.8,7.1,1,10.5,0.6l-14.4,60.8C-47.6-9.6-59.9-2-72.2-5l-67.1-15.9
		c2.1,5,2.7,10.6,1.4,16.3c-3.3,14.1-17.5,22.8-31.6,19.5c-14.1-3.3-22.8-17.5-19.5-31.6c1.3-5.6,4.4-10.4,8.5-13.9l-67.1-15.9
		c-12.3-2.9-19.9-15.2-17-27.5l41.5-175.4c2.9-12.3,15.2-19.9,27.5-17l175.4,41.5c12.3,2.9,19.9,15.2,17,27.5l-14.4,60.8
		c-2.9-1.9-6.1-3.4-9.7-4.2c-15.8-3.7-29.8,6.4-33.5,22.2S-56.6-87.1-40.8-83.3z"/>
	<path fill="#9AC7FC" d="M230.6,258.2H50.3c-12.6,0-22.9-10.2-22.9-22.9v-64.7c4.5,2.7,9.7,4.2,15.3,4.2c16.4,0,27.2-12,27.2-28.4
		s-10.8-30.9-27.2-30.9c-5.6,0-10.8,1.6-15.3,4.2V55.1c0-12.6,10.2-22.9,22.9-22.9h68.6c-3-4.3-4.8-9.5-4.8-15.1
		c0-14.5,11.7-26.2,26.2-26.2s26.2,11.7,26.2,26.2c0,5.6-1.8,10.9-4.8,15.1h68.8c12.6,0,22.9,10.2,22.9,22.9v180.2
		C253.4,248,243.2,258.2,230.6,258.2z"/>
	<path fill="#9AC7FC" d="M245.2-36.3l-63.7,8.2c2-4.7,2.8-10.1,2.1-15.5C181.5-60.1,166.5-67,150-64.8c-16.5,2.1-28.3,12.5-26.1,29
		c0.7,5.5,2.8,10.4,6,14.5l-63.4,8.2c-12.5,1.6-24-7.2-25.6-19.7l-8.5-65.7c-3.1,1.9-6.7,3.3-10.5,3.8c-14.4,1.9-27.5-8.3-29.4-22.7
		C-9.3-132,0.8-145.1,15.2-147c3.9-0.5,7.6-0.1,11.1,1l-8.5-65.7c-1.6-12.5,7.2-24,19.7-25.6l178.8-23c12.5-1.6,24,7.2,25.6,19.7
		l23,178.8C266.6-49.3,257.7-37.9,245.2-36.3z"/>
	<g>
		<path fill="#1972F5" d="M123.9-35.9c0.7,5.5,2.8,10.4,6,14.5l-63.4,8.2c-12.5,1.6-24-7.2-25.6-19.7l-5.7-44.5
			c32-3.6,45.7,22.2,45.9,22.5c1.9,3.6,6.3,5,9.9,3.2c3.6-1.9,5-6.3,3.2-9.9c-6.4-12.3-27.2-34.2-60.8-30.3l-0.8-6.6
			c-3.1,1.9-6.7,3.3-10.5,3.8c-14.4,1.9-27.5-8.3-29.4-22.7c-1-7.6,1.4-15,6.1-20.4l13.8-1.9c62-8.4,120.2,23.2,148.6,75
			c-3.5-0.5-7.2-0.5-11,0C133.5-62.7,121.8-52.4,123.9-35.9z"/>
		<path fill="#1972F5" d="M-181,49.4c4.1,14.8,17.4,24.8,32.7,21.5c15.8-3.4,22.9-11.2,23.8-28c0.3-5.7-1.7-10.7-5.1-14.7l66-8.4
			c12.5-1.6,24,7.3,25.6,19.8l8.8,68.7c3.9-3.9,9.1-6.6,15.1-7.3c14.4-1.8,27.5,8.3,29.3,22.7C16.9,138,6.7,151.2-7.7,153
			c-5.9,0.8-11.6-0.5-16.4-3.3l1.5,11.7l-8.9,1.2c-80.4,11.1-154.6-45-165.7-125.4l-0.1-0.4l18.4-2.3
			C-181.2,39.3-182.5,43.9-181,49.4z M-82.1,47.9c-1.2-8.7-9.3-14.9-18-13.6l-0.3,0c-8.7,1.2-14.9,9.3-13.6,18l1.7,12.4
			c1.2,8.7,9.3,14.9,18,13.6l0.3,0c8.7-1.2,14.9-9.3,13.6-18L-82.1,47.9z M-176.7,73.6c18.1,40.3,54.8,69.7,98.1,78.7
			c2.7,0.5,5.2-1.2,5.8-3.8c0.5-2.7-1.2-5.3-3.8-5.8c-40.2-8.3-74.3-35.6-91.1-73.1c-0.9-2-3-3.1-5.1-2.8c-0.5,0.1-0.9,0.2-1.3,0.4
			C-176.7,68.2-177.8,71.1-176.7,73.6z"/>
		<path fill="#1972F5" d="M42.8,174.9c16.4,0,27.2-12,27.2-28.4s-10.8-30.9-27.2-30.9c-5.6,0-10.8,1.6-15.3,4.2V55.1
			c0-12.6,10.2-22.9,22.9-22.9h68.6c-3-4.3-4.8-9.5-4.8-15.1c0-14.5,11.7-26.2,26.2-26.2c4.5,0,8.7,1.1,12.4,3.1
			c5.4,15.3,8.3,31.7,8.3,48.8v3c0,47.9-22.9,90.4-58.4,117.3c25.9-12.7,47.4-32.7,62-57.4C139.1,149,92,178,38.1,178H27.5v-7.3
			C32,173.4,37.2,174.9,42.8,174.9z M77,85.9c8.8,0,16-7.2,16-16V57.4c0-8.8-7.2-16-16-16h-0.3c-8.8,0-16,7.2-16,16v12.5
			c0,8.8,7.2,16,16,16H77z"/>
		<path fill="#1972F5" d="M-82.6-146.6c-12.5,2.1-24.7,5.7-36.1,10.8c21.2-4.9,43.7-5.2,66.3,0l1.8,0.4c-4.9,4.1-8.5,9.9-10.1,16.9
			c-3.7,15.8,4.1,31.4,20,35.2c3.6,0.8,7.1,1,10.5,0.6l-0.8,3.4c-33.1-7-55.9,12.9-63.3,24.5c-2.2,3.4-1.2,8,2.2,10.2
			c3.4,2.2,8,1.2,10.2-2.2c0.7-1.1,16.6-24.5,47.6-18.2l-10.2,43.1C-47.6-9.6-59.9-2-72.2-5l-67.1-15.9c2.1,5,2.7,10.6,1.4,16.3
			c-3.3,14.1-17.5,22.8-31.6,19.5c-14.1-3.3-22.8-17.5-19.5-31.6c1.3-5.6,4.4-10.4,8.5-13.9l-21.4-5.1
			C-187.8-95-139.4-137.4-82.6-146.6z"/>
		<path fill="#055CC6" d="M199.4-31.8l0.2,1.4l-18.1,2.3c2-4.7,2.8-10.1,2.1-15.5C182-56.3,172.7-63.3,161-64.9
			c-28.4-51.8-86.6-83.4-148.6-75L-1.4-138c4.1-4.8,9.9-8.1,16.6-9c3.9-0.5,7.6-0.1,11.1,1L25-156.4l9.1-1.2
			C114.5-168.6,188.5-112.2,199.4-31.8z"/>
		<path fill="#055CC6" d="M166.6,17.1c0,5.6-1.8,10.9-4.8,15.1H185c0,1.2,0,2.4-0.1,3.6c0,0.4,0,0.9,0,1.3c-0.1,1.3-0.1,2.7-0.2,4
			c0,0.3,0,0.6-0.1,0.8c-0.1,1.6-0.3,3.1-0.4,4.7c0,0.4-0.1,0.7-0.1,1.1c-0.1,1.3-0.3,2.6-0.5,3.8c-0.1,0.4-0.1,0.7-0.2,1.1
			c-0.2,1.6-0.5,3.1-0.8,4.6c0,0.2-0.1,0.5-0.1,0.7c-0.3,1.3-0.5,2.7-0.8,4c-0.1,0.4-0.2,0.7-0.2,1.1c-0.7,3.1-1.5,6.1-2.4,9.1
			c-0.1,0.3-0.2,0.6-0.3,0.9c-0.4,1.4-0.8,2.8-1.3,4.1c0,0.1-0.1,0.2-0.1,0.3c-0.5,1.5-1,3-1.6,4.5c-0.1,0.2-0.2,0.4-0.2,0.6
			c-0.5,1.4-1,2.7-1.6,4c-0.1,0.2-0.1,0.3-0.2,0.5c-1.3,3-2.6,6-4,8.9c-0.1,0.1-0.1,0.3-0.2,0.4c-1.5,2.9-3,5.8-4.7,8.6
			c0,0.1-0.1,0.1-0.1,0.2c-14.6,24.7-36.2,44.7-62,57.4c35.5-26.8,58.4-69.4,58.4-117.3v-3c0-17.1-2.9-33.5-8.3-48.8
			C161-1.5,166.6,7.2,166.6,17.1z"/>
		<path fill="#055CC6" d="M-27.2-140.7c-8.9-2.1-17.2,0.2-23.4,5.3l-1.8-0.4c-22.6-5.2-45.2-4.9-66.3,0c11.4-5.1,23.6-8.8,36.1-10.8
			c0,0,0.1,0,0.1,0c3.7-0.6,7.4-1.1,11.2-1.4c0.2,0,0.4,0,0.6,0c0.8-0.1,1.5-0.1,2.3-0.2c0.3,0,0.6,0,1-0.1c0.7,0,1.4-0.1,2.2-0.1
			c0.4,0,0.7,0,1.1,0c0.7,0,1.4,0,2.1-0.1c0.3,0,0.7,0,1,0c1.2,0,2.5,0,3.7,0c0.5,0,1,0,1.5,0c0.6,0,1.1,0,1.7,0.1
			c0.6,0,1.1,0,1.7,0.1c0.5,0,1.1,0.1,1.6,0.1c0.6,0,1.2,0.1,1.8,0.1c0.5,0,1,0.1,1.5,0.1c0.7,0.1,1.4,0.1,2.1,0.2
			c0.4,0,0.8,0.1,1.2,0.1c1.1,0.1,2.2,0.2,3.3,0.4c0.4,0,0.7,0.1,1.1,0.1c0.8,0.1,1.6,0.2,2.4,0.3c0.4,0.1,0.9,0.1,1.3,0.2
			c0.7,0.1,1.5,0.2,2.2,0.4c0.4,0.1,0.8,0.1,1.3,0.2c0.8,0.1,1.6,0.3,2.3,0.4c0.4,0.1,0.7,0.1,1.1,0.2c1.1,0.2,2.3,0.5,3.4,0.7
			l9.6,2.2l-1.4,6C-20.4-138.4-23.7-139.9-27.2-140.7z"/>
		<path fill="#9AC7FC" d="M94.1-61.8c1.9,3.6,0.5,8-3.2,9.9c-3.6,1.9-8.1,0.5-9.9-3.2c-0.1-0.3-13.9-26.1-45.9-22.5l-1.9-14.6
			C66.9-96.1,87.7-74.1,94.1-61.8z"/>
		<path fill="#9AC7FC" d="M-82-46.9c-2.2,3.4-6.7,4.4-10.2,2.2c-3.4-2.2-4.4-6.7-2.2-10.2c7.5-11.7,30.2-31.5,63.3-24.5l-3.4,14.3
			C-65.5-71.4-81.3-48-82-46.9z"/>
		<path fill="#9AC7FC" d="M-94,78.3l-0.3,0c-8.7,1.2-16.8-4.9-18-13.6l-1.7-12.4c-1.2-8.7,4.9-16.8,13.6-18l0.3,0
			c8.7-1.2,16.8,4.9,18,13.6l1.7,12.4C-79.2,69-85.3,77.1-94,78.3z"/>
		<path fill="#9AC7FC" d="M60.6,69.9V57.4c0-8.8,7.2-16,16-16H77c8.8,0,16,7.2,16,16v12.5c0,8.8-7.2,16-16,16h-0.3
			C67.8,85.9,60.6,78.7,60.6,69.9z"/>
	</g>
</symbol>
<symbol  id="New_Symbol_1" viewBox="-269 -296 537.9 592">
	<path fill="#9AC7FC" d="M-52.5,218.8c-5.3-0.1-10.2-1.9-14.1-4.9l-0.7,61.8c-0.1,11.3-9.4,20.3-20.6,20.2l-160.9-1.7
		c-11.3-0.1-20.3-9.4-20.2-20.6l1.7-160.9c0.1-11.3,9.4-20.3,20.6-20.2l57.3,0.6c-2.7,3.9-4.4,7.8-3.8,12.9
		c1.8,13.6,12.4,24.1,26.2,23c14.4-1.1,21.6-7.1,24.5-21.8c1-5-0.2-9.6-2.7-13.6l59.4,0.6c11.3,0.1,20.3,9.4,20.2,20.6l-0.7,61.8
		c4-2.9,8.9-4.7,14.2-4.6c12.9,0.1,23.3,10.7,23.2,23.7C-28.9,208.5-39.5,218.9-52.5,218.8z"/>
	<path fill="#9AC7FC" d="M-75.4,15.8c3.3,0,6.4-0.6,9.3-1.6L-66.3,70c0,11.3-9.2,20.4-20.5,20.3l-61.6-0.3c2.8,3.9,4.5,8.7,4.5,13.9
		c-0.1,12.9-10.6,23.4-23.5,23.3c-12.9-0.1-23.4-10.6-23.3-23.5c0-5.2,1.7-10,4.6-13.8l-61.6-0.3c-11.3,0-20.4-9.2-20.3-20.5
		l0.7-160.9c0-11.3,9.2-20.4,20.5-20.3l160.9,0.7c11.3,0,20.4,9.2,20.3,20.5l-0.2,55.8c-2.9-1.1-6-1.7-9.2-1.7
		c-14.5-0.1-24.6,11.5-24.7,26.1C-99.9,3.8-89.9,15.8-75.4,15.8z"/>
	<path fill="#9AC7FC" d="M116.8,296H-44.1c-11.3,0-20.4-9.1-20.4-20.4v-57.8c4,2.4,8.7,3.8,13.7,3.8c14.6,0,24.3-10.7,24.3-25.3
		s-9.6-27.6-24.3-27.6c-5,0-9.7,1.4-13.7,3.8v-57.8c0-11.3,9.1-20.4,20.4-20.4h61.2c-2.7-3.8-4.3-8.5-4.3-13.5
		c0-12.9,10.5-23.4,23.4-23.4s23.4,10.5,23.4,23.4c0,5-1.6,9.7-4.3,13.5h61.5c11.3,0,20.4,9.1,20.4,20.4v160.9
		C137.2,286.9,128.1,296,116.8,296z"/>
	<path fill="#9AC7FC" d="M123.7,72.5L70.3,51.6c3.6-2.9,6.5-6.7,8.3-11.2c5.4-13.8-3.3-25.7-17.2-31.1C47.7,3.8,34,6.9,28.6,20.7
		c-1.8,4.6-2.2,9.4-1.5,13.9l-53.1-20.9c-10.5-4.1-15.7-16-11.5-26.4L-16-67.8c-3.3,0.2-6.6-0.3-9.9-1.6c-12-4.7-18-18.3-13.2-30.4
		c4.7-12,18.3-18,30.4-13.2c3.2,1.3,6,3.2,8.3,5.5l21.6-55.1c4.1-10.5,16-15.7,26.4-11.5l149.8,58.8c10.5,4.1,15.7,16,11.5,26.4
		L150.1,61C146,71.4,134.2,76.6,123.7,72.5z"/>
	<g>
		<path fill="#1972F5" d="M28.6,20.7c-1.8,4.6-2.2,9.4-1.5,13.9l-53.1-20.9c-10.5-4.1-15.7-16-11.5-26.4L-23-50.1
			C3.6-39.2,3.3-13,3.3-12.8C3.2-9.1,6-6.1,9.7-6c3.6,0.1,6.6-2.8,6.7-6.4c0.3-12.4-6.6-38.5-34.6-49.8l2.2-5.5
			c-3.3,0.2-6.6-0.3-9.9-1.6c-12-4.7-18-18.3-13.2-30.4c2.5-6.4,7.5-11.1,13.5-13.3l11.6,4.5C38.1-88.5,70.1-38.8,70.1,13.9
			c-2.5-1.9-5.4-3.5-8.6-4.7C47.7,3.8,34,6.9,28.6,20.7z"/>
		<path fill="#1972F5" d="M-193.1,105.9c1.8,13.6,12.4,24.1,26.2,23c14.4-1.1,21.6-7.1,24.5-21.8c1-5-0.2-9.6-2.7-13.6l59.4,0.6
			c11.3,0.1,20.3,9.4,20.2,20.6l-0.7,61.8c4-2.9,8.9-4.7,14.2-4.6c12.9,0.1,23.3,10.7,23.2,23.7c-0.1,12.9-10.7,23.3-23.7,23.2
			c-5.3-0.1-10.2-1.9-14.1-4.9l-0.1,10.5h-8c-72.4,0-131.2-58.7-131.2-131.2v-0.4l16.5,0.2C-192,97-193.8,100.9-193.1,105.9z
			 M-105.4,116.7c0-7.9-6.4-14.3-14.3-14.3h-0.3c-7.9,0-14.3,6.4-14.3,14.3v11.2c0,7.9,6.4,14.3,14.3,14.3h0.3
			c7.9,0,14.3-6.4,14.3-14.3V116.7z M-192.2,127.9c11.1,37.9,39.9,68.4,77.1,81.6c2.3,0.8,4.8-0.4,5.6-2.7c0.8-2.3-0.4-4.8-2.7-5.6
			c-34.6-12.3-61.4-40.6-71.7-75.8c-0.6-1.9-2.3-3.1-4.2-3.1c-0.4,0-0.8,0.1-1.2,0.2C-191.6,123.1-192.9,125.5-192.2,127.9z"/>
		<path fill="#1972F5" d="M-50.8,221.6c14.6,0,24.3-10.7,24.3-25.3s-9.6-27.6-24.3-27.6c-5,0-9.7,1.4-13.7,3.8v-57.8
			c0-11.3,9.1-20.4,20.4-20.4h61.2c-2.7-3.8-4.3-8.5-4.3-13.5c0-12.9,10.5-23.4,23.4-23.4c4,0,7.8,1,11.1,2.8
			c4.8,13.6,7.4,28.3,7.4,43.6v2.6c0,42.8-20.5,80.7-52.1,104.7C25.7,199.7,45,181.8,58,159.8c-22.8,38.7-64.9,64.6-113,64.6h-9.4
			v-6.6C-60.5,220.2-55.8,221.6-50.8,221.6z M-20.3,142.1c7.9,0,14.3-6.4,14.3-14.3v-11.2c0-7.9-6.4-14.3-14.3-14.3h-0.3
			c-7.9,0-14.3,6.4-14.3,14.3v11.2c0,7.9,6.4,14.3,14.3,14.3H-20.3z"/>
		<path fill="#1972F5" d="M-124.5-30.8c-10.5,4.3-20.3,9.9-29.2,16.7c17.4-8.5,37-13.3,57.7-13.3h1.6c-3.4,4.5-5.4,10.3-5.4,16.7
			c-0.1,14.5,9.9,26.5,24.5,26.6c3.3,0,6.4-0.6,9.3-1.6l0,3.1c-30.2,0.6-46,22.5-50.1,34.1c-1.2,3.4,0.6,7.2,4,8.4
			c3.4,1.2,7.2-0.6,8.4-4c0.4-1.1,9.5-24.7,37.7-25.4L-66.3,70c0,11.3-9.2,20.4-20.5,20.3l-61.6-0.3c2.8,3.9,4.5,8.7,4.5,13.9
			c-0.1,12.9-10.6,23.4-23.5,23.3c-12.9-0.1-23.4-10.6-23.3-23.5c0-5.2,1.7-10,4.6-13.8l-19.7-0.1C-205.5,35.3-172-11.3-124.5-30.8z
			"/>
		<path fill="#055CC6" d="M85.9,56.3l-0.5,1.2l-15.2-6c3.6-2.9,6.5-6.7,8.3-11.2c4.2-10.6-0.1-20.1-8.6-26.4
			c0-52.7-31.9-102.5-84.1-122.5l-11.6-4.5c5.2-2,11.2-2.1,16.8,0.1c3.2,1.3,6,3.2,8.3,5.5l3.4-8.7l7.7,3
			C78.2-87.2,112-11.3,85.9,56.3z"/>
		<path fill="#055CC6" d="M59.7,80.8c0,5-1.6,9.7-4.3,13.5h20.7c0,1.1,0,2.2-0.1,3.3c0,0.4,0,0.8,0,1.2c0,1.2-0.1,2.4-0.2,3.6
			c0,0.2,0,0.5,0,0.7c-0.1,1.4-0.2,2.8-0.4,4.2c0,0.3-0.1,0.7-0.1,1c-0.1,1.1-0.3,2.3-0.4,3.4c0,0.3-0.1,0.6-0.1,1
			c-0.2,1.4-0.4,2.8-0.7,4.1c0,0.2-0.1,0.4-0.1,0.6c-0.2,1.2-0.5,2.4-0.7,3.6c-0.1,0.3-0.1,0.6-0.2,1c-0.6,2.8-1.3,5.5-2.1,8.2
			c-0.1,0.3-0.2,0.6-0.2,0.8c-0.4,1.2-0.8,2.5-1.2,3.7c0,0.1-0.1,0.2-0.1,0.3c-0.5,1.4-0.9,2.7-1.4,4.1c-0.1,0.2-0.1,0.4-0.2,0.5
			c-0.5,1.2-0.9,2.4-1.4,3.6c-0.1,0.2-0.1,0.3-0.2,0.5c-1.1,2.7-2.3,5.3-3.6,7.9c-0.1,0.1-0.1,0.3-0.2,0.4c-1.3,2.6-2.7,5.2-4.2,7.7
			c0,0.1-0.1,0.1-0.1,0.2c-13,22-32.3,39.9-55.4,51.3c31.7-23.9,52.1-61.9,52.1-104.7v-2.6c0-15.3-2.6-29.9-7.4-43.6
			C54.7,64.1,59.7,71.9,59.7,80.8z"/>
		<path fill="#055CC6" d="M-75.1-36.8c-8.2,0-14.9,3.6-19.3,9.4H-96c-20.7,0-40.3,4.8-57.7,13.3c8.9-6.7,18.7-12.4,29.2-16.7
			c0,0,0.1,0,0.1,0c3.1-1.3,6.3-2.4,9.5-3.5c0.2-0.1,0.3-0.1,0.5-0.2c0.7-0.2,1.3-0.4,2-0.6c0.3-0.1,0.6-0.2,0.8-0.2
			c0.6-0.2,1.2-0.4,1.9-0.5c0.3-0.1,0.6-0.2,1-0.3c0.6-0.2,1.2-0.3,1.8-0.5c0.3-0.1,0.6-0.1,0.9-0.2c1.1-0.3,2.2-0.5,3.3-0.8
			c0.4-0.1,0.9-0.2,1.3-0.3c0.5-0.1,1-0.2,1.5-0.3c0.5-0.1,1-0.2,1.5-0.3c0.5-0.1,1-0.2,1.4-0.3c0.5-0.1,1.1-0.2,1.6-0.3
			c0.5-0.1,0.9-0.1,1.4-0.2c0.6-0.1,1.3-0.2,1.9-0.3c0.4,0,0.7-0.1,1.1-0.1c1-0.1,2-0.2,2.9-0.3c0.3,0,0.6-0.1,1-0.1
			c0.7-0.1,1.4-0.1,2.1-0.2c0.4,0,0.8-0.1,1.2-0.1c0.7,0,1.3-0.1,2-0.1c0.4,0,0.8,0,1.2-0.1c0.7,0,1.4-0.1,2.1-0.1c0.3,0,0.7,0,1,0
			c1,0,2.1,0,3.1,0h8.8l0,5.5C-68.8-36.2-71.9-36.8-75.1-36.8z"/>
		<path fill="#9AC7FC" d="M16.4-12.4C16.3-8.8,13.3-5.9,9.7-6C6-6.1,3.2-9.1,3.3-12.8C3.3-13,3.6-39.2-23-50.1l4.8-12.2
			C9.8-50.9,16.7-24.8,16.4-12.4z"/>
		<path fill="#9AC7FC" d="M-103.9,55.8c-1.2,3.4-5,5.2-8.4,4c-3.4-1.2-5.2-5-4-8.4c4.1-11.6,19.9-33.5,50.1-34.1l-0.1,13.1
			C-94.4,31.1-103.5,54.7-103.9,55.8z"/>
		<path fill="#9AC7FC" d="M-119.7,142.1h-0.3c-7.9,0-14.3-6.4-14.3-14.3v-11.2c0-7.9,6.4-14.3,14.3-14.3h0.3
			c7.9,0,14.3,6.4,14.3,14.3v11.2C-105.4,135.8-111.8,142.1-119.7,142.1z"/>
		<path fill="#9AC7FC" d="M-34.9,127.9v-11.2c0-7.9,6.4-14.3,14.3-14.3h0.3c7.9,0,14.3,6.4,14.3,14.3v11.2c0,7.9-6.4,14.3-14.3,14.3
			h-0.3C-28.5,142.1-34.9,135.8-34.9,127.9z"/>
	</g>
	<g>
		<path fill="#1972F5" d="M206.9-295.7c5.5-0.5,20.4-1.3,36.2,7.3c15.7,8.5,23.2,21.1,25.8,26c-5.3,10.1-10.6,20.3-15.9,30.4
			c-1,2.9-2.4,7.2-3.5,12.7c-1.7,8.6-1.6,14.6-1.8,19.9c-0.2,7.2-0.7,23.2-5.9,38.4c-4.1,11.8-6.9,17.1-10.8,20.9
			c-3.7,3.6-7.5,5.7-10.1,6.9c-1.2,0.2-3.5,0.6-6.3-0.2c-2.5-0.7-4.3-1.9-5.2-2.7c-1.7,1.6-4.7,3.9-9,4.8c-7.2,1.4-15-2-20.3-8.6
			c-1.2,0.9-7,4.8-14.7,3.6c-10.5-1.7-14.8-11.6-15.1-12.3c-2.3,2.4-5.6,6.2-8.8,11.3c-3.8,5.9-5.7,10.9-9.7,22.1
			c-2.6,7.2-5.5,15.7-8.6,25.3c-0.4,0.9-2.7,5.4-7.9,7c-6.3,2-11.6-2.1-12.7-3c-4.6-3.8-5.3-9.2-5.5-10.6c-0.4-2.7,0.3-6.3,1.6-13.5
			c0.4-2.4,0.8-4.3,1-4.8c1.4-6.5,7.5-22.9,17.1-44.1c-1.1-0.1-3.7-0.5-6.2-2.5c-3.2-2.5-4.1-5.9-4.3-6.9c1.5-9.3,4.5-13.9,6.9-16.5
			c0.6-0.6,1.8-1.7,2.9-3.7c2.3-4,2-8.1,1.9-10c-0.3-5.7-0.7-15.4,1.8-24c1.2-4.1,2.8-9.3,7.2-11.6c2.2-1.1,3.6-0.8,8.3-2.4
			c3-1.1,5.2-2.2,7.7-3.6c11.3-6.2,16.9-9.2,23-13.4c7.2-5,16.3-11.2,25.9-21.8C198.8-282.8,203.7-290.1,206.9-295.7z"/>
		<path fill="#055CC6" d="M150.4-150.1c4.1-4,8.1-8,12.2-12c-1.3,4.2-2.7,8.4-4,12.6c0.1,2,0.7,3.4,1.3,4.3c3,4.8,11,6.6,19.9,4.3
			c1.8-0.9,4.1-2.3,6.4-4.6c1.2-1.1,2.1-2.3,2.8-3.3c-0.4,2-1,4.2-2.1,6.5c-0.3,0.6-0.6,1.2-0.9,1.7c0.4,0.7,1,1.3,1.5,1.8
			c7.4,6.8,24.1-1,26.2-2.1c0.4,1.1,0.9,1.9,1.4,2.4c2.9,2.7,9.3,1.7,15.8-2.4c-0.6,1.1-3.1,5.1-8.1,6.8c-6.8,2.3-12.6-1.5-13.3-1.9
			c-1.7,1.6-4.5,3.7-8.2,4.6c-11.6,2.9-21.2-7.6-21.6-8.1c-1.9,1.5-4.9,3.4-8.8,3.8c-7.5,0.9-15.4-3.9-20-12.1L150.4-150.1z"/>
		<path fill="#055CC6" d="M118.1-196c0.7-5,1.5-9.3,2.1-12.4c1.7-9,2.7-11.5,4-14c1.2-2.1,3-5.2,6.6-7.2c3.1-1.7,5.9-1.8,7.5-1.9
			c4-0.3,6.8-1.7,20.7-10.9c9.9-6.5,14.9-9.8,20-13.4c9-6.3,12.4-9.1,18.9-11c2-0.6,6.5-1.7,12.5-1.6c4.1,0.1,12.9,0.4,21.7,6.4
			c8.1,5.6,11.5,12.9,12.8,15.8c1.4,3,3.3,7.6,3.2,13.6c-0.1,4.2-1.2,5.3-2.8,12.4c-1.4,6-1.8,10.6-2.2,15.2
			c-0.4,3.9-0.3,4.4-0.8,19c-0.2,6.6-0.4,10-0.5,12.4c-0.5,7.2-1.4,13-2,16.8c1.8-4.1,3.6-8.9,5-14.5c1.5-5.8,1.4-9.1,2.6-26.2
			c0.3-4.8,0.4-12,1.9-19.9c1.5-8.1,3.8-14.5,5.5-18.7c4.7-8.7,9.5-17.5,14.2-26.2c-2.2-4.1-5.8-9.9-11.7-15.6
			c-4.1-4-12.1-10.7-24-14.7c-11.2-3.8-20.8-3.5-26.3-3c-2.1,3.6-4.7,7.8-8.1,12.2c-2,2.6-5.7,7.3-10.8,12.5
			c-7.5,7.5-14.1,12.1-20.1,16.4c-9,6.3-16.2,10.1-21.3,12.7c-8,4.2-12,6.3-14.8,6.6c-1.6,0.2-4,0.3-6.3,1.9
			c-2.6,1.9-3.6,4.7-4.2,6.8c-2.4,8-3.1,16.6-3.4,21.3L118.1-196z"/>
		<path fill="#055CC6" d="M106.9-166.6c0.3,0.8,0.6,1.5,1.2,2.3c2.8,4.2,7.2,5,8.8,5.3c0.9-2.5,2.5-5,3.6-7.6
			c3.7-8.8,7.9-16.6,12.1-23.4c-2.5,2.7-5,5.6-7.6,8.5c-4.1,4.7-5.3,7.9-9.3,11c-2.5,1.9-5.1,2.7-6.7,3.3L106.9-166.6z"/>
		<path fill="#9AC7FC" d="M106.9-166.6c1.7-0.3,4.2-1,6.8-2.6c5.9-3.8,7.7-9.9,8.1-11.6c-1.9-2.5-3.7-5.1-5.6-7.6
			c-1.5,1.5-3.2,3.4-4.7,5.9c-3.2,5.1-4.4,10.1-4.9,13.3c0,0-0.1,1-0.1,1.3C106.5-167.6,106.9-166.6,106.9-166.6z"/>
		<path fill="#9AC7FC" d="M102.3-98.2c0,0.2,0,0.4,0,0.6c0.2,1.4,0.6,3.5,1.9,5.7c1,1.8,2.8,4.9,6,5.6c3,0.7,6.5-1,8.8-4.1
			c0.1-0.2,0.2-0.4,0.3-0.6c1.2-3.1,2.4-6.3,3.6-9.4c0.4-1.1-0.2-2.4-1.3-2.7c0,0-12.6-4.6-17-4.2
			C104.3-107.2,102.3-98.2,102.3-98.2z"/>
	</g>
</symbol>
<symbol  id="New_Symbol_2" viewBox="-311.1 -311.3 622.1 622.7">
	<path fill="#9AC7FC" d="M19.3,193.5c-8.1-0.1-15.6-2.9-21.5-7.5l-1,94.3c-0.2,17.2-14.3,31-31.5,30.8l-245.5-2.6
		c-17.2-0.2-31-14.3-30.8-31.5l2.6-245.5c0.2-17.2,14.3-31,31.5-30.8l87.4,0.9c-4.1,6-6.8,12-5.7,19.7c2.8,20.7,18.9,36.7,40,35.1
		c22-1.6,33-10.8,37.4-33.3c1.5-7.7-0.3-14.7-4.2-20.8l90.6,1c17.2,0.2,31,14.3,30.8,31.5l-1,94.3c6-4.5,13.6-7.1,21.7-7
		c19.7,0.2,35.6,16.4,35.3,36.1C55.2,177.9,39,193.7,19.3,193.5z"/>
	<path fill="#9AC7FC" d="M-15.6-116.1c5,0,9.7-0.9,14.1-2.5l-0.4,85.2C-2-16.3-16-2.4-33.2-2.5l-93.9-0.4c4.3,5.9,6.9,13.2,6.8,21.1
		c-0.1,19.7-16.2,35.7-35.9,35.6c-19.7-0.1-35.7-16.2-35.6-35.9c0-7.9,2.6-15.2,7-21.1l-93.9-0.4c-17.2-0.1-31.1-14.1-31-31.3
		l1.1-245.5c0.1-17.2,14.1-31.1,31.3-31l245.5,1.1c17.2,0.1,31.1,14.1,31,31.3l-0.4,85.2c-4.4-1.7-9.1-2.6-14.1-2.6
		c-22.2-0.1-37.6,17.6-37.7,39.8C-53.1-134.5-37.8-116.2-15.6-116.1z"/>
	<path fill="#9AC7FC" d="M277.6,311.3H32.1c-17.2,0-31.1-13.9-31.1-31.1v-88.1c6.1,3.7,13.2,5.8,20.9,5.8c22.3,0,37-16.4,37-38.7
		S44.1,117,21.8,117c-7.6,0-14.8,2.1-20.9,5.8V34.7c0-17.2,13.9-31.1,31.1-31.1h93.4c-4.1-5.8-6.6-12.9-6.6-20.6
		c0-19.7,16-35.7,35.7-35.7s35.7,16,35.7,35.7c0,7.7-2.4,14.8-6.6,20.6h93.8c17.2,0,31.1,13.9,31.1,31.1v245.5
		C308.7,297.4,294.8,311.3,277.6,311.3z"/>
	<path fill="#9AC7FC" d="M278.1,0.3l-87.5-0.6c3.6-6,5.6-13.1,5.7-20.6c0.1-22.7-18.8-34.7-41.5-34.9c-22.7-0.1-40.4,11.7-40.6,34.3
		c0,7.5,1.9,14.6,5.4,20.7L32.6-1.3C15.4-1.5,1.5-15.5,1.6-32.7L2.2-123c-4.5,2.1-9.6,3.2-14.9,3.1c-19.7-0.1-35.6-16.2-35.5-36
		c0.1-19.7,16.2-35.6,36-35.5c5.3,0,10.3,1.2,14.9,3.3l0.6-90.3c0.1-17.2,14.1-31,31.3-30.9l245.5,1.6c17.2,0.1,31,14.1,30.9,31.3
		l-1.6,245.5C309.3-13.5,295.3,0.4,278.1,0.3z"/>
	<g>
		<path fill="#1972F5" d="M114.3-21.4c0,7.5,1.9,14.6,5.4,20.7L32.6-1.3C15.4-1.5,1.5-15.5,1.6-32.7L2-93.9
			c43.8,0.9,57.7,38.3,57.8,38.7c1.9,5.2,7.6,8,12.8,6.1c5.2-1.9,7.9-7.6,6.1-12.8c-6.3-17.8-30.4-51.2-76.6-52l0.1-9
			c-4.5,2.1-9.6,3.2-14.9,3.1c-19.7-0.1-35.6-16.2-35.5-36c0.1-10.5,4.7-19.9,11.9-26.4h19c85.3,0,158.1,53.3,186.9,128.4
			c-4.6-1.3-9.6-1.9-14.8-2C132.2-55.9,114.4-44.1,114.3-21.4z"/>
		<path fill="#1972F5" d="M-195.3,21.3c2.8,20.7,18.9,36.7,40,35.1c22-1.6,33-10.8,37.4-33.3c1.5-7.7-0.3-14.7-4.2-20.8l90.6,1
			c17.2,0.2,31,14.3,30.8,31.5l-1,94.3c6-4.5,13.6-7.1,21.7-7c19.7,0.2,35.6,16.4,35.3,36.1c-0.2,19.7-16.4,35.6-36.1,35.3
			c-8.1-0.1-15.6-2.9-21.5-7.5l-0.2,16.1h-12.2c-110.5,0-200.1-89.6-200.1-200.1V1.4l25.2,0.3C-193.6,7.7-196.3,13.6-195.3,21.3z
			 M-61.5,37.8c0-12-9.8-21.8-21.8-21.8h-0.4c-12,0-21.8,9.8-21.8,21.8v17c0,12,9.8,21.8,21.8,21.8h0.4c12,0,21.8-9.8,21.8-21.8
			V37.8z M-194,54.8c16.9,57.8,60.9,104.3,117.7,124.5c3.5,1.2,7.3-0.6,8.5-4.1c1.2-3.5-0.6-7.3-4.1-8.5
			c-52.7-18.7-93.6-62-109.3-115.6c-0.9-2.9-3.5-4.8-6.4-4.8c-0.6,0-1.3,0.1-1.9,0.3C-193,47.5-195,51.2-194,54.8z"/>
		<path fill="#1972F5" d="M21.8,197.9c22.3,0,37-16.4,37-38.7S44.1,117,21.8,117c-7.6,0-14.8,2.1-20.9,5.8V34.7
			c0-17.2,13.9-31.1,31.1-31.1h93.4c-4.1-5.8-6.6-12.9-6.6-20.6c0-19.7,16-35.7,35.7-35.7c6.1,0,11.9,1.5,16.9,4.3
			c7.3,20.8,11.3,43.2,11.3,66.5v4c0,65.3-31.2,123.2-79.6,159.7c35.2-17.3,64.6-44.6,84.5-78.2c-34.8,59-99,98.6-172.5,98.6H0.9
			v-10C7,195.8,14.2,197.9,21.8,197.9z M68.3,76.6c12,0,21.8-9.8,21.8-21.8v-17c0-12-9.8-21.8-21.8-21.8h-0.4
			c-12,0-21.8,9.8-21.8,21.8v17c0,12,9.8,21.8,21.8,21.8H68.3z"/>
		<path fill="#1972F5" d="M-90.6-187.3c-16,6.6-31,15.2-44.6,25.5c26.6-13,56.4-20.4,88-20.4h2.5c-5.2,6.9-8.2,15.8-8.3,25.5
			c-0.1,22.2,15.1,40.5,37.3,40.6c5,0,9.7-0.9,14.1-2.5l0,4.7c-46.1,0.9-70.2,34.3-76.5,52c-1.9,5.2,0.9,10.9,6.1,12.8
			c5.2,1.9,10.9-0.9,12.8-6c0.6-1.7,14.4-37.7,57.5-38.7l-0.3,60.4C-2-16.3-16-2.4-33.2-2.5l-93.9-0.4c4.3,5.9,6.9,13.2,6.8,21.1
			c-0.1,19.7-16.2,35.7-35.9,35.6c-19.7-0.1-35.7-16.2-35.6-35.9c0-7.9,2.6-15.2,7-21.1l-30-0.1C-214.3-86.4-163.1-157.5-90.6-187.3
			z"/>
		<path fill="#055CC6" d="M215.5-2.1v2l-24.9-0.2c3.6-6,5.6-13.1,5.7-20.6c0.1-17.5-11.1-28.6-26.6-32.9
			C140.8-128.9,68-182.2-17.3-182.2h-19c6.4-5.7,14.8-9.1,24-9.1c5.3,0,10.3,1.2,14.9,3.3l0.1-14.3h12.6
			C125.9-202.2,215.5-112.6,215.5-2.1z"/>
		<path fill="#055CC6" d="M190.4-17.1c0,7.7-2.4,14.8-6.6,20.6h31.6c0,1.7,0,3.3-0.1,5c0,0.6,0,1.2-0.1,1.8
			c-0.1,1.8-0.2,3.7-0.3,5.5c0,0.4,0,0.8-0.1,1.1c-0.2,2.1-0.4,4.3-0.6,6.4c-0.1,0.5-0.1,1-0.2,1.5c-0.2,1.7-0.4,3.5-0.7,5.2
			c-0.1,0.5-0.1,1-0.2,1.5c-0.3,2.1-0.7,4.2-1,6.3c-0.1,0.3-0.1,0.6-0.2,0.9c-0.3,1.8-0.7,3.7-1.1,5.5c-0.1,0.5-0.2,1-0.3,1.5
			c-0.9,4.2-2,8.4-3.2,12.5c-0.1,0.4-0.3,0.9-0.4,1.3c-0.6,1.9-1.2,3.8-1.8,5.6c-0.1,0.2-0.1,0.3-0.2,0.5c-0.7,2.1-1.4,4.1-2.2,6.2
			c-0.1,0.3-0.2,0.6-0.3,0.8c-0.7,1.8-1.4,3.7-2.2,5.5c-0.1,0.2-0.2,0.5-0.3,0.7c-1.7,4.1-3.5,8.1-5.5,12.1
			c-0.1,0.2-0.2,0.4-0.3,0.6c-2,4-4.1,7.9-6.4,11.7c-0.1,0.1-0.1,0.2-0.2,0.3c-19.9,33.6-49.3,60.9-84.5,78.2
			c48.3-36.5,79.6-94.5,79.6-159.7v-4c0-23.3-4-45.7-11.3-66.5C182.8-42.5,190.4-30.7,190.4-17.1z"/>
		<path fill="#055CC6" d="M-15.3-196.5c-12.4-0.1-22.7,5.5-29.4,14.3h-2.5c-31.6,0-61.4,7.3-88,20.4c13.6-10.3,28.6-18.9,44.6-25.5
			c0.1,0,0.1,0,0.2-0.1c4.7-1.9,9.5-3.7,14.4-5.3c0.2-0.1,0.5-0.2,0.7-0.2c1-0.3,2-0.6,3-0.9c0.4-0.1,0.8-0.3,1.3-0.4
			c0.9-0.3,1.9-0.5,2.8-0.8c0.5-0.1,1-0.3,1.5-0.4c0.9-0.2,1.9-0.5,2.8-0.7c0.4-0.1,0.9-0.2,1.3-0.3c1.6-0.4,3.3-0.8,5-1.2
			c0.7-0.1,1.3-0.3,2-0.4c0.8-0.2,1.5-0.3,2.3-0.5c0.7-0.1,1.5-0.3,2.2-0.4c0.7-0.1,1.5-0.3,2.2-0.4c0.8-0.1,1.6-0.3,2.4-0.4
			c0.7-0.1,1.4-0.2,2.1-0.3c1-0.1,1.9-0.3,2.9-0.4c0.5-0.1,1.1-0.2,1.6-0.2c1.5-0.2,3-0.4,4.5-0.5c0.5,0,1-0.1,1.5-0.1
			c1.1-0.1,2.2-0.2,3.2-0.3c0.6,0,1.2-0.1,1.8-0.1c1-0.1,2-0.1,3-0.2c0.6,0,1.2-0.1,1.8-0.1c1.1-0.1,2.1-0.1,3.2-0.1
			c0.5,0,1,0,1.5,0c1.6,0,3.2-0.1,4.8-0.1h13.5l0,8.4C-5.6-195.5-10.3-196.4-15.3-196.5z"/>
		<path fill="#9AC7FC" d="M78.7-61.9c1.9,5.2-0.9,10.9-6.1,12.8c-5.2,1.9-11-0.9-12.8-6.1c-0.1-0.4-14-37.8-57.8-38.7l0.1-20.1
			C48.3-113.1,72.4-79.7,78.7-61.9z"/>
		<path fill="#9AC7FC" d="M-59.1-55.1c-1.9,5.2-7.6,7.9-12.8,6c-5.2-1.9-7.9-7.6-6.1-12.8c6.3-17.8,30.4-51.1,76.5-52l-0.1,20.1
			C-44.7-92.8-58.5-56.8-59.1-55.1z"/>
		<path fill="#9AC7FC" d="M-83.3,76.6h-0.4c-12,0-21.8-9.8-21.8-21.8v-17c0-12,9.8-21.8,21.8-21.8h0.4c12,0,21.8,9.8,21.8,21.8v17
			C-61.5,66.8-71.3,76.6-83.3,76.6z"/>
		<path fill="#9AC7FC" d="M46.1,54.8v-17c0-12,9.8-21.8,21.8-21.8h0.4c12,0,21.8,9.8,21.8,21.8v17c0,12-9.8,21.8-21.8,21.8h-0.4
			C55.8,76.6,46.1,66.8,46.1,54.8z"/>
	</g>
</symbol>
<g id="bg" display="none">
	<rect display="inline" fill="#F2F2F2" width="1024" height="1024"/>
</g>
<g id="step_1" display="none">
	<g id="x1" display="inline">
		<path fill="#9AC7FC" d="M530.6,317.8c-8.1,0.1-15.6,2.9-21.5,7.5l-1-94.3c-0.2-17.2-14.3-31-31.5-30.8L231,202.9
			c-17.2,0.2-31,14.3-30.8,31.5l2.6,245.5c0.2,17.2,14.3,31,31.5,30.8l87.4-0.9c-4.1-6-6.8-12-5.7-19.7c2.8-20.7,18.9-36.7,40-35.1
			c22,1.6,33,10.8,37.4,33.3c1.5,7.7-0.3,14.7-4.2,20.8l90.6-1c17.2-0.2,31-14.3,30.8-31.5l-1-94.3c6,4.5,13.6,7.1,21.7,7
			c19.7-0.2,35.6-16.4,35.3-36.1C566.5,333.4,550.3,317.6,530.6,317.8z"/>
		<path fill="#9AC7FC" d="M495.6,627.5c5,0,9.7,0.9,14.1,2.5l-0.4-85.2c-0.1-17.2-14.1-31.1-31.3-31l-93.9,0.4
			c4.3-5.9,6.9-13.2,6.8-21.1c-0.1-19.7-16.2-35.7-35.9-35.6c-19.7,0.1-35.7,16.2-35.6,35.9c0,7.9,2.6,15.2,7,21.1l-93.9,0.4
			c-17.2,0.1-31.1,14.1-31,31.3l1.1,245.5c0.1,17.2,14.1,31.1,31.3,31l245.5-1.1c17.2-0.1,31.1-14.1,31-31.3l-0.4-85.2
			c-4.4,1.7-9.1,2.6-14.1,2.6c-22.2,0.1-37.6-17.6-37.7-39.8C458.2,645.9,473.5,627.6,495.6,627.5z"/>
		<path fill="#9AC7FC" d="M788.9,200H543.4c-17.2,0-31.1,13.9-31.1,31.1v88.1c6.1-3.7,13.2-5.8,20.9-5.8c22.3,0,37,16.4,37,38.7
			s-14.7,42.2-37,42.2c-7.6,0-14.8-2.1-20.9-5.8v88.1c0,17.2,13.9,31.1,31.1,31.1h93.4c-4.1,5.8-6.6,12.9-6.6,20.6
			c0,19.7,16,35.7,35.7,35.7c19.7,0,35.7-16,35.7-35.7c0-7.7-2.4-14.8-6.6-20.6h93.8c17.2,0,31.1-13.9,31.1-31.1V231.1
			C820,213.9,806.1,200,788.9,200z"/>
		<path fill="#9AC7FC" d="M789.4,511.1l-87.5,0.6c3.6,6,5.6,13.1,5.7,20.6c0.1,22.7-18.8,34.7-41.5,34.9
			c-22.7,0.1-40.4-11.7-40.6-34.3c0-7.5,1.9-14.6,5.4-20.7l-87.1,0.6c-17.2,0.1-31,14.1-30.9,31.3l0.6,90.3
			c-4.5-2.1-9.6-3.2-14.9-3.1c-19.7,0.1-35.6,16.2-35.5,36c0.1,19.7,16.2,35.6,36,35.5c5.3,0,10.3-1.2,14.9-3.3l0.6,90.3
			c0.1,17.2,14.1,31,31.3,30.9l245.5-1.6c17.2-0.1,31-14.1,30.9-31.3L820.7,542C820.6,524.8,806.6,511,789.4,511.1z"/>
	</g>
	<g id="y1" display="inline">
		<g>
			<path fill="#1972F5" d="M625.5,532.8c0-7.5,1.9-14.6,5.4-20.7l-87.1,0.6c-17.2,0.1-31,14.1-30.9,31.3l0.4,61.2
				c43.8-0.9,57.7-38.3,57.8-38.7c1.9-5.2,7.6-8,12.8-6.1c5.2,1.9,7.9,7.6,6.1,12.8c-6.3,17.8-30.4,51.2-76.6,52l0.1,9
				c-4.5-2.1-9.6-3.2-14.9-3.1c-19.7,0.1-35.6,16.2-35.5,36c0.1,10.5,4.7,19.9,11.9,26.4h19c85.3,0,158.1-53.3,186.9-128.4
				c-4.6,1.3-9.6,1.9-14.8,2C643.5,567.2,625.7,555.4,625.5,532.8z"/>
			<path fill="#1972F5" d="M316,490c2.8-20.7,18.9-36.7,40-35.1c22,1.6,33,10.8,37.4,33.3c1.5,7.7-0.3,14.7-4.2,20.8l90.6-1
				c17.2-0.2,31-14.3,30.8-31.5l-1-94.3c6,4.5,13.6,7.1,21.7,7c19.7-0.2,35.6-16.4,35.3-36.1c-0.2-19.7-16.4-35.6-36.1-35.3
				c-8.1,0.1-15.6,2.9-21.5,7.5l-0.2-16.1h-12.2c-110.5,0-200.1,89.6-200.1,200.1v0.6l25.2-0.3C317.7,503.7,315,497.7,316,490z
				 M449.8,473.6c0,12-9.8,21.8-21.8,21.8h-0.4c-12,0-21.8-9.8-21.8-21.8v-17c0-12,9.8-21.8,21.8-21.8h0.4c12,0,21.8,9.8,21.8,21.8
				V473.6z M317.3,456.6c16.9-57.8,60.9-104.3,117.7-124.5c3.5-1.2,7.3,0.6,8.5,4.1c1.2,3.5-0.6,7.3-4.1,8.5
				c-52.7,18.7-93.6,62-109.3,115.6c-0.9,2.9-3.5,4.8-6.4,4.8c-0.6,0-1.3-0.1-1.9-0.3C318.3,463.8,316.3,460.1,317.3,456.6z"/>
			<path fill="#1972F5" d="M533.1,313.5c22.3,0,37,16.4,37,38.7s-14.7,42.2-37,42.2c-7.6,0-14.8-2.1-20.9-5.8v88.1
				c0,17.2,13.9,31.1,31.1,31.1h93.4c-4.1,5.8-6.6,12.9-6.6,20.6c0,19.7,16,35.7,35.7,35.7c6.1,0,11.9-1.5,16.9-4.3
				c7.3-20.8,11.3-43.2,11.3-66.5v-4c0-65.3-31.2-123.2-79.6-159.7c35.2,17.3,64.6,44.6,84.5,78.2c-34.8-59-99-98.6-172.5-98.6
				h-14.4v10C518.3,315.6,525.4,313.5,533.1,313.5z M579.6,434.8c12,0,21.8,9.8,21.8,21.8v17c0,12-9.8,21.8-21.8,21.8h-0.4
				c-12,0-21.8-9.8-21.8-21.8v-17c0-12,9.8-21.8,21.8-21.8H579.6z"/>
			<path fill="#1972F5" d="M420.7,698.6c-16-6.6-31-15.2-44.6-25.5c26.6,13,56.4,20.4,88,20.4h2.5c-5.2-6.9-8.2-15.8-8.3-25.5
				c-0.1-22.2,15.1-40.5,37.3-40.6c5,0,9.7,0.9,14.1,2.5l0-4.7c-46.1-0.9-70.2-34.3-76.5-52c-1.9-5.2,0.9-10.9,6.1-12.8
				c5.2-1.9,10.9,0.9,12.8,6c0.6,1.7,14.4,37.7,57.5,38.7l-0.3-60.4c-0.1-17.2-14.1-31.1-31.3-31l-93.9,0.4
				c4.3-5.9,6.9-13.2,6.8-21.1c-0.1-19.7-16.2-35.7-35.9-35.6c-19.7,0.1-35.7,16.2-35.6,35.9c0,7.9,2.6,15.2,7,21.1l-30,0.1
				C297,597.7,348.2,668.8,420.7,698.6z"/>
			<path fill="#055CC6" d="M726.8,513.5v-2l-24.9,0.2c3.6,6,5.6,13.1,5.7,20.6c0.1,17.5-11.1,28.6-26.6,32.9
				C652.1,640.2,579.3,693.5,494,693.5h-19c6.4,5.7,14.8,9.1,24,9.1c5.3,0,10.3-1.2,14.9-3.3l0.1,14.3h12.6
				C637.2,713.6,726.8,624,726.8,513.5z"/>
			<path fill="#055CC6" d="M701.7,528.4c0-7.7-2.4-14.8-6.6-20.6h31.6c0-1.7,0-3.3-0.1-5c0-0.6,0-1.2-0.1-1.8
				c-0.1-1.8-0.2-3.7-0.3-5.5c0-0.4,0-0.8-0.1-1.1c-0.2-2.1-0.4-4.3-0.6-6.4c-0.1-0.5-0.1-1-0.2-1.5c-0.2-1.7-0.4-3.5-0.7-5.2
				c-0.1-0.5-0.1-1-0.2-1.5c-0.3-2.1-0.7-4.2-1-6.3c-0.1-0.3-0.1-0.6-0.2-0.9c-0.3-1.8-0.7-3.7-1.1-5.5c-0.1-0.5-0.2-1-0.3-1.5
				c-0.9-4.2-2-8.4-3.2-12.5c-0.1-0.4-0.3-0.9-0.4-1.3c-0.6-1.9-1.2-3.8-1.8-5.6c-0.1-0.2-0.1-0.3-0.2-0.5c-0.7-2.1-1.4-4.1-2.2-6.2
				c-0.1-0.3-0.2-0.6-0.3-0.8c-0.7-1.8-1.4-3.7-2.2-5.5c-0.1-0.2-0.2-0.5-0.3-0.7c-1.7-4.1-3.5-8.1-5.5-12.1
				c-0.1-0.2-0.2-0.4-0.3-0.6c-2-4-4.1-7.9-6.4-11.7c-0.1-0.1-0.1-0.2-0.2-0.3c-19.9-33.6-49.3-60.9-84.5-78.2
				c48.3,36.5,79.6,94.5,79.6,159.7v4c0,23.3-4,45.7-11.3,66.5C694,553.8,701.7,542,701.7,528.4z"/>
			<path fill="#055CC6" d="M496,707.8c-12.4,0.1-22.7-5.5-29.4-14.3h-2.5c-31.6,0-61.4-7.3-88-20.4c13.6,10.3,28.6,18.9,44.6,25.5
				c0.1,0,0.1,0,0.2,0.1c4.7,1.9,9.5,3.7,14.4,5.3c0.2,0.1,0.5,0.2,0.7,0.2c1,0.3,2,0.6,3,0.9c0.4,0.1,0.8,0.3,1.3,0.4
				c0.9,0.3,1.9,0.5,2.8,0.8c0.5,0.1,1,0.3,1.5,0.4c0.9,0.3,1.9,0.5,2.8,0.7c0.4,0.1,0.9,0.2,1.3,0.3c1.6,0.4,3.3,0.8,5,1.2
				c0.7,0.1,1.3,0.3,2,0.4c0.8,0.2,1.5,0.3,2.3,0.5c0.7,0.1,1.5,0.3,2.2,0.4c0.7,0.1,1.5,0.3,2.2,0.4c0.8,0.1,1.6,0.3,2.4,0.4
				c0.7,0.1,1.4,0.2,2.1,0.3c1,0.1,1.9,0.3,2.9,0.4c0.5,0.1,1.1,0.2,1.6,0.2c1.5,0.2,3,0.4,4.5,0.5c0.5,0,1,0.1,1.5,0.1
				c1.1,0.1,2.2,0.2,3.2,0.3c0.6,0,1.2,0.1,1.8,0.1c1,0.1,2,0.1,3,0.2c0.6,0,1.2,0.1,1.8,0.1c1.1,0.1,2.1,0.1,3.2,0.1
				c0.5,0,1,0,1.5,0c1.6,0,3.2,0.1,4.8,0.1h13.5l0-8.4C505.7,706.9,501,707.8,496,707.8z"/>
			<path fill="#9AC7FC" d="M590,573.2c1.9-5.2-0.9-10.9-6.1-12.8c-5.2-1.9-11,0.9-12.8,6.1c-0.1,0.4-14,37.8-57.8,38.7l0.1,20.1
				C559.6,624.4,583.7,591,590,573.2z"/>
			<path fill="#9AC7FC" d="M452.1,566.5c-1.9-5.2-7.6-7.9-12.8-6c-5.2,1.9-7.9,7.6-6.1,12.8c6.3,17.8,30.4,51.1,76.5,52l-0.1-20.1
				C466.6,604.1,452.8,568.2,452.1,566.5z"/>
			<path fill="#9AC7FC" d="M428,434.8h-0.4c-12,0-21.8,9.8-21.8,21.8v17c0,12,9.8,21.8,21.8,21.8h0.4c12,0,21.8-9.8,21.8-21.8v-17
				C449.8,444.5,440,434.8,428,434.8z"/>
			<path fill="#9AC7FC" d="M557.4,456.6v17c0,12,9.8,21.8,21.8,21.8h0.4c12,0,21.8-9.8,21.8-21.8v-17c0-12-9.8-21.8-21.8-21.8h-0.4
				C567.1,434.8,557.4,444.5,557.4,456.6z"/>
		</g>
	</g>
</g>
<g id="step_2" display="none">
	<g id="x2" display="inline">
		<path fill="#9AC7FC" d="M458.7,293.2c-5.3,0.1-10.2,1.9-14.1,4.9l-0.7-61.8c-0.1-11.3-9.4-20.3-20.6-20.2l-160.9,1.7
			c-11.3,0.1-20.3,9.4-20.2,20.6l1.7,160.9c0.1,11.3,9.4,20.3,20.6,20.2l57.3-0.6c-2.7-3.9-4.4-7.8-3.8-12.9
			c1.8-13.6,12.4-24.1,26.2-23c14.4,1.1,21.6,7.1,24.5,21.8c1,5-0.2,9.6-2.7,13.6l59.4-0.6c11.3-0.1,20.3-9.4,20.2-20.6l-0.7-61.8
			c4,2.9,8.9,4.7,14.2,4.6c12.9-0.1,23.3-10.7,23.2-23.7C482.2,303.5,471.6,293.1,458.7,293.2z"/>
		<path fill="#9AC7FC" d="M435.8,496.2c3.3,0,6.4,0.6,9.3,1.6l-0.2-55.8c0-11.3-9.2-20.4-20.5-20.3l-61.6,0.3
			c2.8-3.9,4.5-8.7,4.5-13.9c-0.1-12.9-10.6-23.4-23.5-23.3c-12.9,0.1-23.4,10.6-23.3,23.5c0,5.2,1.7,10,4.6,13.8l-61.6,0.3
			c-11.3,0-20.4,9.2-20.3,20.5l0.7,160.9c0,11.3,9.2,20.4,20.5,20.3l160.9-0.7c11.3,0,20.4-9.2,20.3-20.5l-0.2-55.8
			c-2.9,1.1-6,1.7-9.2,1.7c-14.5,0.1-24.6-11.5-24.7-26.1C411.3,508.2,421.3,496.2,435.8,496.2z"/>
		<path fill="#9AC7FC" d="M628,216H467.1c-11.3,0-20.4,9.1-20.4,20.4v57.8c4-2.4,8.7-3.8,13.7-3.8c14.6,0,24.3,10.7,24.3,25.3
			s-9.6,27.6-24.3,27.6c-5,0-9.7-1.4-13.7-3.8v57.8c0,11.3,9.1,20.4,20.4,20.4h61.2c-2.7,3.8-4.3,8.5-4.3,13.5
			c0,12.9,10.5,23.4,23.4,23.4c12.9,0,23.4-10.5,23.4-23.4c0-5-1.6-9.7-4.3-13.5H628c11.3,0,20.4-9.1,20.4-20.4V236.4
			C648.4,225.1,639.3,216,628,216z"/>
		<path fill="#9AC7FC" d="M634.9,439.5l-53.4,20.9c3.6,2.9,6.5,6.7,8.3,11.2c5.4,13.8-3.3,25.7-17.2,31.1
			c-13.8,5.4-27.5,2.4-32.9-11.4c-1.8-4.6-2.2-9.4-1.5-13.9l-53.1,20.9c-10.5,4.1-15.7,16-11.5,26.4l21.6,55.1
			c-3.3-0.2-6.6,0.3-9.9,1.6c-12,4.7-18,18.3-13.2,30.4c4.7,12,18.3,18,30.4,13.2c3.2-1.3,6-3.2,8.3-5.5l21.6,55.1
			c4.1,10.5,16,15.7,26.4,11.5l149.8-58.8c10.5-4.1,15.7-16,11.5-26.4L661.3,451C657.2,440.6,645.4,435.4,634.9,439.5z"/>
	</g>
	<g id="y2" display="inline">
		<g>
			<path fill="#1972F5" d="M539.8,491.3c-1.8-4.6-2.2-9.4-1.5-13.9l-53.1,20.9c-10.5,4.1-15.7,16-11.5,26.4l14.6,37.3
				c26.6-10.9,26.3-37,26.3-37.3c-0.1-3.6,2.8-6.7,6.4-6.7c3.6-0.1,6.6,2.8,6.7,6.4c0.3,12.4-6.6,38.5-34.6,49.8l2.2,5.5
				c-3.3-0.2-6.6,0.3-9.9,1.6c-12,4.7-18,18.3-13.2,30.4c2.5,6.4,7.5,11.1,13.5,13.3l11.6-4.5c52.2-20.1,84.1-69.8,84.1-122.5
				c-2.5,1.9-5.4,3.5-8.6,4.7C558.8,508.2,545.2,505.1,539.8,491.3z"/>
			<path fill="#1972F5" d="M318.1,406.1c1.8-13.6,12.4-24.1,26.2-23c14.4,1.1,21.6,7.1,24.5,21.8c1,5-0.2,9.6-2.7,13.6l59.4-0.6
				c11.3-0.1,20.3-9.4,20.2-20.6l-0.7-61.8c4,2.9,8.9,4.7,14.2,4.6c12.9-0.1,23.3-10.7,23.2-23.7c-0.1-12.9-10.7-23.3-23.7-23.2
				c-5.3,0.1-10.2,1.9-14.1,4.9l-0.1-10.5h-8c-72.4,0-131.2,58.7-131.2,131.2v0.4l16.5-0.2C319.2,415,317.4,411.1,318.1,406.1z
				 M405.8,395.3c0,7.9-6.4,14.3-14.3,14.3h-0.3c-7.9,0-14.3-6.4-14.3-14.3v-11.2c0-7.9,6.4-14.3,14.3-14.3h0.3
				c7.9,0,14.3,6.4,14.3,14.3V395.3z M319,384.1c11.1-37.9,39.9-68.4,77.1-81.6c2.3-0.8,4.8,0.4,5.6,2.7c0.8,2.3-0.4,4.8-2.7,5.6
				c-34.6,12.3-61.4,40.6-71.7,75.8c-0.6,1.9-2.3,3.1-4.2,3.1c-0.4,0-0.8-0.1-1.2-0.2C319.6,388.9,318.3,386.5,319,384.1z"/>
			<path fill="#1972F5" d="M460.4,290.4c14.6,0,24.3,10.7,24.3,25.3c0,14.6-9.6,27.6-24.3,27.6c-5,0-9.7-1.4-13.7-3.8v57.8
				c0,11.3,9.1,20.4,20.4,20.4h61.2c-2.7,3.8-4.3,8.5-4.3,13.5c0,12.9,10.5,23.4,23.4,23.4c4,0,7.8-1,11.1-2.8
				c4.8-13.6,7.4-28.3,7.4-43.6v-2.6c0-42.8-20.5-80.7-52.1-104.7c23.1,11.3,42.4,29.2,55.4,51.3c-22.8-38.7-64.9-64.6-113-64.6
				h-9.4v6.6C450.7,291.8,455.4,290.4,460.4,290.4z M490.8,369.9c7.9,0,14.3,6.4,14.3,14.3v11.2c0,7.9-6.4,14.3-14.3,14.3h-0.3
				c-7.9,0-14.3-6.4-14.3-14.3v-11.2c0-7.9,6.4-14.3,14.3-14.3H490.8z"/>
			<path fill="#1972F5" d="M386.7,542.8c-10.5-4.3-20.3-9.9-29.2-16.7c17.4,8.5,37,13.3,57.7,13.3h1.6c-3.4-4.5-5.4-10.3-5.4-16.7
				c-0.1-14.5,9.9-26.5,24.5-26.6c3.3,0,6.4,0.6,9.3,1.6l0-3.1c-30.2-0.6-46-22.5-50.1-34.1c-1.2-3.4,0.6-7.2,4-8.4
				c3.4-1.2,7.2,0.6,8.4,4c0.4,1.1,9.5,24.7,37.7,25.4l-0.2-39.6c0-11.3-9.2-20.4-20.5-20.3l-61.6,0.3c2.8-3.9,4.5-8.7,4.5-13.9
				c-0.1-12.9-10.6-23.4-23.5-23.3c-12.9,0.1-23.4,10.6-23.3,23.5c0,5.2,1.7,10,4.6,13.8l-19.7,0.1
				C305.7,476.7,339.2,523.3,386.7,542.8z"/>
			<path fill="#055CC6" d="M597.1,455.7l-0.5-1.2l-15.2,6c3.6,2.9,6.5,6.7,8.3,11.2c4.2,10.6-0.1,20.1-8.6,26.4
				c0,52.7-31.9,102.5-84.1,122.5l-11.6,4.5c5.2,2,11.2,2.1,16.8-0.1c3.2-1.3,6-3.2,8.3-5.5l3.4,8.7l7.7-3
				C589.4,599.2,623.1,523.3,597.1,455.7z"/>
			<path fill="#055CC6" d="M570.8,431.2c0-5-1.6-9.7-4.3-13.5h20.7c0-1.1,0-2.2-0.1-3.3c0-0.4,0-0.8,0-1.2c0-1.2-0.1-2.4-0.2-3.6
				c0-0.2,0-0.5,0-0.7c-0.1-1.4-0.2-2.8-0.4-4.2c0-0.3-0.1-0.7-0.1-1c-0.1-1.1-0.3-2.3-0.4-3.4c0-0.3-0.1-0.6-0.1-1
				c-0.2-1.4-0.4-2.8-0.7-4.1c0-0.2-0.1-0.4-0.1-0.6c-0.2-1.2-0.5-2.4-0.7-3.6c-0.1-0.3-0.1-0.6-0.2-1c-0.6-2.8-1.3-5.5-2.1-8.2
				c-0.1-0.3-0.2-0.6-0.2-0.8c-0.4-1.2-0.8-2.5-1.2-3.7c0-0.1-0.1-0.2-0.1-0.3c-0.5-1.4-0.9-2.7-1.4-4.1c-0.1-0.2-0.1-0.4-0.2-0.5
				c-0.5-1.2-0.9-2.4-1.4-3.6c-0.1-0.2-0.1-0.3-0.2-0.5c-1.1-2.7-2.3-5.3-3.6-7.9c-0.1-0.1-0.1-0.3-0.2-0.4
				c-1.3-2.6-2.7-5.2-4.2-7.7c0-0.1-0.1-0.1-0.1-0.2c-13-22-32.3-39.9-55.4-51.3c31.7,23.9,52.1,61.9,52.1,104.7v2.6
				c0,15.3-2.6,29.9-7.4,43.6C565.9,447.9,570.8,440.1,570.8,431.2z"/>
			<path fill="#055CC6" d="M436.1,548.8c-8.2,0-14.9-3.6-19.3-9.4h-1.6c-20.7,0-40.3-4.8-57.7-13.3c8.9,6.7,18.7,12.4,29.2,16.7
				c0,0,0.1,0,0.1,0c3.1,1.3,6.3,2.4,9.5,3.5c0.2,0.1,0.3,0.1,0.5,0.2c0.7,0.2,1.3,0.4,2,0.6c0.3,0.1,0.6,0.2,0.8,0.2
				c0.6,0.2,1.2,0.4,1.9,0.5c0.3,0.1,0.6,0.2,1,0.3c0.6,0.2,1.2,0.3,1.8,0.5c0.3,0.1,0.6,0.1,0.9,0.2c1.1,0.3,2.2,0.5,3.3,0.8
				c0.4,0.1,0.9,0.2,1.3,0.3c0.5,0.1,1,0.2,1.5,0.3c0.5,0.1,1,0.2,1.5,0.3c0.5,0.1,1,0.2,1.4,0.3c0.5,0.1,1.1,0.2,1.6,0.3
				c0.5,0.1,0.9,0.1,1.4,0.2c0.6,0.1,1.3,0.2,1.9,0.3c0.4,0,0.7,0.1,1.1,0.1c1,0.1,2,0.2,2.9,0.3c0.3,0,0.6,0.1,1,0.1
				c0.7,0.1,1.4,0.1,2.1,0.2c0.4,0,0.8,0.1,1.2,0.1c0.7,0,1.3,0.1,2,0.1c0.4,0,0.8,0,1.2,0.1c0.7,0,1.4,0.1,2.1,0.1c0.3,0,0.7,0,1,0
				c1,0,2.1,0,3.1,0h8.8l0-5.5C442.4,548.2,439.3,548.8,436.1,548.8z"/>
			<path fill="#9AC7FC" d="M527.6,524.4c-0.1-3.6-3.1-6.5-6.7-6.4c-3.6,0.1-6.5,3.1-6.4,6.7c0,0.3,0.3,26.4-26.3,37.3l4.8,12.2
				C521,562.9,527.9,536.8,527.6,524.4z"/>
			<path fill="#9AC7FC" d="M407.3,456.2c-1.2-3.4-5-5.2-8.4-4c-3.4,1.2-5.2,5-4,8.4c4.1,11.6,19.9,33.5,50.1,34.1l-0.1-13.1
				C416.8,480.9,407.7,457.3,407.3,456.2z"/>
			<path fill="#9AC7FC" d="M391.5,369.9h-0.3c-7.9,0-14.3,6.4-14.3,14.3v11.2c0,7.9,6.4,14.3,14.3,14.3h0.3
				c7.9,0,14.3-6.4,14.3-14.3v-11.2C405.8,376.3,399.4,369.9,391.5,369.9z"/>
			<path fill="#9AC7FC" d="M476.3,384.1v11.2c0,7.9,6.4,14.3,14.3,14.3h0.3c7.9,0,14.3-6.4,14.3-14.3v-11.2
				c0-7.9-6.4-14.3-14.3-14.3h-0.3C482.7,369.9,476.3,376.3,476.3,384.1z"/>
		</g>
	</g>
	<g id="z2" display="inline">
		<g>
			<path fill="#1972F5" d="M718.1,807.7c5.5,0.5,20.4,1.3,36.2-7.3c15.7-8.5,23.2-21.1,25.8-26c-5.3-10.1-10.6-20.3-15.9-30.4
				c-1-2.9-2.4-7.2-3.5-12.7c-1.7-8.6-1.6-14.6-1.8-19.9c-0.2-7.2-0.7-23.2-5.9-38.4c-4.1-11.8-6.9-17.1-10.8-20.9
				c-3.7-3.6-7.5-5.7-10.1-6.9c-1.2-0.2-3.5-0.6-6.3,0.2c-2.5,0.7-4.3,1.9-5.2,2.7c-1.7-1.6-4.7-3.9-9-4.8c-7.2-1.4-15,2-20.3,8.6
				c-1.2-0.9-7-4.8-14.7-3.6c-10.5,1.7-14.8,11.6-15.1,12.3c-2.3-2.4-5.6-6.2-8.8-11.3c-3.8-5.9-5.7-10.9-9.7-22.1
				c-2.6-7.2-5.5-15.7-8.6-25.3c-0.4-0.9-2.7-5.4-7.9-7c-6.3-2-11.6,2.1-12.7,3c-4.6,3.8-5.3,9.2-5.5,10.6
				c-0.4,2.7,0.3,6.3,1.6,13.5c0.4,2.4,0.8,4.3,1,4.8c1.4,6.5,7.5,22.9,17.1,44.1c-1.1,0.1-3.7,0.5-6.2,2.5
				c-3.2,2.5-4.1,5.9-4.3,6.9c1.5,9.3,4.5,13.9,6.9,16.5c0.6,0.6,1.8,1.7,2.9,3.7c2.3,4,2,8.1,1.9,10c-0.3,5.7-0.7,15.4,1.8,24
				c1.2,4.1,2.8,9.3,7.2,11.6c2.2,1.1,3.6,0.8,8.3,2.4c3,1.1,5.2,2.2,7.7,3.6c11.3,6.2,16.9,9.2,23,13.4c7.2,5,16.3,11.2,25.9,21.8
				C710,794.8,714.8,802.1,718.1,807.7z"/>
			<path fill="#055CC6" d="M661.6,662.1c4.1,4,8.1,8,12.2,12c-1.3-4.2-2.7-8.4-4-12.6c0.1-2,0.7-3.4,1.3-4.3c3-4.8,11-6.6,19.9-4.3
				c1.8,0.9,4.1,2.3,6.4,4.6c1.2,1.1,2.1,2.3,2.8,3.3c-0.4-2-1-4.2-2.1-6.5c-0.3-0.6-0.6-1.2-0.9-1.7c0.4-0.7,1-1.3,1.5-1.8
				c7.4-6.8,24.1,1,26.2,2.1c0.4-1.1,0.9-1.9,1.4-2.4c2.9-2.7,9.3-1.7,15.8,2.4c-0.6-1.1-3.1-5.1-8.1-6.8
				c-6.8-2.3-12.6,1.5-13.3,1.9c-1.7-1.6-4.5-3.7-8.2-4.6c-11.6-2.9-21.2,7.6-21.6,8.1c-1.9-1.5-4.9-3.4-8.8-3.8
				c-7.5-0.9-15.4,3.9-20,12.1L661.6,662.1z"/>
			<path fill="#055CC6" d="M629.3,708c0.7,5,1.5,9.3,2.1,12.4c1.7,9,2.7,11.5,4,14c1.2,2.1,3,5.2,6.6,7.2c3.1,1.7,5.9,1.8,7.5,1.9
				c4,0.3,6.8,1.7,20.7,10.9c9.9,6.5,14.9,9.8,20,13.4c9,6.3,12.4,9.1,18.9,11c2,0.6,6.5,1.7,12.5,1.6c4.1-0.1,12.9-0.4,21.7-6.4
				c8.1-5.6,11.5-12.9,12.8-15.8c1.4-3,3.3-7.6,3.2-13.6c-0.1-4.2-1.2-5.3-2.8-12.4c-1.4-6-1.8-10.6-2.2-15.2
				c-0.4-3.9-0.3-4.4-0.8-19c-0.2-6.6-0.4-10-0.5-12.4c-0.5-7.2-1.4-13-2-16.8c1.8,4.1,3.6,8.9,5,14.5c1.5,5.8,1.4,9.1,2.6,26.2
				c0.3,4.8,0.4,12,1.9,19.9c1.5,8.1,3.8,14.5,5.5,18.7c4.7,8.7,9.5,17.5,14.2,26.2c-2.2,4.1-5.8,9.9-11.7,15.6
				c-4.1,4-12.1,10.7-24,14.7c-11.2,3.8-20.8,3.5-26.3,3c-2.1-3.6-4.7-7.8-8.1-12.2c-2-2.6-5.7-7.3-10.8-12.5
				c-7.5-7.5-14.1-12.1-20.1-16.4c-9-6.3-16.2-10.1-21.3-12.7c-8-4.2-12-6.3-14.8-6.6c-1.6-0.2-4-0.3-6.3-1.9
				c-2.6-1.9-3.6-4.7-4.2-6.8c-2.4-8-3.1-16.6-3.4-21.3L629.3,708z"/>
			<path fill="#055CC6" d="M618.1,678.6c0.3-0.8,0.6-1.5,1.2-2.3c2.8-4.2,7.2-5,8.8-5.3c0.9,2.5,2.5,5,3.6,7.6
				c3.7,8.8,7.9,16.6,12.1,23.4c-2.5-2.7-5-5.6-7.6-8.5c-4.1-4.7-5.3-7.9-9.3-11c-2.5-1.9-5.1-2.7-6.7-3.3L618.1,678.6z"/>
			<path fill="#9AC7FC" d="M618.1,678.6c1.7,0.3,4.2,1,6.8,2.6c5.9,3.8,7.7,9.9,8.1,11.6c-1.9,2.5-3.7,5.1-5.6,7.6
				c-1.5-1.5-3.2-3.4-4.7-5.9c-3.2-5.1-4.4-10.1-4.9-13.3c0,0-0.1-1-0.1-1.3C617.7,679.6,618.1,678.6,618.1,678.6z"/>
			<path fill="#9AC7FC" d="M613.5,610.2c0-0.2,0-0.4,0-0.6c0.2-1.4,0.6-3.5,1.9-5.7c1-1.8,2.8-4.9,6-5.6c3-0.7,6.5,1,8.8,4.1
				c0.1,0.2,0.2,0.4,0.3,0.6c1.2,3.1,2.4,6.3,3.6,9.4c0.4,1.1-0.2,2.4-1.3,2.7c0,0-12.6,4.6-17,4.2
				C615.5,619.2,613.5,610.2,613.5,610.2z"/>
		</g>
	</g>
</g>
<g id="step_3" display="none">
	<g id="x3" display="inline">
		<path fill="#9AC7FC" d="M505,357.1c-5.9-0.8-11.6,0.5-16.4,3.3l8.8-68.7c1.6-12.5-7.3-24-19.8-25.6l-178.8-22.8
			c-12.5-1.6-24,7.3-25.6,19.8l-22.8,178.8c-1.6,12.5,7.3,24,19.8,25.6l63.7,8.1c-2.3-4.8-3.7-9.4-2.2-14.9
			c4.1-14.8,17.4-24.8,32.7-21.5c15.8,3.4,22.9,11.2,23.8,28c0.3,5.7-1.7,10.7-5.1,14.7l66,8.4c12.5,1.6,24-7.3,25.6-19.8l8.8-68.7
			c3.9,3.9,9.1,6.6,15.1,7.3c14.4,1.8,27.5-8.3,29.3-22.7C529.6,372,519.4,358.9,505,357.1z"/>
		<path fill="#9AC7FC" d="M471.9,593.4c3.6-0.8,7.1-1,10.5-0.6L468,532c-2.9-12.3-15.2-19.9-27.5-17l-67.1,15.9
			c2.1-5,2.7-10.6,1.4-16.3c-3.3-14.1-17.5-22.8-31.6-19.5c-14.1,3.3-22.8,17.5-19.5,31.6c1.3,5.6,4.4,10.4,8.5,13.9l-67.1,15.9
			c-12.3,2.9-19.9,15.2-17,27.5l41.5,175.4c2.9,12.3,15.2,19.9,27.5,17l175.4-41.5c12.3-2.9,19.9-15.2,17-27.5l-14.4-60.8
			c-2.9,1.9-6.1,3.4-9.7,4.2c-15.8,3.7-29.8-6.4-33.5-22.2C448.2,612.7,456.1,597.1,471.9,593.4z"/>
		<path fill="#9AC7FC" d="M743.3,251.8H563.1c-12.6,0-22.9,10.2-22.9,22.9v64.7c4.5-2.7,9.7-4.2,15.3-4.2c16.4,0,27.2,12,27.2,28.4
			c0,16.4-10.8,30.9-27.2,30.9c-5.6,0-10.8-1.6-15.3-4.2v64.7c0,12.6,10.2,22.9,22.9,22.9h68.6c-3,4.3-4.8,9.5-4.8,15.1
			c0,14.5,11.7,26.2,26.2,26.2s26.2-11.7,26.2-26.2c0-5.6-1.8-10.9-4.8-15.1h68.8c12.6,0,22.9-10.2,22.9-22.9V274.7
			C766.1,262.1,755.9,251.8,743.3,251.8z"/>
		<path fill="#9AC7FC" d="M757.9,546.3l-63.7-8.2c2,4.7,2.8,10.1,2.1,15.5c-2.1,16.5-17.1,23.4-33.6,21.3
			c-16.5-2.1-28.3-12.5-26.1-29c0.7-5.5,2.8-10.4,6-14.5l-63.4-8.2c-12.5-1.6-24,7.2-25.6,19.7l-8.5,65.7c-3.1-1.9-6.7-3.3-10.5-3.8
			c-14.4-1.9-27.5,8.3-29.4,22.7c-1.9,14.4,8.3,27.5,22.7,29.4c3.9,0.5,7.6,0.1,11.1-1l-8.5,65.7c-1.6,12.5,7.2,24,19.7,25.6
			l178.8,23c12.5,1.6,24-7.2,25.6-19.7l23-178.8C779.3,559.4,770.4,547.9,757.9,546.3z"/>
	</g>
	<g id="y3" display="inline">
		<g>
			<path fill="#1972F5" d="M636.6,546c0.7-5.5,2.8-10.4,6-14.5l-63.4-8.2c-12.5-1.6-24,7.2-25.6,19.7l-5.7,44.5
				c32,3.6,45.7-22.2,45.9-22.5c1.9-3.6,6.3-5,9.9-3.2c3.6,1.9,5,6.3,3.2,9.9c-6.4,12.3-27.2,34.2-60.8,30.3l-0.8,6.6
				c-3.1-1.9-6.7-3.3-10.5-3.8c-14.4-1.9-27.5,8.3-29.4,22.7c-1,7.6,1.4,15,6.1,20.4l13.8,1.9c62,8.4,120.2-23.2,148.6-75
				c-3.5,0.5-7.2,0.5-11,0C646.2,572.8,634.5,562.5,636.6,546z"/>
			<path fill="#1972F5" d="M331.7,460.7c4.1-14.8,17.4-24.8,32.7-21.5c15.8,3.4,22.9,11.2,23.8,28c0.3,5.7-1.7,10.7-5.1,14.7l66,8.4
				c12.5,1.6,24-7.3,25.6-19.8l8.8-68.7c3.9,3.9,9.1,6.6,15.1,7.3c14.4,1.8,27.5-8.3,29.3-22.7c1.8-14.4-8.3-27.5-22.7-29.3
				c-5.9-0.8-11.6,0.5-16.4,3.3l1.5-11.7l-8.9-1.2c-80.4-11.1-154.6,45-165.7,125.4l-0.1,0.4l18.4,2.3
				C331.6,470.8,330.2,466.2,331.7,460.7z M430.6,462.2c-1.2,8.7-9.3,14.9-18,13.6l-0.3,0c-8.7-1.2-14.9-9.3-13.6-18l1.7-12.4
				c1.2-8.7,9.3-14.9,18-13.6l0.3,0c8.7,1.2,14.9,9.3,13.6,18L430.6,462.2z M336,436.5c18.1-40.3,54.8-69.7,98.1-78.7
				c2.7-0.5,5.2,1.2,5.8,3.8c0.5,2.7-1.2,5.3-3.8,5.8c-40.2,8.3-74.3,35.6-91.1,73.1c-0.9,2-3,3.1-5.1,2.8c-0.5-0.1-0.9-0.2-1.3-0.4
				C336,441.9,334.9,439,336,436.5z"/>
			<path fill="#1972F5" d="M555.5,335.2c16.4,0,27.2,12,27.2,28.4s-10.8,30.9-27.2,30.9c-5.6,0-10.8-1.6-15.3-4.2v64.7
				c0,12.6,10.2,22.9,22.9,22.9h68.6c-3,4.3-4.8,9.5-4.8,15.1c0,14.5,11.7,26.2,26.2,26.2c4.5,0,8.7-1.1,12.4-3.1
				c5.4-15.3,8.3-31.7,8.3-48.8v-3c0-47.9-22.9-90.4-58.4-117.3c25.9,12.7,47.4,32.7,62,57.4c-25.6-43.3-72.7-72.4-126.6-72.4h-10.6
				v7.3C544.7,336.7,549.9,335.2,555.5,335.2z M589.7,424.2c8.8,0,16,7.2,16,16v12.5c0,8.8-7.2,16-16,16h-0.3c-8.8,0-16-7.2-16-16
				v-12.5c0-8.8,7.2-16,16-16H589.7z"/>
			<path fill="#1972F5" d="M430.1,656.7c-12.5-2.1-24.7-5.7-36.1-10.8c21.2,4.9,43.7,5.2,66.3,0l1.8-0.4c-4.9-4.1-8.5-9.9-10.1-16.9
				c-3.7-15.8,4.1-31.4,20-35.2c3.6-0.8,7.1-1,10.5-0.6l-0.8-3.4c-33.1,7-55.9-12.9-63.3-24.5c-2.2-3.4-1.2-8,2.2-10.2
				c3.4-2.2,8-1.2,10.2,2.2c0.7,1.1,16.6,24.5,47.6,18.2L468,532c-2.9-12.3-15.2-19.9-27.5-17l-67.1,15.9c2.1-5,2.7-10.6,1.4-16.3
				c-3.3-14.1-17.5-22.8-31.6-19.5c-14.1,3.3-22.8,17.5-19.5,31.6c1.3,5.6,4.4,10.4,8.5,13.9l-21.4,5.1
				C324.9,605.1,373.3,647.4,430.1,656.7z"/>
			<path fill="#055CC6" d="M712.1,541.9l0.2-1.4l-18.1-2.3c2,4.7,2.8,10.1,2.1,15.5c-1.6,12.7-10.9,19.7-22.6,21.3
				c-28.4,51.8-86.6,83.4-148.6,75l-13.8-1.9c4.1,4.8,9.9,8.1,16.6,9c3.9,0.5,7.6,0.1,11.1-1l-1.3,10.4l9.1,1.2
				C627.2,678.6,701.2,622.3,712.1,541.9z"/>
			<path fill="#055CC6" d="M679.3,492.9c0-5.6-1.8-10.9-4.8-15.1h23.2c0-1.2,0-2.4-0.1-3.6c0-0.4,0-0.9,0-1.3
				c-0.1-1.3-0.1-2.7-0.2-4c0-0.3,0-0.6-0.1-0.8c-0.1-1.6-0.3-3.1-0.4-4.7c0-0.4-0.1-0.7-0.1-1.1c-0.1-1.3-0.3-2.6-0.5-3.8
				c-0.1-0.4-0.1-0.7-0.2-1.1c-0.2-1.6-0.5-3.1-0.8-4.6c0-0.2-0.1-0.5-0.1-0.7c-0.3-1.3-0.5-2.7-0.8-4c-0.1-0.4-0.2-0.7-0.2-1.1
				c-0.7-3.1-1.5-6.1-2.4-9.1c-0.1-0.3-0.2-0.6-0.3-0.9c-0.4-1.4-0.8-2.8-1.3-4.1c0-0.1-0.1-0.2-0.1-0.3c-0.5-1.5-1-3-1.6-4.5
				c-0.1-0.2-0.2-0.4-0.2-0.6c-0.5-1.4-1-2.7-1.6-4c-0.1-0.2-0.1-0.3-0.2-0.5c-1.3-3-2.6-6-4-8.9c-0.1-0.1-0.1-0.3-0.2-0.4
				c-1.5-2.9-3-5.8-4.7-8.6c0-0.1-0.1-0.1-0.1-0.2c-14.6-24.7-36.2-44.7-62-57.4c35.5,26.8,58.4,69.4,58.4,117.3v3
				c0,17.1-2.9,33.5-8.3,48.8C673.7,511.6,679.3,502.9,679.3,492.9z"/>
			<path fill="#055CC6" d="M485.5,650.8c-8.9,2.1-17.2-0.2-23.4-5.3l-1.8,0.4c-22.6,5.2-45.2,4.9-66.3,0
				c11.4,5.1,23.6,8.8,36.1,10.8c0,0,0.1,0,0.1,0c3.7,0.6,7.4,1.1,11.2,1.4c0.2,0,0.4,0,0.6,0c0.8,0.1,1.5,0.1,2.3,0.2
				c0.3,0,0.6,0,1,0.1c0.7,0,1.4,0.1,2.2,0.1c0.4,0,0.7,0,1.1,0c0.7,0,1.4,0,2.1,0.1c0.3,0,0.7,0,1,0c1.2,0,2.5,0,3.7,0
				c0.5,0,1,0,1.5,0c0.6,0,1.1,0,1.7-0.1c0.6,0,1.1,0,1.7-0.1c0.5,0,1.1-0.1,1.6-0.1c0.6,0,1.2-0.1,1.8-0.1c0.5,0,1-0.1,1.5-0.1
				c0.7-0.1,1.4-0.1,2.1-0.2c0.4,0,0.8-0.1,1.2-0.1c1.1-0.1,2.2-0.2,3.3-0.4c0.4,0,0.7-0.1,1.1-0.1c0.8-0.1,1.6-0.2,2.4-0.3
				c0.4-0.1,0.9-0.1,1.3-0.2c0.7-0.1,1.5-0.2,2.2-0.4c0.4-0.1,0.8-0.1,1.3-0.2c0.8-0.1,1.6-0.3,2.3-0.4c0.4-0.1,0.7-0.1,1.1-0.2
				c1.1-0.2,2.3-0.5,3.4-0.7l9.6-2.2l-1.4-6C492.3,648.5,489,649.9,485.5,650.8z"/>
			<path fill="#9AC7FC" d="M606.8,571.9c1.9-3.6,0.5-8-3.2-9.9c-3.6-1.9-8.1-0.5-9.9,3.2c-0.1,0.3-13.9,26.1-45.9,22.5l-1.9,14.6
				C579.6,606.1,600.4,584.2,606.8,571.9z"/>
			<path fill="#9AC7FC" d="M430.7,557c-2.2-3.4-6.7-4.4-10.2-2.2c-3.4,2.2-4.4,6.7-2.2,10.2c7.5,11.7,30.2,31.5,63.3,24.5l-3.4-14.3
				C447.3,581.5,431.4,558.1,430.7,557z"/>
			<path fill="#9AC7FC" d="M418.7,431.8l-0.3,0c-8.7-1.2-16.8,4.9-18,13.6l-1.7,12.4c-1.2,8.7,4.9,16.8,13.6,18l0.3,0
				c8.7,1.2,16.8-4.9,18-13.6l1.7-12.4C433.5,441.1,427.4,433,418.7,431.8z"/>
			<path fill="#9AC7FC" d="M573.3,440.2v12.5c0,8.8,7.2,16,16,16h0.3c8.8,0,16-7.2,16-16v-12.5c0-8.8-7.2-16-16-16h-0.3
				C580.5,424.2,573.3,431.3,573.3,440.2z"/>
		</g>
	</g>
</g>
<g id="Layer_13">
	
		<use xlink:href="#New_Symbol_1"  width="537.9" height="592" x="-269" y="-296" transform="matrix(1.6476 0 0 -1.6476 516.189 521.56)" overflow="visible"/>
</g>
<g id="Layer_12" display="none">
	
		<use xlink:href="#New_Symbol"  width="530.3" height="533.8" x="-265.2" y="-266.9" transform="matrix(1.7811 0 0 -1.7811 529.1882 512.9947)" display="inline" overflow="visible"/>
</g>
<g id="Layer_14" display="none">
	
		<use xlink:href="#New_Symbol_2"  width="622.1" height="622.7" x="-311.1" y="-311.3" transform="matrix(1.4436 0 0 -1.4436 511.9995 512.0001)" display="inline" overflow="visible"/>
</g>
</svg>
