<?xml version="1.0" standalone="no"?>
<!DOCTYPE svg PUBLIC "-//W3C//DTD SVG 20010904//EN"
 "http://www.w3.org/TR/2001/REC-SVG-20010904/DTD/svg10.dtd">
<svg version="1.0" xmlns="http://www.w3.org/2000/svg"
 width="960.000000pt" height="960.000000pt" viewBox="0 0 960.000000 960.000000"
 preserveAspectRatio="xMidYMid meet">
<metadata>
Created by potrace 1.11, written by Peter Selinger 2001-2013
</metadata>
<g transform="translate(0.000000,960.000000) scale(0.100000,-0.100000)"
fill="#000000" stroke="none">
<path d="M4697 7554 c-1 -1 -27 -5 -57 -8 -30 -3 -68 -8 -85 -11 -16 -3 -48
-7 -70 -9 -22 -3 -50 -7 -61 -10 -12 -2 -37 -7 -55 -10 -37 -6 -72 -13 -106
-21 -13 -3 -31 -7 -42 -9 -20 -5 -227 -73 -251 -83 -8 -3 -19 -7 -25 -8 -16
-4 -128 -46 -150 -56 -11 -5 -58 -22 -105 -39 -47 -17 -92 -33 -100 -37 -8 -3
-17 -7 -20 -8 -3 -1 -12 -4 -20 -8 -8 -3 -51 -18 -94 -33 -147 -49 -301 -139
-442 -258 -11 -8 -59 -48 -109 -87 -49 -39 -112 -90 -139 -113 -27 -22 -58
-48 -70 -56 -50 -34 -266 -219 -316 -271 -60 -62 -60 -62 -110 -134 -19 -27
-38 -52 -41 -55 -15 -13 -89 -120 -89 -129 0 -5 -4 -11 -8 -13 -5 -1 -35 -41
-67 -88 -32 -47 -87 -125 -122 -175 -35 -49 -66 -97 -70 -105 -4 -8 -9 -17
-12 -20 -3 -3 -24 -32 -46 -65 -22 -33 -42 -62 -46 -65 -3 -3 -8 -9 -10 -15
-6 -15 -142 -218 -156 -233 -6 -6 -15 -21 -18 -32 -3 -11 -11 -20 -16 -20 -5
0 -9 -4 -9 -10 0 -5 -23 -44 -51 -86 -101 -151 -229 -359 -229 -374 0 -13 46
-92 143 -244 17 -27 284 -438 297 -456 5 -8 28 -41 50 -73 22 -32 40 -60 40
-63 0 -3 6 -11 13 -19 6 -7 50 -70 97 -140 47 -70 91 -133 98 -140 6 -8 12
-18 12 -23 0 -6 3 -12 7 -14 5 -1 24 -25 42 -53 19 -27 37 -52 40 -55 4 -3 12
-16 19 -29 27 -46 214 -291 245 -320 71 -65 281 -238 452 -373 6 -5 24 -20 40
-34 17 -14 46 -37 65 -52 19 -15 44 -35 55 -45 61 -56 212 -161 285 -198 97
-48 103 -51 185 -79 33 -12 69 -25 80 -30 33 -15 363 -135 465 -170 129 -44
211 -67 300 -86 79 -17 89 -19 160 -29 25 -3 75 -11 113 -16 37 -6 93 -12 125
-14 31 -2 62 -4 67 -5 25 -6 33 1 29 25 -13 71 -63 135 -131 165 -24 11 -47
19 -51 18 -11 -3 -175 54 -262 90 l-35 14 70 33 c39 18 88 47 110 64 22 17 53
41 69 54 16 12 34 27 40 32 6 6 38 32 71 60 33 27 62 52 65 55 14 14 108 90
113 90 3 0 12 -6 19 -13 7 -7 42 -37 78 -67 36 -30 67 -57 70 -60 3 -3 28 -23
55 -45 28 -21 55 -44 60 -50 6 -6 26 -22 45 -35 19 -13 37 -27 40 -31 7 -9
119 -65 150 -74 23 -7 22 -9 -25 -31 -28 -13 -57 -23 -66 -24 -8 0 -19 -4 -25
-9 -5 -6 -49 -21 -99 -36 -154 -44 -199 -76 -234 -162 -23 -57 -12 -66 77 -58
42 3 88 8 102 10 14 2 48 6 75 9 28 4 61 8 75 11 14 3 39 7 55 9 180 29 280
59 680 208 105 38 215 79 245 90 128 47 295 126 310 148 3 4 14 12 26 18 12 6
39 26 61 44 22 18 57 47 78 63 22 17 55 44 75 60 21 17 54 44 75 60 74 58 273
220 379 310 124 104 153 139 372 450 7 11 26 38 42 60 50 71 137 197 213 310
41 61 77 115 82 120 4 6 26 39 49 75 24 36 46 70 51 75 9 11 141 212 223 340
116 180 144 226 144 232 0 3 7 15 17 25 14 16 15 21 2 46 -37 73 -248 404
-261 410 -5 2 -8 8 -8 13 0 12 -281 433 -292 437 -4 2 -8 9 -8 15 0 7 -18 36
-40 65 -22 29 -40 55 -40 57 0 8 -74 110 -82 113 -5 2 -8 8 -8 12 0 17 -275
398 -332 460 -26 28 -91 86 -163 145 -27 22 -53 45 -59 50 -6 6 -27 22 -48 37
-20 15 -42 34 -50 41 -7 7 -94 78 -193 157 -99 79 -182 146 -185 150 -3 3 -36
28 -75 57 -91 66 -206 126 -313 163 -48 17 -96 34 -107 39 -11 5 -36 14 -55
21 -19 7 -45 16 -57 21 -13 5 -33 13 -45 18 -13 5 -39 14 -58 21 -19 7 -44 16
-55 20 -52 22 -193 72 -214 76 -13 3 -32 9 -43 15 -10 5 -18 6 -18 2 0 -4 -4
-3 -8 2 -6 9 -107 39 -172 51 -14 3 -41 9 -60 14 -19 5 -57 12 -85 15 -27 4
-59 9 -70 10 -11 2 -40 6 -65 9 -25 3 -56 8 -70 11 -41 8 -190 14 -186 7 2 -4
9 -26 15 -49 21 -78 100 -139 213 -163 25 -5 59 -15 75 -21 45 -18 67 -27 113
-44 3 -1 20 -8 38 -15 l34 -13 -69 -32 c-59 -28 -188 -117 -248 -172 -38 -34
-200 -169 -213 -177 -12 -7 -54 24 -174 126 -149 127 -233 191 -278 211 -25
11 -47 20 -50 20 -3 -1 -14 4 -25 9 -17 10 -13 14 35 35 30 14 62 27 70 29 22
6 169 54 216 71 74 26 124 88 136 168 3 18 -3 20 -50 20 -29 0 -54 0 -55 -1z
m823 -363 c54 -27 101 -46 104 -43 4 3 6 0 6 -7 0 -7 4 -10 9 -7 5 3 14 0 19
-7 6 -7 27 -19 47 -27 19 -7 35 -17 35 -22 0 -13 -20 -9 -64 13 -22 12 -52 27
-66 34 -36 18 -140 75 -175 97 -54 32 -17 19 85 -31z m-1246 26 c-3 -8 -24
-23 -47 -33 -23 -11 -83 -41 -134 -67 -85 -44 -130 -60 -108 -38 6 5 66 37
135 71 69 33 132 65 140 70 20 12 20 12 14 -3z m1220 -159 c-3 -4 -9 -8 -15
-8 -5 0 -9 4 -9 8 0 5 7 9 15 9 8 0 12 -4 9 -9z m-89 -48 c-3 -5 -12 -10 -18
-10 -7 0 -6 4 3 10 19 12 23 12 15 0z m-1035 -20 c0 -5 4 -10 8 -10 4 0 57
-27 118 -60 112 -62 220 -107 264 -111 39 -4 90 11 90 27 0 8 5 14 10 14 6 0
10 -5 10 -10 0 -6 14 -17 32 -24 26 -11 41 -11 88 0 54 12 244 102 335 158 47
29 63 25 32 -8 -12 -13 -38 -42 -57 -66 -19 -23 -59 -67 -88 -98 -64 -66 -102
-115 -102 -129 0 -15 48 -30 90 -27 57 3 101 27 186 105 89 81 176 157 206
177 18 13 18 12 -1 -21 -11 -20 -59 -95 -108 -169 -110 -167 -121 -187 -105
-197 19 -11 93 -3 130 15 33 15 73 55 133 131 17 21 67 78 112 127 45 49 84
92 87 96 3 4 12 7 20 8 8 0 38 7 65 15 l50 14 55 -38 c53 -36 119 -95 121
-108 0 -3 3 -15 6 -26 2 -11 7 -45 10 -76 4 -43 2 -56 -8 -56 -11 -1 -144 -26
-249 -48 -15 -3 -211 -42 -260 -51 -65 -13 -177 -58 -212 -86 -58 -45 -84
-107 -72 -168 11 -53 52 -57 211 -19 121 29 198 30 343 5 79 -14 257 -82 323
-123 20 -13 37 -21 37 -18 0 2 40 -20 88 -50 88 -53 149 -83 186 -91 10 -2 33
-8 50 -13 17 -5 58 -14 91 -21 137 -29 222 -52 270 -74 49 -22 56 -31 122
-142 39 -66 99 -171 135 -234 35 -63 77 -137 93 -165 63 -111 208 -370 227
-404 10 -20 28 -49 39 -66 32 -50 41 -79 31 -95 -10 -17 -19 -33 -169 -300
-60 -107 -124 -220 -141 -250 -17 -30 -72 -127 -122 -215 -152 -267 -159 -278
-212 -302 -44 -21 -205 -63 -298 -79 -40 -7 -163 -44 -190 -57 -14 -7 -60 -33
-102 -59 -144 -87 -341 -173 -443 -193 -16 -3 -43 -9 -60 -12 -66 -14 -220 -6
-301 15 -125 33 -162 35 -190 7 -22 -23 -26 -71 -9 -124 18 -59 140 -126 280
-156 39 -9 93 -20 120 -26 28 -6 66 -13 85 -15 19 -3 49 -9 65 -14 17 -5 50
-12 75 -15 24 -4 47 -8 50 -10 3 -2 23 -6 45 -9 78 -12 77 -11 71 -79 -7 -95
-12 -103 -106 -178 -70 -55 -74 -57 -141 -43 -64 13 -77 22 -143 93 -23 24
-46 49 -51 55 -6 6 -46 52 -88 103 -100 119 -122 134 -203 141 -53 4 -64 2
-64 -10 0 -9 54 -98 120 -198 66 -101 120 -187 120 -192 0 -5 -11 1 -24 14
-13 13 -43 39 -67 58 -41 33 -100 85 -173 154 -63 58 -123 76 -204 62 l-42 -8
17 -30 c10 -17 40 -54 67 -82 26 -28 71 -78 100 -111 28 -33 63 -73 78 -89 15
-17 26 -32 24 -33 -2 -2 -35 15 -73 37 -39 22 -75 40 -81 40 -6 0 -12 4 -14 8
-4 11 -137 76 -197 97 -61 21 -117 19 -141 -5 -20 -20 -20 -20 -40 0 -40 40
-126 21 -290 -64 -93 -47 -121 -63 -194 -107 -15 -9 -17 -8 -10 3 14 23 176
208 183 208 3 0 22 22 41 50 19 27 38 49 43 50 4 0 7 6 7 14 0 15 -42 28 -94
28 -49 0 -96 -24 -156 -79 -30 -28 -73 -66 -94 -84 -22 -19 -48 -42 -58 -51
-10 -10 -22 -18 -28 -18 -5 0 -10 -3 -10 -7 0 -5 -17 -21 -37 -37 -20 -16 -33
-23 -28 -15 20 34 130 204 135 209 5 5 30 42 55 81 16 26 55 98 55 102 0 2
-23 4 -51 6 -36 1 -63 -4 -92 -19 -43 -22 -51 -30 -122 -116 -47 -57 -90 -105
-165 -184 -46 -48 -64 -60 -105 -69 -27 -6 -57 -13 -66 -15 -18 -5 -142 86
-170 124 -10 14 -21 41 -23 60 -3 19 -8 52 -11 73 -2 20 -2 37 3 38 4 0 14 2
22 4 21 5 169 35 200 41 27 5 61 11 100 20 14 2 48 9 75 14 144 28 210 46 268
73 111 51 167 146 130 220 -19 39 -63 39 -208 3 -127 -32 -244 -29 -389 9
-132 35 -238 84 -461 214 -38 23 -77 41 -85 41 -9 0 -21 5 -28 12 -7 7 -12 9
-12 5 0 -3 -12 -2 -27 4 -16 6 -41 13 -58 16 -16 2 -67 13 -113 24 -46 10 -97
21 -114 24 -17 3 -36 9 -42 13 -6 4 -13 7 -16 7 -3 0 -24 8 -46 18 -32 15 -50
35 -91 100 -28 45 -59 98 -69 117 -11 19 -21 37 -24 40 -3 3 -11 16 -17 30
-20 40 -69 128 -80 142 -5 7 -29 48 -52 91 -23 44 -68 125 -100 180 -32 56
-84 147 -115 202 -31 55 -67 119 -80 141 -27 46 -29 38 36 149 69 115 99 170
109 198 6 15 14 27 18 27 4 0 13 16 21 35 8 19 17 35 22 35 4 0 8 9 8 20 0 11
3 20 8 20 4 0 20 26 37 58 16 31 47 86 68 121 21 35 43 74 48 85 5 12 23 44
40 71 16 28 33 58 36 68 3 9 9 17 13 17 5 0 12 10 16 22 13 42 96 168 122 187
26 18 135 56 191 66 47 9 65 13 177 40 94 22 131 37 235 96 111 63 185 101
302 153 83 38 229 67 332 67 84 0 140 -4 140 -11 0 -1 9 -3 20 -5 11 -2 48
-11 82 -18 113 -27 153 -11 153 59 0 56 -12 87 -50 122 -52 50 -117 78 -250
107 -70 16 -86 19 -142 29 -13 2 -34 7 -48 10 -14 3 -36 8 -50 10 -55 10 -236
47 -251 52 -14 4 -16 14 -13 52 10 107 20 122 129 206 51 39 61 40 140 22 11
-2 26 -5 32 -5 17 -1 154 -143 233 -242 55 -68 108 -119 138 -130 26 -10 119
-15 127 -7 9 8 -84 167 -115 198 -13 12 -60 91 -60 99 0 5 -4 11 -8 13 -4 2
-20 25 -36 51 l-27 48 80 -67 c45 -37 81 -72 81 -77 0 -6 3 -8 6 -4 3 3 21 -9
38 -26 127 -124 175 -146 274 -123 17 4 32 11 32 15 0 13 -34 56 -91 116 -82
87 -179 201 -179 210 0 3 5 5 10 5 6 0 10 -4 10 -10z m-146 -4448 c3 -5 -1 -9
-9 -9 -8 0 -12 4 -9 9 3 4 7 8 9 8 2 0 6 -4 9 -8z m1253 2 c-3 -3 -12 -4 -19
-1 -8 3 -5 6 6 6 11 1 17 -2 13 -5z m-1372 -69 c104 -51 216 -115 202 -115
-10 0 -337 158 -337 163 0 13 47 -4 135 -48z m1640 44 c-4 -6 -59 -33 -202
-101 -38 -17 -71 -33 -75 -35 -5 -2 -8 0 -8 5 0 5 15 15 33 23 17 7 34 15 37
18 12 14 187 98 202 97 9 0 15 -3 13 -7z m-295 -143 c0 -2 -7 -7 -16 -10 -8
-3 -12 -2 -9 4 6 10 25 14 25 6z"/>
<path d="M4727 6064 c-1 -2 -23 -5 -48 -8 -25 -3 -68 -10 -95 -16 -27 -7 -56
-13 -64 -15 -118 -24 -383 -152 -456 -220 -7 -5 -31 -25 -54 -44 -92 -75 -219
-221 -260 -301 -7 -14 -16 -27 -19 -30 -10 -8 -72 -139 -97 -206 -54 -144 -75
-266 -77 -439 -3 -272 66 -499 221 -735 65 -99 219 -257 312 -321 36 -24 67
-46 70 -49 11 -11 148 -80 200 -100 57 -23 167 -57 210 -65 14 -3 34 -7 45 -9
92 -18 293 -25 372 -12 16 2 48 7 73 11 123 18 309 84 427 154 309 180 546
500 613 826 7 33 15 64 18 69 8 13 11 77 12 201 0 144 0 137 -16 236 -60 368
-287 705 -599 891 -146 87 -302 147 -425 162 -14 2 -50 7 -80 11 -48 7 -278
14 -283 9z"/>
</g>
</svg>
